<?xml version='1.0' encoding='utf-8'?>
<svg xmlns:ns0="http://www.w3.org/2000/svg" xmlns="http://www.w3.org/2000/svg" version="1.1" viewBox="0 0 591 1000" preserveAspectRatio="xMidYMid meet" width="591px" height="1000px"><ns0:defs>
    <ns0:style>
      .cls-1, .cls-2, .cls-3, .cls-4 {
        fill: none;
      }

      .cls-5 {
        fill: #d1d3d4;
      }

      .cls-6 {
        fill: #231f20;
      }

      .cls-2 {
        stroke-linejoin: round;
      }

      .cls-2, .cls-7, .cls-3, .cls-4, .cls-8 {
        stroke: #221f1f;
      }

      .cls-2, .cls-8 {
        stroke-width: .5px;
      }

      .cls-7 {
        fill: #f9f9f9;
      }

      .cls-7, .cls-4, .cls-8 {
        stroke-miterlimit: 10;
      }

      .cls-3 {
        stroke-miterlimit: 10;
        stroke-width: 1px;
      }

      .cls-9 {
        fill: #e6e7e7;
      }

      .cls-10, .cls-8 {
        fill: #221f1f;
      }

      .cls-11 {
        fill: #f7b41d;
      }
    </ns0:style>
  </ns0:defs>
  <ns0:g id="Mach_No._Index" data-name="Mach No. Index">
      <ns0:g id="Tick_Marks" data-name="Tick Marks">
        <ns0:line id="_Line_-228" data-name="&amp;lt;Line&amp;gt;" class="cls-4" x1="165.88" y1="258.84" x2="156.13" y2="256.06" />
        <ns0:line id="_Line_-229" data-name="&amp;lt;Line&amp;gt;" class="cls-4" x1="273.26" y1="162.65" x2="271.6" y2="152.64" />
        <ns0:line id="_Line_-230" data-name="&amp;lt;Line&amp;gt;" class="cls-4" x1="237.46" y1="183.47" x2="230.58" y2="169.32" />
        <ns0:line id="_Line_-231" data-name="&amp;lt;Line&amp;gt;" class="cls-4" x1="267.75" y1="163.62" x2="266.31" y2="156.62" />
        <ns0:line id="_Line_-232" data-name="&amp;lt;Line&amp;gt;" class="cls-4" x1="256.36" y1="166.54" x2="254.31" y2="159.69" />
        <ns0:line id="_Line_-233" data-name="&amp;lt;Line&amp;gt;" class="cls-4" x1="245.05" y1="170.53" x2="242.4" y2="163.89" />
        <ns0:line id="_Line_-234" data-name="&amp;lt;Line&amp;gt;" class="cls-4" x1="222.63" y1="182.14" x2="218.79" y2="176.1" />
        <ns0:line id="_Line_-235" data-name="&amp;lt;Line&amp;gt;" class="cls-4" x1="211.82" y1="189.86" x2="207.41" y2="184.24" />
        <ns0:line id="_Line_-236" data-name="&amp;lt;Line&amp;gt;" class="cls-4" x1="201.37" y1="199.06" x2="196.4" y2="193.92" />
        <ns0:line id="_Line_-237" data-name="&amp;lt;Line&amp;gt;" class="cls-4" x1="191.57" y1="209.71" x2="186.07" y2="205.14" />
        <ns0:line id="_Line_-238" data-name="&amp;lt;Line&amp;gt;" class="cls-4" x1="182.68" y1="221.79" x2="176.71" y2="217.86" />
        <ns0:line id="_Line_-239" data-name="&amp;lt;Line&amp;gt;" class="cls-4" x1="174.87" y1="235.42" x2="168.48" y2="232.2" />
        <ns0:line id="_Line_-240" data-name="&amp;lt;Line&amp;gt;" class="cls-4" x1="168.45" y1="250.57" x2="161.72" y2="248.15" />
        <ns0:line id="_Line_-241" data-name="&amp;lt;Line&amp;gt;" class="cls-4" x1="262.1" y1="165" x2="259.61" y2="155.18" />
        <ns0:line id="_Line_-242" data-name="&amp;lt;Line&amp;gt;" class="cls-4" x1="250.75" y1="168.45" x2="247.39" y2="158.88" />
        <ns0:line id="_Line_-243" data-name="&amp;lt;Line&amp;gt;" class="cls-4" x1="239.42" y1="173.03" x2="235.21" y2="163.8" />
        <ns0:line id="_Line_-244" data-name="&amp;lt;Line&amp;gt;" class="cls-4" x1="228.14" y1="178.85" x2="223.09" y2="170.06" />
        <ns0:line id="_Line_-245" data-name="&amp;lt;Line&amp;gt;" class="cls-4" x1="217.17" y1="185.91" x2="211.29" y2="177.65" />
        <ns0:line id="_Line_-246" data-name="&amp;lt;Line&amp;gt;" class="cls-4" x1="206.54" y1="194.36" x2="199.85" y2="186.73" />
        <ns0:line id="_Line_-247" data-name="&amp;lt;Line&amp;gt;" class="cls-4" x1="196.42" y1="204.25" x2="188.97" y2="197.36" />
        <ns0:line id="_Line_-248" data-name="&amp;lt;Line&amp;gt;" class="cls-4" x1="187.05" y1="215.61" x2="178.89" y2="209.59" />
        <ns0:line id="_Line_-249" data-name="&amp;lt;Line&amp;gt;" class="cls-4" x1="178.68" y1="228.44" x2="169.89" y2="223.38" />
        <ns0:line id="_Line_-250" data-name="&amp;lt;Line&amp;gt;" class="cls-4" x1="171.53" y1="242.81" x2="162.21" y2="238.83" />
      </ns0:g>
      <ns0:polygon id="Mach_No._Index_Arrow" data-name="Mach No. Index Arrow" class="cls-10" points="240.76 188.6 244.88 196.58 243.99 197.04 239.87 189.06 238.55 190.65 238.07 184.48 242.82 188.44 240.76 188.6" />
      <ns0:g id="Text">
        <ns0:g>
          <ns0:path class="cls-10" d="M148.96,262.07l.76.17-.63,2.89-.76-.16.63-2.9Z" />
          <ns0:path class="cls-10" d="M146.93,255.96c-.07.26-.12.52-.15.78-.16,1.43.66,2.79,2,3.31h0c-.8-1.04-.61-2.54.43-3.34.62-.48,1.43-.62,2.18-.38,1.41.29,2.32,1.68,2.02,3.09,0,.03-.02.07-.02.1-.41,1.62-1.93,2.36-3.9,1.86-1.27-.27-2.39-1.04-3.09-2.14-.46-.82-.64-1.77-.51-2.7.03-.26.07-.51.13-.76l.91.18ZM151.22,257.35c-.81-.32-1.73.09-2.05.9-.03.08-.06.17-.07.25-.14.63.07,1.28.56,1.7.12.11.26.19.42.23,1.25.29,2.32-.05,2.59-1.12.22-.91-.36-1.68-1.45-1.96Z" />
          <ns0:path class="cls-10" d="M151.84,250.03c2.54.76,3.67,2.12,3.18,3.77-.44,1.46-2.1,2-4.58,1.34s-3.56-2.24-3.11-3.75,2.13-2.06,4.51-1.36ZM150.76,254.13c1.94.57,3.22.3,3.49-.62s-.75-1.88-2.66-2.45-3.19-.43-3.5.61.63,1.83,2.67,2.46Z" />
        </ns0:g>
        <ns0:g>
          <ns0:path class="cls-10" d="M161.54,227.32l.7.35-1.31,2.65-.7-.34,1.31-2.66Z" />
          <ns0:path class="cls-10" d="M166.71,225.32l-1.87-1-1.72,3.2-.61-.33-2.74-5.43.54-1,4.27,2.29.52-1,.73.39-.52,1,1.87,1-.47.88ZM164.11,223.92l-2.3-1.23c-.35-.2-.71-.4-1.06-.62h0c.28.42.49.75.7,1.11l1.44,2.94h0l1.22-2.2Z" />
          <ns0:path class="cls-10" d="M167.29,216.35c2.28,1.35,3,3,2.15,4.43-.78,1.31-2.53,1.47-4.76.18s-2.91-3-2.1-4.41,2.57-1.47,4.71-.2ZM165.23,220.05c1.74,1,3.05,1.09,3.54.26s-.27-2-2-3-3-1.2-3.54-.26.17,1.92,2,3Z" />
        </ns0:g>
        <ns0:g>
          <ns0:path class="cls-10" d="M179.25,200.22l.61.49-1.86,2.31-.6-.49,1.85-2.31Z" />
          <ns0:path class="cls-10" d="M182.6,201.85l-.5-.42-.07-1.15c-.14-2.75-.32-4.09-1.2-4.87-.54-.56-1.42-.57-1.98-.04-.07.07-.14.14-.19.23-.38.48-.59,1.07-.58,1.68l-.78-.23c.01-.81.31-1.58.84-2.19.7-.99,2.07-1.22,3.05-.51.08.06.15.12.23.18,1.09.93,1.29,2.48,1.42,4.76v.85h0l2.29-2.66.66.57-3.19,3.8Z" />
          <ns0:path class="cls-10" d="M187.18,190.76c1.94,1.8,2.34,3.52,1.16,4.78s-2.79.9-4.69-.84-2.19-3.59-1.12-4.75,2.83-.89,4.65.81ZM184.38,193.94c1.48,1.38,2.75,1.71,3.41,1s.16-2-1.3-3.39-2.66-1.8-3.4-1-.26,1.95,1.29,3.39h0Z" />
        </ns0:g>
        <ns0:path class="cls-10" d="M209.7,171.65c1.55,2.15,1.61,3.91.2,4.92-1.23.89-2.91.34-4.43-1.74s-1.46-4-.17-4.88,2.95-.32,4.4,1.7ZM206.33,174.22c1.19,1.65,2.37,2.22,3.15,1.66s.55-2-.61-3.58-2.26-2.29-3.14-1.65-.64,1.85.6,3.57h0Z" />
        <ns0:g>
          <ns0:path class="cls-10" d="M221.98,161.27l1.36,2.47,2.37-1.31.35.63-2.37,1.31,1.37,2.49-.67.37-1.37-2.49-2.42,1.31-.34-.63,2.37-1.31-1.37-2.47.72-.37Z" />
          <ns0:path class="cls-10" d="M228.27,165.13l-.29-.58.39-1.09c.94-2.58,1.3-3.89.79-5-.27-.72-1.07-1.09-1.79-.82-.1.04-.19.08-.27.14-.54.29-.96.76-1.19,1.33l-.63-.52c.32-.74.9-1.33,1.62-1.69,1.04-.63,2.39-.29,3.02.75.05.08.09.16.13.25.64,1.29.22,2.8-.55,4.94l-.31.8h0l3.14-1.55.39.78-4.45,2.26Z" />
          <ns0:path class="cls-10" d="M236.84,156.71c1.08,2.42.77,4.16-.81,4.86-1.39.62-2.91-.27-4-2.62s-.62-4.16.83-4.8,2.97.29,3.98,2.56ZM233.02,158.5c.82,1.85,1.86,2.65,2.73,2.26s.95-1.8.14-3.62-1.74-2.71-2.73-2.26-1.01,1.72-.14,3.62Z" />
        </ns0:g>
        <ns0:g>
          <ns0:path class="cls-10" d="M246.93,150.37l.9,2.67,2.57-.87.23.68-2.57.87.92,2.69-.73.25-.91-2.7-2.57.87-.23-.68,2.57-.87-.91-2.67.73-.24Z" />
          <ns0:path class="cls-10" d="M255.6,154.38l-.59-2-3.49,1-.19-.67,2-5.75,1.09-.31,1.34,4.66,1-.31.23.8-1.05.3.59,2-.93.28ZM254.78,151.54l-.73-2.5c-.11-.39-.21-.79-.3-1.19h0c-.11.51-.2.88-.31,1.29l-1.1,3.08h0l2.44-.68Z" />
          <ns0:path class="cls-10" d="M262.37,148.5c.63,2.57,0,4.23-1.66,4.64-1.48.36-2.82-.78-3.46-3.28s.13-4.21,1.67-4.58,2.86.81,3.45,3.22ZM258.28,149.62c.48,2,1.36,2.94,2.29,2.71s1.25-1.6.78-3.54-1.23-3-2.29-2.71c-.9.23-1.28,1.49-.78,3.55h0Z" />
        </ns0:g>
        <ns0:g>
          <ns0:path class="cls-10" d="M250.6,191.44l-.39.18-1.61-3.72.64,4.18-.27.12-2.72-3.24,1.67,3.72-.34.15-1.98-4.26.59-.26,2.49,3-.59-3.83.59-.26,1.92,4.22Z" />
          <ns0:path class="cls-10" d="M253.81,190.13l-.41.17-.85-1.13-1.2.5.23,1.38-.34.14-.72-4.75.46-.19,2.83,3.88ZM252.3,188.8l-1.35-1.86.35,2.27,1-.41Z" />
          <ns0:path class="cls-10" d="M255.74,187.72h.42c.18,1,0,1.66-.67,1.9-.43.15-.92.04-1.23-.3-.45-.41-.8-.93-1-1.51-.24-.55-.33-1.16-.25-1.76.04-.45.34-.84.76-1,.61-.23,1.18.08,1.71,1l-.34.25c-.41-.64-.81-.89-1.2-.74-.3.13-.49.42-.49.74-.01.5.08.99.28,1.45.15.45.4.86.73,1.2.21.24.54.33.84.23.44-.21.58-.68.44-1.46Z" />
          <ns0:path class="cls-10" d="M259.76,187.97l-.42.14-.72-2.1-1.53.53.72,2.1-.41.14-1.53-4.41.42-.14.63,1.82,1.53-.53-.63-1.82.42-.14,1.52,4.41Z" />
          <ns0:path class="cls-10" d="M264.76,186.43l-.41.12-2.88-3.39.09.29c0,.11.07.21.09.28l1,3.33-.34.1-1.32-4.48.53-.15,2.69,3.17-.09-.31c-.04-.11-.07-.22-.1-.33l-.89-3,.33-.09,1.3,4.46Z" />
          <ns0:path class="cls-10" d="M267.02,185.92c-.44.11-.91-.05-1.19-.41-.77-.94-1.09-2.17-.86-3.36.08-.44.41-.8.84-.93.44-.11.9.05,1.18.4.4.43.68.97.81,1.55.17.58.19,1.18.07,1.77-.06.47-.4.85-.85.98ZM266.91,185.46c.32-.1.54-.39.56-.72.06-.49.03-.98-.11-1.45-.1-.48-.31-.92-.62-1.3-.19-.25-.5-.37-.81-.31-.31.1-.53.38-.55.71-.08.48-.04.97.1,1.44.1.47.31.92.61,1.29.17.29.49.44.82.38v-.04Z" />
          <ns0:path class="cls-10" d="M269.6,184.41l.17.74-.55.14-.18-.75.56-.13Z" />
        </ns0:g>
        <ns0:g>
          <ns0:path class="cls-10" d="M254.82,196.63l-.38.15-1.68-4.06.38-.16,1.68,4.07Z" />
          <ns0:path class="cls-10" d="M258.04,195.35l-.37.15-3-3,.11.27c0,.1.08.18.1.25l1.19,3.05-.31.12-1.6-4.1.49-.19,2.78,2.77-.11-.29c-.05-.11-.09-.21-.12-.29l-1.07-2.76.3-.12,1.61,4.14Z" />
          <ns0:path class="cls-10" d="M259.02,194.99l-1.42-4.15,1-.37c.43-.15.9-.06,1.24.24.41.35.72.82.88,1.34.2.51.26,1.07.17,1.61-.04.41-.31.77-.7.92l-1.17.41ZM259.25,194.42l.63-.23c.33-.1.57-.39.6-.73.09-.86-.2-1.71-.8-2.33-.25-.28-.66-.37-1-.21l-.63.22,1.2,3.28Z" />
          <ns0:path class="cls-10" d="M264.13,192.77l.15.46-2,.65-1.33-4.19,2-.64.15.46-1.6.51.42,1.34,1.27-.41.14.43-1.27.4.48,1.52,1.59-.53Z" />
          <ns0:path class="cls-10" d="M265.78,188.21l-.33,2.19,1.68,2-.45.13-1.32-1.58-.31,2-.37.1.38-2.48-1.46-1.72.45-.13,1.14,1.36.26-1.76.33-.11Z" />
        </ns0:g>
      </ns0:g>
    </ns0:g>
    <text x="295.5" y="50" style="font-family: Arial; font-size: 20px; fill: #333; text-anchor: middle;">SVG Interactif 2 - Face Arrière</text></svg>