<?xml version='1.0' encoding='utf-8'?>
<svg xmlns:ns0="http://www.w3.org/2000/svg" xmlns="http://www.w3.org/2000/svg" version="1.1" viewBox="0 0 591 1000" preserveAspectRatio="xMidYMid meet" width="591px" height="1000px"><ns0:defs>
    <ns0:style>
      .cls-1, .cls-2, .cls-3, .cls-4 {
        fill: none;
      }

      .cls-5 {
        fill: #d1d3d4;
      }

      .cls-6 {
        fill: #231f20;
      }

      .cls-2 {
        stroke-linejoin: round;
      }

      .cls-2, .cls-7, .cls-3, .cls-4, .cls-8 {
        stroke: #221f1f;
      }

      .cls-2, .cls-8 {
        stroke-width: .5px;
      }

      .cls-7 {
        fill: #f9f9f9;
      }

      .cls-7, .cls-4, .cls-8 {
        stroke-miterlimit: 10;
      }

      .cls-3 {
        stroke-miterlimit: 10;
        stroke-width: 1px;
      }

      .cls-9 {
        fill: #e6e7e7;
      }

      .cls-10, .cls-8 {
        fill: #221f1f;
      }

      .cls-11 {
        fill: #f7b41d;
      }
    </ns0:style>
  </ns0:defs>
  <g id="back-side-elements"><ns0:g id="Airspeed">
      <ns0:path class="cls-10" d="M441.14,346.93l-3.68-6.38c-.08-.12-.24-.15-.36-.07-.03.02-.05.04-.07.07l-3.67,6.37c-.04.08-.04.17,0,.25.05.08.13.12.22.12h7.34c.14,0,.25-.11.25-.25,0-.04-.01-.08-.03-.12h0Z" />
      <ns0:g>
        <ns0:path class="cls-6" d="M339.61,302.15h-1.76l-.34,1.31h-1.37l2-6.4h1.18l2.01,6.4h-1.38l-.34-1.31ZM338.13,301.07h1.2l-.6-2.28-.6,2.28Z" />
        <ns0:path class="cls-6" d="M343.28,303.46h-1.29v-6.4h1.29v6.4Z" />
        <ns0:path class="cls-6" d="M346.3,301.12h-.64v2.34h-1.29v-6.4h2.06c.65,0,1.15.17,1.5.5.35.34.53.81.53,1.43,0,.85-.31,1.44-.93,1.78l1.12,2.62v.06h-1.39l-.96-2.34ZM345.66,300.05h.73c.26,0,.45-.09.58-.26.13-.17.19-.4.19-.69,0-.64-.25-.96-.75-.96h-.76v1.91Z" />
        <ns0:path class="cls-6" d="M352.05,301.78c0-.26-.07-.46-.2-.59-.13-.13-.38-.27-.73-.42-.64-.24-1.1-.53-1.38-.85-.28-.33-.42-.71-.42-1.16,0-.54.19-.97.57-1.3.38-.33.87-.49,1.46-.49.39,0,.74.08,1.05.25.31.17.54.4.71.7.17.3.25.64.25,1.03h-1.29c0-.3-.06-.53-.19-.68-.13-.16-.31-.24-.55-.24-.23,0-.4.07-.53.2-.13.13-.19.31-.19.54,0,.18.07.33.21.48.14.14.39.29.75.44.62.23,1.08.5,1.36.83.28.33.42.75.42,1.25,0,.56-.18.99-.53,1.3-.35.31-.84.47-1.45.47-.41,0-.79-.08-1.13-.25s-.61-.41-.8-.73c-.19-.32-.29-.69-.29-1.12h1.3c0,.37.07.64.21.8s.38.25.7.25c.45,0,.68-.24.68-.72Z" />
        <ns0:path class="cls-6" d="M355.5,301.21v2.25h-1.29v-6.4h2.18c.63,0,1.14.2,1.51.59.38.39.56.9.56,1.53s-.19,1.12-.56,1.49-.89.54-1.55.54h-.86ZM355.5,300.13h.89c.25,0,.44-.08.57-.24s.2-.4.2-.7-.07-.57-.21-.76c-.14-.19-.32-.28-.55-.29h-.9v2Z" />
        <ns0:path class="cls-6" d="M362.63,300.69h-2.01v1.7h2.38v1.07h-3.67v-6.4h3.67v1.08h-2.37v1.51h2.01v1.04Z" />
        <ns0:path class="cls-6" d="M367.05,300.69h-2.01v1.7h2.38v1.07h-3.67v-6.4h3.67v1.08h-2.37v1.51h2.01v1.04Z" />
        <ns0:path class="cls-6" d="M368.16,303.46v-6.4h1.69c.75,0,1.34.24,1.79.71.44.47.67,1.12.68,1.95v1.04c0,.84-.22,1.5-.67,1.98-.44.48-1.06.72-1.83.72h-1.66ZM369.45,298.14v4.25h.39c.43,0,.73-.11.91-.34.18-.23.27-.62.28-1.17v-1.11c0-.6-.08-1.01-.25-1.25-.17-.24-.45-.36-.85-.37h-.47Z" />
        <ns0:path class="cls-6" d="M379.66,301.33c-.03.73-.24,1.28-.62,1.66s-.91.56-1.6.56c-.72,0-1.28-.24-1.66-.71-.39-.48-.58-1.16-.58-2.04v-1.08c0-.88.2-1.56.6-2.03.4-.48.95-.71,1.66-.71s1.23.2,1.59.58c.36.39.57.95.62,1.68h-1.3c-.01-.45-.08-.76-.21-.93-.13-.17-.36-.26-.7-.26s-.59.12-.73.36c-.14.24-.22.64-.23,1.19v1.21c0,.64.07,1.07.21,1.31.14.24.39.36.73.36s.57-.08.7-.25c.13-.17.2-.46.22-.9h1.29Z" />
        <ns0:path class="cls-6" d="M384.96,300.84c0,.86-.2,1.52-.61,2-.41.47-.97.71-1.69.71s-1.28-.24-1.69-.71c-.41-.47-.62-1.13-.62-1.98v-1.09c0-.88.2-1.56.61-2.06.41-.49.97-.74,1.7-.74s1.27.24,1.68.73c.41.48.62,1.17.62,2.04v1.09ZM383.66,299.77c0-.58-.08-1.01-.25-1.29s-.42-.42-.76-.42-.6.14-.76.41c-.16.27-.25.68-.25,1.24v1.14c0,.56.08.97.25,1.24.17.27.42.4.77.4s.59-.13.75-.39c.16-.26.25-.66.25-1.21v-1.11Z" />
        <ns0:path class="cls-6" d="M387.82,301.12h-.64v2.34h-1.29v-6.4h2.06c.65,0,1.15.17,1.5.5.35.34.53.81.53,1.43,0,.85-.31,1.44-.93,1.78l1.12,2.62v.06h-1.39l-.96-2.34ZM387.18,300.05h.73c.26,0,.45-.09.58-.26.13-.17.19-.4.19-.69,0-.64-.25-.96-.75-.96h-.76v1.91Z" />
        <ns0:path class="cls-6" d="M392.81,301.12h-.64v2.34h-1.29v-6.4h2.06c.65,0,1.15.17,1.5.5.35.34.53.81.53,1.43,0,.85-.31,1.44-.93,1.78l1.12,2.62v.06h-1.39l-.96-2.34ZM392.17,300.05h.73c.26,0,.45-.09.58-.26.13-.17.19-.4.19-.69,0-.64-.25-.96-.75-.96h-.76v1.91Z" />
        <ns0:path class="cls-6" d="M399.16,300.69h-2.01v1.7h2.38v1.07h-3.67v-6.4h3.67v1.08h-2.37v1.51h2.01v1.04Z" />
        <ns0:path class="cls-6" d="M404.61,301.33c-.03.73-.24,1.28-.62,1.66s-.91.56-1.6.56c-.72,0-1.28-.24-1.66-.71-.39-.48-.58-1.16-.58-2.04v-1.08c0-.88.2-1.56.6-2.03.4-.48.95-.71,1.66-.71s1.23.2,1.59.58c.36.39.57.95.62,1.68h-1.3c-.01-.45-.08-.76-.21-.93-.13-.17-.36-.26-.7-.26s-.59.12-.73.36c-.14.24-.22.64-.23,1.19v1.21c0,.64.07,1.07.21,1.31.14.24.39.36.73.36s.57-.08.7-.25c.13-.17.2-.46.22-.9h1.29Z" />
        <ns0:path class="cls-6" d="M409.42,298.14h-1.58v5.32h-1.3v-5.32h-1.56v-1.08h4.43v1.08Z" />
        <ns0:path class="cls-6" d="M411.51,303.46h-1.29v-6.4h1.29v6.4Z" />
        <ns0:path class="cls-6" d="M417.1,300.84c0,.86-.2,1.52-.61,2-.41.47-.97.71-1.69.71s-1.28-.24-1.69-.71c-.41-.47-.62-1.13-.62-1.98v-1.09c0-.88.2-1.56.61-2.06.41-.49.97-.74,1.7-.74s1.27.24,1.68.73c.41.48.62,1.17.62,2.04v1.09ZM415.8,299.77c0-.58-.08-1.01-.25-1.29s-.42-.42-.76-.42-.6.14-.76.41c-.16.27-.25.68-.25,1.24v1.14c0,.56.08.97.25,1.24.17.27.42.4.77.4s.59-.13.75-.39c.16-.26.25-.66.25-1.21v-1.11Z" />
        <ns0:path class="cls-6" d="M422.5,303.46h-1.29l-1.89-4.2v4.2h-1.29v-6.4h1.29l1.89,4.2v-4.2h1.29v6.4Z" />
      </ns0:g>
      <ns0:g>
        <ns0:path class="cls-6" d="M339.25,317.07c0-.32-.09-.56-.26-.73-.17-.17-.48-.33-.94-.5s-.8-.33-1.04-.51c-.24-.18-.42-.38-.54-.61-.12-.23-.18-.49-.18-.78,0-.51.17-.92.51-1.25.34-.33.78-.49,1.33-.49.38,0,.71.08,1,.25.29.17.52.4.68.7.16.3.24.63.24.98h-.81c0-.4-.1-.7-.29-.92s-.46-.33-.82-.33c-.33,0-.58.09-.76.27s-.27.44-.27.77c0,.27.1.5.29.68.19.18.49.34.9.49.63.21,1.08.46,1.35.77.27.3.41.7.41,1.2,0,.52-.17.93-.5,1.25-.34.31-.8.47-1.38.47-.37,0-.72-.08-1.03-.24-.32-.16-.56-.39-.74-.69-.18-.29-.27-.63-.27-1.01h.81c0,.4.11.7.33.92.22.22.52.33.9.33.35,0,.62-.09.8-.27.18-.18.27-.43.27-.74Z" />
        <ns0:path class="cls-6" d="M342.71,318.77c-.59,0-1.05-.18-1.36-.53-.32-.35-.48-.87-.48-1.55v-.58c0-.71.15-1.27.46-1.67.31-.4.74-.6,1.29-.6s.97.18,1.25.53.42.91.42,1.66v.51h-2.65v.11c0,.51.1.88.29,1.11.19.23.47.35.83.35.23,0,.43-.04.6-.13.17-.09.34-.22.49-.41l.4.49c-.34.47-.85.71-1.54.71ZM342.62,314.51c-.32,0-.56.11-.72.33-.16.22-.24.56-.26,1.03h1.87v-.11c-.02-.45-.1-.77-.24-.97-.14-.19-.36-.29-.65-.29Z" />
        <ns0:path class="cls-6" d="M346.24,312.78v1.15h.72v.63h-.72v2.95c0,.19.03.33.09.43s.17.15.32.15c.1,0,.21-.02.31-.05v.66c-.18.06-.36.09-.55.09-.31,0-.54-.11-.7-.33-.16-.22-.24-.53-.24-.93v-2.95h-.72v-.63h.72v-1.15h.77Z" />
        <ns0:path class="cls-6" d="M350.86,316.18v2.5h-.8v-6.4h2.04c.59,0,1.06.18,1.4.53.34.36.51.83.51,1.42s-.16,1.09-.49,1.42c-.32.33-.78.5-1.37.52h-1.29ZM350.86,315.49h1.24c.36,0,.63-.11.82-.32.19-.21.29-.52.29-.92s-.1-.69-.29-.92c-.2-.23-.47-.35-.81-.35h-1.24v2.51Z" />
        <ns0:path class="cls-6" d="M356.97,316.1h-1.12v2.59h-.81v-6.4h1.79c.63,0,1.1.16,1.42.49.32.33.48.8.48,1.43,0,.4-.09.74-.26,1.04-.17.29-.42.52-.74.67l1.24,2.72v.05h-.87l-1.14-2.59ZM355.85,315.41h.98c.34,0,.61-.11.81-.33.2-.22.3-.51.3-.87,0-.82-.37-1.23-1.12-1.23h-.97v2.43Z" />
        <ns0:path class="cls-6" d="M362.88,315.73h-2.26v2.27h2.64v.69h-3.44v-6.4h3.4v.69h-2.59v2.06h2.26v.69Z" />
        <ns0:path class="cls-6" d="M367.08,317.07c0-.32-.09-.56-.26-.73-.17-.17-.49-.33-.94-.5s-.8-.33-1.03-.51c-.24-.18-.42-.38-.54-.61-.12-.23-.18-.49-.18-.78,0-.51.17-.92.51-1.25.34-.33.78-.49,1.33-.49.38,0,.71.08,1,.25.29.17.52.4.68.7.16.3.24.63.24.98h-.81c0-.4-.09-.7-.29-.92s-.46-.33-.82-.33c-.33,0-.58.09-.76.27s-.27.44-.27.77c0,.27.1.5.29.68.19.18.49.34.9.49.63.21,1.08.46,1.35.77.27.3.41.7.41,1.2,0,.52-.17.93-.51,1.25-.34.31-.79.47-1.38.47-.37,0-.72-.08-1.03-.24-.32-.16-.56-.39-.74-.69-.18-.29-.27-.63-.27-1.01h.81c0,.4.11.7.33.92.22.22.52.33.9.33.35,0,.62-.09.8-.27.18-.18.27-.43.27-.74Z" />
        <ns0:path class="cls-6" d="M371.74,317.07c0-.32-.09-.56-.26-.73-.17-.17-.48-.33-.94-.5s-.8-.33-1.04-.51c-.24-.18-.42-.38-.54-.61-.12-.23-.18-.49-.18-.78,0-.51.17-.92.51-1.25.34-.33.78-.49,1.33-.49.38,0,.71.08,1,.25.29.17.52.4.68.7.16.3.24.63.24.98h-.81c0-.4-.1-.7-.29-.92s-.46-.33-.82-.33c-.33,0-.58.09-.76.27s-.27.44-.27.77c0,.27.1.5.29.68.19.18.49.34.9.49.63.21,1.08.46,1.35.77.27.3.41.7.41,1.2,0,.52-.17.93-.5,1.25-.34.31-.8.47-1.38.47-.37,0-.72-.08-1.03-.24-.32-.16-.56-.39-.74-.69-.18-.29-.27-.63-.27-1.01h.81c0,.4.11.7.33.92.22.22.52.33.9.33.35,0,.62-.09.8-.27.18-.18.27-.43.27-.74Z" />
        <ns0:path class="cls-6" d="M373.55,318.26c0-.14.04-.26.12-.35.08-.09.21-.14.38-.14s.29.05.38.14c.09.09.13.21.13.35s-.04.25-.13.34c-.09.09-.21.14-.38.14s-.29-.05-.38-.14c-.08-.09-.12-.2-.12-.34Z" />
        <ns0:path class="cls-6" d="M381.03,317.01h-2.16l-.5,1.67h-.83l2.06-6.4h.69l2.07,6.4h-.83l-.5-1.67ZM379.07,316.32h1.74l-.87-2.91-.87,2.91Z" />
        <ns0:path class="cls-6" d="M384.04,318h2.51v.69h-3.32v-6.4h.81v5.71Z" />
        <ns0:path class="cls-6" d="M390.03,312.98h-1.68v5.71h-.8v-5.71h-1.68v-.69h4.17v.69Z" />
        <ns0:path class="cls-6" d="M389.96,318.26c0-.14.04-.26.12-.35.08-.09.21-.14.38-.14s.29.05.38.14c.09.09.13.21.13.35s-.04.25-.13.34c-.09.09-.21.14-.38.14s-.29-.05-.38-.14c-.08-.09-.12-.2-.12-.34Z" />
        <ns0:path class="cls-6" d="M394.18,316.09c0-.69.17-1.24.5-1.64.33-.4.78-.6,1.33-.6s.99.2,1.33.59c.33.39.51.93.52,1.6v.5c0,.69-.17,1.23-.5,1.63s-.78.6-1.34.6-.99-.19-1.33-.58c-.33-.39-.5-.92-.52-1.58v-.52ZM394.96,316.54c0,.49.1.87.29,1.15.19.28.45.42.78.42.69,0,1.04-.49,1.06-1.48v-.54c0-.49-.1-.87-.29-1.15-.19-.28-.45-.42-.78-.42s-.58.14-.77.42c-.19.28-.29.67-.29,1.15v.45Z" />
        <ns0:path class="cls-6" d="M402.29,316.54c0,.75-.14,1.31-.41,1.68-.27.37-.65.55-1.15.55s-.85-.18-1.1-.54v2.28h-.77v-6.58h.7l.04.53c.26-.41.63-.62,1.12-.62.52,0,.91.18,1.17.54s.39.91.4,1.63v.52ZM401.52,316.09c0-.53-.08-.93-.25-1.18-.16-.25-.43-.38-.79-.38s-.66.19-.85.56v2.47c.19.36.48.54.86.54.35,0,.61-.13.78-.38.17-.25.25-.64.25-1.16v-.47Z" />
        <ns0:path class="cls-6" d="M406.73,316.54c0,.75-.14,1.31-.41,1.68-.27.37-.65.55-1.15.55s-.85-.18-1.1-.54v2.28h-.77v-6.58h.7l.04.53c.26-.41.63-.62,1.12-.62.52,0,.91.18,1.17.54s.39.91.4,1.63v.52ZM405.96,316.09c0-.53-.08-.93-.25-1.18-.16-.25-.43-.38-.79-.38s-.66.19-.85.56v2.47c.19.36.48.54.86.54.35,0,.61-.13.78-.38.17-.25.25-.64.25-1.16v-.47Z" />
        <ns0:path class="cls-6" d="M407.57,316.09c0-.69.17-1.24.5-1.64.33-.4.78-.6,1.33-.6s.99.2,1.33.59c.33.39.51.93.52,1.6v.5c0,.69-.17,1.23-.5,1.63s-.78.6-1.34.6-.99-.19-1.33-.58c-.33-.39-.5-.92-.52-1.58v-.52ZM408.35,316.54c0,.49.1.87.29,1.15.19.28.45.42.78.42.69,0,1.04-.49,1.06-1.48v-.54c0-.49-.1-.87-.29-1.15-.19-.28-.45-.42-.78-.42s-.58.14-.77.42c-.19.28-.29.67-.29,1.15v.45Z" />
        <ns0:path class="cls-6" d="M414.56,317.47c0-.17-.06-.31-.19-.43-.13-.12-.37-.26-.73-.42-.42-.17-.71-.32-.88-.44-.17-.12-.3-.26-.38-.42-.08-.16-.13-.34-.13-.56,0-.39.14-.71.42-.96.28-.26.64-.38,1.08-.38.46,0,.83.13,1.12.4s.42.62.42,1.04h-.77c0-.21-.07-.4-.22-.55-.14-.15-.33-.23-.55-.23s-.41.06-.54.18c-.13.12-.2.28-.2.47,0,.16.05.29.14.38.09.1.32.22.69.38.58.23.97.45,1.18.66.21.22.31.49.31.82,0,.41-.14.74-.43.99s-.67.37-1.14.37-.9-.14-1.2-.43-.46-.64-.46-1.08h.78c0,.26.09.47.24.62s.37.22.64.22c.26,0,.45-.06.59-.17.13-.12.2-.27.2-.47Z" />
        <ns0:path class="cls-6" d="M417.25,312.67c0,.13-.04.24-.11.33s-.18.13-.33.13-.26-.04-.33-.13-.11-.2-.11-.33.04-.24.11-.33.18-.14.33-.14.26.05.33.14c.07.09.11.2.11.33ZM417.19,318.68h-.78v-4.75h.78v4.75Z" />
        <ns0:path class="cls-6" d="M419.43,312.78v1.15h.72v.63h-.72v2.95c0,.19.03.33.09.43s.17.15.32.15c.1,0,.21-.02.31-.05v.66c-.18.06-.37.09-.55.09-.31,0-.54-.11-.7-.33-.16-.22-.24-.53-.24-.93v-2.95h-.73v-.63h.73v-1.15h.77Z" />
        <ns0:path class="cls-6" d="M422.77,318.77c-.59,0-1.05-.18-1.36-.53-.32-.35-.48-.87-.48-1.55v-.58c0-.71.15-1.27.46-1.67.31-.4.74-.6,1.29-.6s.97.18,1.25.53.42.91.42,1.66v.51h-2.65v.11c0,.51.1.88.29,1.11.19.23.47.35.83.35.23,0,.43-.04.6-.13.17-.09.34-.22.49-.41l.4.49c-.34.47-.85.71-1.54.71ZM422.69,314.51c-.32,0-.56.11-.72.33-.16.22-.24.56-.26,1.03h1.87v-.11c-.02-.45-.1-.77-.24-.97-.14-.19-.36-.29-.65-.29Z" />
        <ns0:path class="cls-6" d="M427.34,313.34c0-.3.11-.57.33-.8.22-.23.48-.34.79-.34s.56.11.78.34c.22.23.32.49.32.8s-.11.58-.32.79c-.21.22-.47.33-.78.33s-.57-.11-.79-.33c-.22-.22-.33-.48-.33-.79ZM428.46,313.9c.16,0,.29-.05.4-.16s.16-.24.16-.41-.05-.31-.16-.42-.24-.16-.4-.16-.3.06-.41.17c-.11.12-.16.25-.16.41s.05.29.16.4c.11.11.25.16.41.16Z" />
        <ns0:path class="cls-6" d="M434.83,316.65c-.04.69-.23,1.21-.58,1.58-.35.36-.84.55-1.48.55s-1.15-.24-1.53-.73c-.38-.49-.57-1.15-.57-1.98v-1.16c0-.83.19-1.49.58-1.97.39-.48.92-.72,1.59-.72.62,0,1.1.18,1.43.55.34.37.52.9.55,1.59h-.81c-.04-.52-.14-.89-.33-1.12-.18-.22-.47-.33-.84-.33-.44,0-.77.17-1.01.51-.23.34-.35.84-.35,1.5v1.17c0,.65.11,1.14.33,1.49.22.35.54.52.96.52s.72-.1.91-.31.3-.58.34-1.12h.81Z" />
        <ns0:path class="cls-6" d="M438.77,312.67c0,.13-.04.24-.11.33s-.18.13-.33.13-.26-.04-.33-.13-.11-.2-.11-.33.04-.24.11-.33.18-.14.33-.14.26.05.33.14c.07.09.11.2.11.33ZM438.71,318.68h-.78v-4.75h.78v4.75Z" />
        <ns0:path class="cls-6" d="M440.67,313.93l.02.51c.3-.4.69-.6,1.16-.6.84,0,1.27.56,1.28,1.68v3.16h-.77v-3.12c0-.37-.06-.64-.19-.79-.12-.16-.31-.23-.56-.23-.19,0-.37.06-.52.19-.15.13-.28.3-.37.5v3.45h-.78v-4.75h.73Z" />
        <ns0:path class="cls-6" d="M337.25,322.17c0,.13-.04.24-.11.33s-.18.13-.33.13-.26-.04-.33-.13-.11-.2-.11-.33.04-.24.11-.33.18-.14.33-.14.26.05.33.14c.07.09.11.2.11.33ZM337.19,328.18h-.78v-4.75h.78v4.75Z" />
        <ns0:path class="cls-6" d="M339.14,323.43l.02.51c.3-.4.69-.6,1.16-.6.84,0,1.27.56,1.28,1.68v3.16h-.77v-3.12c0-.37-.06-.64-.19-.79-.12-.16-.31-.23-.56-.23-.19,0-.37.06-.52.19-.15.13-.28.3-.37.5v3.45h-.78v-4.75h.73Z" />
        <ns0:path class="cls-6" d="M348.37,326.82l.72-3.39h.77l-1.17,4.75h-.62l-.93-3.4-.91,3.4h-.62l-1.16-4.75h.76l.74,3.3.88-3.3h.62l.91,3.39Z" />
        <ns0:path class="cls-6" d="M351.57,322.17c0,.13-.04.24-.11.33s-.18.13-.33.13-.26-.04-.33-.13-.11-.2-.11-.33.04-.24.11-.33.18-.14.33-.14.26.05.33.14c.07.09.11.2.11.33ZM351.51,328.18h-.78v-4.75h.78v4.75Z" />
        <ns0:path class="cls-6" d="M353.47,323.43l.02.51c.3-.4.69-.6,1.16-.6.84,0,1.27.56,1.28,1.68v3.16h-.77v-3.12c0-.37-.06-.64-.19-.79-.12-.16-.31-.23-.56-.23-.19,0-.37.06-.52.19-.15.13-.28.3-.37.5v3.45h-.78v-4.75h.73Z" />
        <ns0:path class="cls-6" d="M356.93,325.59c0-.73.14-1.29.41-1.67.27-.38.67-.58,1.18-.58.45,0,.81.18,1.06.55v-2.46h.78v6.75h-.71l-.04-.51c-.25.4-.62.6-1.09.6s-.88-.19-1.16-.57c-.28-.38-.42-.92-.43-1.62v-.49ZM357.7,326.03c0,.53.08.92.24,1.17s.42.38.77.38c.39,0,.68-.2.87-.58v-2.4c-.2-.38-.49-.57-.86-.57s-.62.12-.77.38-.24.63-.24,1.15v.47Z" />
        <ns0:path class="cls-6" d="M361.39,325.59c0-.69.17-1.24.5-1.64.33-.4.78-.6,1.33-.6s.99.2,1.33.59c.34.39.51.93.52,1.6v.5c0,.69-.17,1.23-.5,1.63s-.78.6-1.34.6-.99-.19-1.33-.58c-.33-.39-.5-.92-.52-1.58v-.52ZM362.17,326.04c0,.49.1.87.29,1.15.19.28.45.42.78.42.69,0,1.04-.49,1.06-1.48v-.54c0-.49-.1-.87-.29-1.15-.19-.28-.45-.42-.78-.42s-.58.14-.77.42c-.19.28-.29.67-.29,1.15v.45Z" />
        <ns0:path class="cls-6" d="M369.62,326.82l.72-3.39h.77l-1.16,4.75h-.62l-.93-3.4-.91,3.4h-.62l-1.16-4.75h.76l.74,3.3.88-3.3h.62l.91,3.39Z" />
        <ns0:path class="cls-6" d="M371.43,327.76c0-.14.04-.26.12-.35.08-.09.21-.14.38-.14s.29.05.38.14c.09.09.13.21.13.35s-.04.25-.13.34c-.09.09-.21.14-.38.14s-.29-.05-.38-.14c-.08-.09-.12-.2-.12-.34Z" />
        <ns0:path class="cls-6" d="M380.08,325.55c0,.87-.19,1.55-.56,2.02s-.9.71-1.59.71-1.18-.23-1.56-.69c-.38-.46-.58-1.11-.6-1.95v-1.2c0-.86.19-1.53.57-2.01.38-.49.91-.73,1.58-.73s1.2.23,1.58.7c.38.46.57,1.13.58,1.99v1.16ZM379.27,324.43c0-.68-.11-1.18-.33-1.51-.22-.33-.56-.5-1.02-.5s-.78.17-1,.5c-.23.33-.34.83-.35,1.48v1.15c0,.65.11,1.15.34,1.49.23.34.57.51,1.02.51s.79-.16,1-.47.33-.8.34-1.45v-1.2Z" />
        <ns0:path class="cls-6" d="M384.65,326.04c0,.75-.14,1.31-.41,1.68-.27.37-.65.55-1.15.55s-.85-.18-1.1-.54v2.28h-.77v-6.58h.7l.04.53c.26-.41.63-.62,1.12-.62.52,0,.91.18,1.17.54s.39.91.4,1.63v.52ZM383.87,325.59c0-.53-.08-.93-.25-1.18-.16-.25-.43-.38-.79-.38s-.66.19-.85.56v2.47c.19.36.48.54.86.54.35,0,.61-.13.78-.38.17-.25.25-.64.25-1.16v-.47Z" />
        <ns0:path class="cls-6" d="M389.08,326.04c0,.75-.14,1.31-.41,1.68-.27.37-.65.55-1.15.55s-.85-.18-1.1-.54v2.28h-.77v-6.58h.7l.04.53c.26-.41.63-.62,1.12-.62.52,0,.91.18,1.17.54s.39.91.4,1.63v.52ZM388.31,325.59c0-.53-.08-.93-.25-1.18-.16-.25-.43-.38-.79-.38s-.66.19-.85.56v2.47c.19.36.48.54.86.54.35,0,.61-.13.78-.38.17-.25.25-.64.25-1.16v-.47Z" />
        <ns0:path class="cls-6" d="M389.92,325.59c0-.69.17-1.24.5-1.64.33-.4.78-.6,1.33-.6s.99.2,1.33.59c.33.39.51.93.52,1.6v.5c0,.69-.17,1.23-.5,1.63s-.78.6-1.34.6-.99-.19-1.33-.58c-.33-.39-.5-.92-.52-1.58v-.52ZM390.7,326.04c0,.49.1.87.29,1.15.19.28.45.42.78.42.69,0,1.04-.49,1.06-1.48v-.54c0-.49-.1-.87-.29-1.15-.19-.28-.45-.42-.78-.42s-.58.14-.77.42c-.19.28-.29.67-.29,1.15v.45Z" />
        <ns0:path class="cls-6" d="M396.92,326.97c0-.17-.06-.31-.19-.43-.13-.12-.37-.26-.73-.42-.42-.17-.71-.32-.88-.44-.17-.12-.3-.26-.38-.42-.08-.16-.13-.34-.13-.56,0-.39.14-.71.42-.96.28-.26.64-.38,1.08-.38.46,0,.83.13,1.12.4s.42.62.42,1.04h-.77c0-.21-.07-.4-.22-.55-.14-.15-.33-.23-.55-.23s-.41.06-.54.18c-.13.12-.2.28-.2.47,0,.16.05.29.14.38.09.1.32.22.69.38.58.23.97.45,1.18.66.21.22.31.49.31.82,0,.41-.14.74-.43.99s-.67.37-1.14.37-.9-.14-1.2-.43-.46-.64-.46-1.08h.78c0,.26.09.47.24.62s.37.22.64.22c.26,0,.45-.06.59-.17.13-.12.2-.27.2-.47Z" />
        <ns0:path class="cls-6" d="M399.61,322.17c0,.13-.04.24-.11.33s-.18.13-.33.13-.26-.04-.33-.13-.11-.2-.11-.33.04-.24.11-.33.18-.14.33-.14.26.05.33.14c.07.09.11.2.11.33ZM399.54,328.18h-.78v-4.75h.78v4.75Z" />
        <ns0:path class="cls-6" d="M401.79,322.28v1.15h.72v.63h-.72v2.95c0,.19.03.33.09.43s.17.15.32.15c.1,0,.21-.02.31-.05v.66c-.18.06-.37.09-.55.09-.31,0-.54-.11-.7-.33-.16-.22-.24-.53-.24-.93v-2.95h-.73v-.63h.73v-1.15h.77Z" />
        <ns0:path class="cls-6" d="M405.12,328.27c-.59,0-1.05-.18-1.36-.53-.32-.35-.48-.87-.48-1.55v-.58c0-.71.15-1.27.46-1.67.31-.4.74-.6,1.29-.6s.97.18,1.25.53.42.91.42,1.66v.51h-2.65v.11c0,.51.1.88.29,1.11.19.23.47.35.83.35.23,0,.43-.04.6-.13.17-.09.34-.22.49-.41l.4.49c-.34.47-.85.71-1.54.71ZM405.04,324.01c-.32,0-.56.11-.72.33-.16.22-.24.56-.26,1.03h1.87v-.11c-.02-.45-.1-.77-.24-.97-.14-.19-.36-.29-.65-.29Z" />
        <ns0:path class="cls-6" d="M413.82,326.15c-.04.69-.23,1.21-.58,1.58-.35.36-.84.55-1.48.55s-1.15-.24-1.53-.73c-.38-.49-.57-1.15-.57-1.98v-1.16c0-.83.19-1.49.58-1.97.39-.48.92-.72,1.59-.72.62,0,1.1.18,1.43.55.34.37.52.9.55,1.59h-.81c-.04-.52-.15-.89-.33-1.12-.18-.22-.47-.33-.84-.33-.44,0-.77.17-1.01.51-.23.34-.35.84-.35,1.5v1.17c0,.65.11,1.14.33,1.49.22.35.54.52.96.52s.72-.1.91-.31.3-.58.34-1.12h.81Z" />
        <ns0:path class="cls-6" d="M417.9,326.51h-2.16l-.5,1.67h-.83l2.06-6.4h.69l2.07,6.4h-.83l-.5-1.67ZM415.94,325.82h1.74l-.87-2.91-.87,2.91Z" />
        <ns0:path class="cls-6" d="M422.89,326.57c0-.32-.09-.56-.26-.73-.17-.17-.49-.33-.94-.5s-.8-.33-1.03-.51c-.24-.18-.42-.38-.54-.61-.12-.23-.18-.49-.18-.78,0-.51.17-.92.51-1.25.34-.33.78-.49,1.33-.49.38,0,.71.08,1,.25.29.17.52.4.68.7.16.3.24.63.24.98h-.81c0-.4-.09-.7-.29-.92s-.46-.33-.82-.33c-.33,0-.58.09-.76.27s-.27.44-.27.77c0,.27.1.5.29.68.19.18.49.34.9.49.63.21,1.08.46,1.35.77.27.3.41.7.41,1.2,0,.52-.17.93-.51,1.25-.34.31-.79.47-1.38.47-.37,0-.72-.08-1.03-.24-.32-.16-.56-.39-.74-.69-.18-.29-.27-.63-.27-1.01h.81c0,.4.11.7.33.92.22.22.52.33.9.33.35,0,.62-.09.8-.27.18-.18.27-.43.27-.74Z" />
        <ns0:path class="cls-6" d="M426.55,325.59c0-.69.17-1.24.5-1.64.33-.4.78-.6,1.33-.6s.99.2,1.33.59c.33.39.51.93.52,1.6v.5c0,.69-.17,1.23-.5,1.63s-.78.6-1.34.6-.99-.19-1.33-.58c-.33-.39-.5-.92-.52-1.58v-.52ZM427.33,326.04c0,.49.1.87.29,1.15.19.28.45.42.78.42.69,0,1.04-.49,1.06-1.48v-.54c0-.49-.1-.87-.29-1.15-.19-.28-.45-.42-.78-.42s-.58.14-.77.42c-.19.28-.29.67-.29,1.15v.45Z" />
        <ns0:path class="cls-6" d="M431.96,323.43l.02.51c.3-.4.69-.6,1.16-.6.84,0,1.27.56,1.28,1.68v3.16h-.77v-3.12c0-.37-.06-.64-.19-.79-.12-.16-.31-.23-.56-.23-.19,0-.37.06-.52.19-.15.13-.28.3-.37.5v3.45h-.78v-4.75h.73Z" />
        <ns0:path class="cls-6" d="M438.54,322.17c0,.13-.04.24-.11.33s-.18.13-.33.13-.26-.04-.33-.13-.11-.2-.11-.33.04-.24.11-.33.18-.14.33-.14.26.05.33.14c.07.09.11.2.11.33ZM438.48,328.18h-.78v-4.75h.78v4.75Z" />
        <ns0:path class="cls-6" d="M440.44,323.43l.02.51c.3-.4.69-.6,1.16-.6.84,0,1.27.56,1.28,1.68v3.16h-.77v-3.12c0-.37-.06-.64-.19-.79-.12-.16-.31-.23-.56-.23-.19,0-.37.06-.52.19-.15.13-.28.3-.37.5v3.45h-.78v-4.75h.73Z" />
        <ns0:path class="cls-6" d="M444.79,323.43l.02.51c.3-.4.69-.6,1.16-.6.84,0,1.27.56,1.28,1.68v3.16h-.77v-3.12c0-.37-.06-.64-.19-.79-.12-.16-.31-.23-.56-.23-.19,0-.37.06-.52.19-.15.13-.28.3-.37.5v3.45h-.78v-4.75h.73Z" />
        <ns0:path class="cls-6" d="M450.12,328.27c-.59,0-1.05-.18-1.36-.53-.32-.35-.48-.87-.48-1.55v-.58c0-.71.15-1.27.46-1.67.31-.4.74-.6,1.29-.6s.97.18,1.25.53.42.91.42,1.66v.51h-2.65v.11c0,.51.1.88.29,1.11.19.23.47.35.83.35.23,0,.43-.04.6-.13.17-.09.34-.22.49-.41l.4.49c-.34.47-.85.71-1.54.71ZM450.03,324.01c-.32,0-.56.11-.72.33-.16.22-.24.56-.26,1.03h1.87v-.11c-.02-.45-.1-.77-.24-.97-.14-.19-.36-.29-.65-.29Z" />
        <ns0:path class="cls-6" d="M454.59,324.16c-.11-.02-.23-.03-.35-.03-.4,0-.68.22-.83.66v3.4h-.78v-4.75h.76v.48c.22-.38.52-.57.9-.57.12,0,.23.02.31.06v.76Z" />
        <ns0:path class="cls-6" d="M338.66,336.47c0-.17-.06-.31-.19-.43-.13-.12-.37-.26-.73-.42-.42-.17-.71-.32-.89-.44-.17-.12-.3-.26-.38-.42-.08-.16-.13-.34-.13-.56,0-.39.14-.71.42-.96.28-.26.64-.38,1.08-.38.46,0,.83.13,1.12.4s.42.62.42,1.04h-.77c0-.21-.07-.4-.21-.55-.14-.15-.33-.23-.55-.23s-.41.06-.54.18c-.13.12-.2.28-.2.47,0,.16.05.29.14.38.09.1.32.22.69.38.58.23.97.45,1.18.66.21.22.31.49.31.82,0,.41-.14.74-.43.99s-.67.37-1.14.37-.9-.14-1.2-.43-.46-.64-.46-1.08h.78c0,.26.09.47.24.62s.37.22.64.22c.26,0,.45-.06.59-.17.13-.12.2-.27.2-.47Z" />
        <ns0:path class="cls-6" d="M342.1,337.11c.26,0,.46-.08.62-.24.16-.16.24-.39.25-.68h.73c-.02.46-.18.83-.49,1.14-.31.3-.68.45-1.12.45-.59,0-1.04-.19-1.35-.56-.31-.37-.46-.92-.46-1.66v-.52c0-.72.15-1.26.46-1.64.31-.37.76-.56,1.34-.56.49,0,.87.15,1.16.46.29.31.44.73.46,1.26h-.73c-.02-.35-.1-.62-.25-.79-.15-.18-.36-.26-.63-.26-.35,0-.6.11-.77.34-.17.23-.25.6-.26,1.12v.61c0,.56.08.96.25,1.19.17.23.43.35.78.35Z" />
        <ns0:path class="cls-6" d="M347.05,337.68c-.05-.1-.08-.28-.1-.52-.28.4-.63.61-1.05.61s-.77-.12-1.01-.36c-.24-.24-.36-.58-.36-1.02,0-.48.16-.87.49-1.15s.78-.43,1.35-.44h.57v-.51c0-.28-.06-.49-.19-.61s-.32-.18-.58-.18c-.23,0-.42.07-.57.21-.15.14-.22.32-.22.53h-.78c0-.24.07-.48.21-.7.14-.22.34-.39.58-.52.24-.12.51-.19.81-.19.49,0,.86.12,1.11.36.25.24.38.59.39,1.06v2.4c0,.37.05.68.15.95v.07h-.81ZM346.01,337.07c.19,0,.37-.05.54-.16s.3-.24.38-.4v-1.13h-.44c-.37,0-.66.09-.87.25-.21.16-.32.38-.32.67,0,.27.05.46.16.59.11.12.29.18.55.18Z" />
        <ns0:path class="cls-6" d="M349.75,337.68h-.78v-6.75h.78v6.75Z" />
        <ns0:path class="cls-6" d="M352.68,337.77c-.59,0-1.05-.18-1.36-.53-.32-.35-.48-.87-.48-1.55v-.58c0-.71.15-1.27.46-1.67.31-.4.74-.6,1.29-.6s.97.18,1.25.53.42.91.42,1.66v.51h-2.65v.11c0,.51.1.88.29,1.11.19.23.47.35.83.35.23,0,.43-.04.6-.13.17-.09.34-.22.49-.41l.4.49c-.34.47-.85.71-1.54.71ZM352.59,333.51c-.32,0-.56.11-.72.33-.16.22-.24.56-.26,1.03h1.87v-.11c-.02-.45-.1-.77-.24-.97-.14-.19-.36-.29-.65-.29Z" />
        <ns0:path class="cls-6" d="M359.21,333.66c-.11-.02-.23-.03-.35-.03-.4,0-.68.22-.83.66v3.4h-.78v-4.75h.76v.48c.22-.38.52-.57.9-.57.12,0,.23.02.31.06v.76Z" />
        <ns0:path class="cls-6" d="M361.69,337.77c-.59,0-1.05-.18-1.36-.53-.32-.35-.48-.87-.48-1.55v-.58c0-.71.15-1.27.46-1.67.31-.4.74-.6,1.29-.6s.97.18,1.25.53.42.91.42,1.66v.51h-2.65v.11c0,.51.1.88.29,1.11.19.23.47.35.83.35.23,0,.43-.04.6-.13.17-.09.34-.22.49-.41l.4.49c-.34.47-.85.71-1.54.71ZM361.6,333.51c-.32,0-.56.11-.72.33-.16.22-.24.56-.26,1.03h1.87v-.11c-.02-.45-.1-.77-.24-.97-.14-.19-.36-.29-.65-.29Z" />
        <ns0:path class="cls-6" d="M366.65,337.68c-.05-.1-.08-.28-.1-.52-.28.4-.63.61-1.05.61s-.77-.12-1.01-.36c-.24-.24-.36-.58-.36-1.02,0-.48.16-.87.49-1.15s.78-.43,1.35-.44h.57v-.51c0-.28-.06-.49-.19-.61s-.32-.18-.58-.18c-.23,0-.42.07-.57.21-.15.14-.22.32-.22.53h-.78c0-.24.07-.48.21-.7.14-.22.34-.39.58-.52.24-.12.51-.19.81-.19.49,0,.86.12,1.11.36.25.24.38.59.39,1.06v2.4c0,.37.05.68.15.95v.07h-.81ZM365.61,337.07c.19,0,.37-.05.54-.16s.3-.24.38-.4v-1.13h-.44c-.37,0-.66.09-.87.25-.21.16-.32.38-.32.67,0,.27.05.46.16.59.11.12.29.18.55.18Z" />
        <ns0:path class="cls-6" d="M368.35,335.09c0-.73.14-1.29.41-1.67.27-.38.67-.58,1.18-.58.45,0,.81.18,1.06.55v-2.46h.78v6.75h-.71l-.04-.51c-.25.4-.62.6-1.09.6s-.88-.19-1.16-.57c-.28-.38-.42-.92-.43-1.62v-.49ZM369.13,335.53c0,.53.08.92.24,1.17s.42.38.77.38c.39,0,.68-.2.87-.58v-2.4c-.2-.38-.49-.57-.86-.57s-.62.12-.77.38-.24.63-.24,1.15v.47Z" />
        <ns0:path class="cls-6" d="M378.71,331.98h-1.68v5.71h-.8v-5.71h-1.68v-.69h4.17v.69Z" />
        <ns0:path class="cls-6" d="M382.29,336.01h-2.16l-.5,1.67h-.83l2.06-6.4h.69l2.07,6.4h-.83l-.51-1.67ZM380.34,335.32h1.75l-.88-2.91-.87,2.91Z" />
        <ns0:path class="cls-6" d="M387.29,336.07c0-.32-.09-.56-.26-.73-.17-.17-.48-.33-.94-.5s-.8-.33-1.04-.51c-.24-.18-.42-.38-.54-.61-.12-.23-.18-.49-.18-.78,0-.51.17-.92.51-1.25.34-.33.78-.49,1.33-.49.38,0,.71.08,1,.25.29.17.52.4.68.7.16.3.24.63.24.98h-.81c0-.4-.1-.7-.29-.92s-.46-.33-.82-.33c-.33,0-.58.09-.76.27s-.27.44-.27.77c0,.27.1.5.29.68.19.18.49.34.9.49.63.21,1.08.46,1.35.77.27.3.41.7.41,1.2,0,.52-.17.93-.5,1.25-.34.31-.8.47-1.38.47-.37,0-.72-.08-1.03-.24-.32-.16-.56-.39-.74-.69-.18-.29-.27-.63-.27-1.01h.81c0,.4.11.7.33.92.22.22.52.33.9.33.35,0,.62-.09.8-.27.18-.18.27-.43.27-.74Z" />
        <ns0:path class="cls-6" d="M390.95,335.09c0-.69.17-1.24.5-1.64.33-.4.78-.6,1.33-.6s.99.2,1.33.59c.34.39.51.93.52,1.6v.5c0,.69-.17,1.23-.5,1.63s-.78.6-1.34.6-.99-.19-1.33-.58c-.33-.39-.5-.92-.52-1.58v-.52ZM391.73,335.54c0,.49.1.87.29,1.15.19.28.45.42.78.42.69,0,1.04-.49,1.06-1.48v-.54c0-.49-.1-.87-.29-1.15-.19-.28-.45-.42-.78-.42s-.58.14-.77.42c-.19.28-.29.67-.29,1.15v.45Z" />
        <ns0:path class="cls-6" d="M396.36,332.93l.02.51c.3-.4.69-.6,1.16-.6.84,0,1.27.56,1.28,1.68v3.16h-.77v-3.12c0-.37-.06-.64-.19-.79-.12-.16-.31-.23-.56-.23-.19,0-.37.06-.52.19-.15.13-.28.3-.37.5v3.45h-.78v-4.75h.73Z" />
        <ns0:path class="cls-6" d="M401.88,335.09c0-.69.17-1.24.5-1.64.33-.4.78-.6,1.33-.6s.99.2,1.33.59c.34.39.51.93.52,1.6v.5c0,.69-.17,1.23-.5,1.63s-.78.6-1.34.6-.99-.19-1.33-.58c-.33-.39-.5-.92-.52-1.58v-.52ZM402.66,335.54c0,.49.1.87.29,1.15.19.28.45.42.78.42.69,0,1.04-.49,1.06-1.48v-.54c0-.49-.1-.87-.29-1.15-.19-.28-.45-.42-.78-.42s-.58.14-.77.42c-.19.28-.29.67-.29,1.15v.45Z" />
        <ns0:path class="cls-6" d="M408.99,337.27c-.26.34-.63.51-1.13.51-.43,0-.76-.15-.98-.45-.22-.3-.33-.73-.33-1.3v-3.1h.77v3.04c0,.74.22,1.11.67,1.11.47,0,.8-.21.98-.63v-3.52h.78v4.75h-.74l-.02-.42Z" />
        <ns0:path class="cls-6" d="M411.93,331.78v1.15h.72v.63h-.72v2.95c0,.19.03.33.09.43s.17.15.32.15c.1,0,.21-.02.31-.05v.66c-.18.06-.36.09-.55.09-.31,0-.54-.11-.7-.33-.16-.22-.24-.53-.24-.93v-2.95h-.72v-.63h.72v-1.15h.77Z" />
        <ns0:path class="cls-6" d="M415.27,337.77c-.59,0-1.05-.18-1.36-.53-.32-.35-.48-.87-.48-1.55v-.58c0-.71.15-1.27.46-1.67.31-.4.74-.6,1.29-.6s.97.18,1.25.53.42.91.42,1.66v.51h-2.65v.11c0,.51.1.88.29,1.11.19.23.47.35.83.35.23,0,.43-.04.6-.13.17-.09.34-.22.49-.41l.4.49c-.34.47-.85.71-1.54.71ZM415.18,333.51c-.32,0-.56.11-.72.33-.16.22-.24.56-.26,1.03h1.87v-.11c-.02-.45-.1-.77-.24-.97-.14-.19-.36-.29-.65-.29Z" />
        <ns0:path class="cls-6" d="M419.75,333.66c-.11-.02-.23-.03-.35-.03-.4,0-.68.22-.83.66v3.4h-.78v-4.75h.76v.48c.22-.38.52-.57.9-.57.12,0,.23.02.31.06v.76Z" />
        <ns0:path class="cls-6" d="M424.9,336.47c0-.17-.06-.31-.19-.43-.13-.12-.37-.26-.73-.42-.42-.17-.71-.32-.89-.44-.17-.12-.3-.26-.38-.42-.08-.16-.13-.34-.13-.56,0-.39.14-.71.42-.96.28-.26.64-.38,1.08-.38.46,0,.83.13,1.12.4s.42.62.42,1.04h-.77c0-.21-.07-.4-.21-.55-.14-.15-.33-.23-.55-.23s-.41.06-.54.18c-.13.12-.2.28-.2.47,0,.16.05.29.14.38.09.1.32.22.69.38.58.23.97.45,1.18.66.21.22.31.49.31.82,0,.41-.14.74-.43.99s-.67.37-1.14.37-.9-.14-1.2-.43-.46-.64-.46-1.08h.78c0,.26.09.47.24.62s.37.22.64.22c.26,0,.45-.06.59-.17.13-.12.2-.27.2-.47Z" />
        <ns0:path class="cls-6" d="M428.34,337.11c.26,0,.46-.08.62-.24.16-.16.24-.39.25-.68h.73c-.02.46-.18.83-.49,1.14-.31.3-.68.45-1.12.45-.59,0-1.04-.19-1.35-.56-.31-.37-.46-.92-.46-1.66v-.52c0-.72.15-1.26.46-1.64.31-.37.76-.56,1.34-.56.49,0,.87.15,1.16.46.29.31.44.73.46,1.26h-.73c-.02-.35-.1-.62-.25-.79-.15-.18-.36-.26-.63-.26-.35,0-.6.11-.77.34-.17.23-.25.6-.26,1.12v.61c0,.56.08.96.25,1.19.17.23.43.35.78.35Z" />
        <ns0:path class="cls-6" d="M433.29,337.68c-.05-.1-.08-.28-.1-.52-.28.4-.63.61-1.05.61s-.77-.12-1.01-.36c-.24-.24-.36-.58-.36-1.02,0-.48.16-.87.49-1.15s.78-.43,1.35-.44h.57v-.51c0-.28-.06-.49-.19-.61s-.32-.18-.58-.18c-.23,0-.42.07-.57.21-.15.14-.22.32-.22.53h-.78c0-.24.07-.48.21-.7.14-.22.34-.39.58-.52.24-.12.51-.19.81-.19.49,0,.86.12,1.11.36.25.24.38.59.39,1.06v2.4c0,.37.05.68.15.95v.07h-.81ZM432.25,337.07c.19,0,.37-.05.54-.16s.3-.24.38-.4v-1.13h-.44c-.37,0-.66.09-.87.25-.21.16-.32.38-.32.67,0,.27.05.46.16.59.11.12.29.18.55.18Z" />
        <ns0:path class="cls-6" d="M435.99,337.68h-.78v-6.75h.78v6.75Z" />
        <ns0:path class="cls-6" d="M438.91,337.77c-.59,0-1.05-.18-1.36-.53-.32-.35-.48-.87-.48-1.55v-.58c0-.71.15-1.27.46-1.67.31-.4.74-.6,1.29-.6s.97.18,1.25.53.42.91.42,1.66v.51h-2.65v.11c0,.51.1.88.29,1.11.19.23.47.35.83.35.23,0,.43-.04.6-.13.17-.09.34-.22.49-.41l.4.49c-.34.47-.85.71-1.54.71ZM438.83,333.51c-.32,0-.56.11-.72.33-.16.22-.24.56-.26,1.03h1.87v-.11c-.02-.45-.1-.77-.24-.97-.14-.19-.36-.29-.65-.29Z" />
        <ns0:path class="cls-6" d="M441.48,337.26c0-.14.04-.26.12-.35.08-.09.21-.14.38-.14s.29.05.38.14c.09.09.13.21.13.35s-.04.25-.13.34c-.09.09-.21.14-.38.14s-.29-.05-.38-.14c-.08-.09-.12-.2-.12-.34Z" />
        <ns0:path class="cls-6" d="M338.39,344.6h-1.12v2.59h-.81v-6.4h1.79c.63,0,1.1.16,1.42.49.32.33.48.8.48,1.43,0,.4-.09.74-.26,1.04-.17.29-.42.52-.74.67l1.24,2.72v.05h-.87l-1.14-2.59ZM337.26,343.91h.98c.34,0,.61-.11.81-.33.2-.22.3-.51.3-.87,0-.82-.37-1.23-1.12-1.23h-.97v2.43Z" />
        <ns0:path class="cls-6" d="M342.82,347.27c-.59,0-1.05-.18-1.36-.53-.32-.35-.48-.87-.48-1.55v-.58c0-.71.15-1.27.46-1.67.31-.4.74-.6,1.29-.6s.97.18,1.25.53.42.91.42,1.66v.51h-2.65v.11c0,.51.1.88.29,1.11.19.23.47.35.83.35.23,0,.43-.04.6-.13.17-.09.34-.22.49-.41l.4.49c-.34.47-.85.71-1.54.71ZM342.74,343.01c-.32,0-.56.11-.72.33-.16.22-.24.56-.26,1.03h1.87v-.11c-.02-.45-.1-.77-.24-.97-.14-.19-.36-.29-.65-.29Z" />
        <ns0:path class="cls-6" d="M347.79,347.18c-.05-.1-.08-.28-.1-.52-.28.4-.63.61-1.05.61s-.77-.12-1.01-.36c-.24-.24-.36-.58-.36-1.02,0-.48.16-.87.49-1.15s.78-.43,1.35-.44h.57v-.51c0-.28-.06-.49-.19-.61s-.32-.18-.58-.18c-.23,0-.42.07-.57.21-.15.14-.22.32-.22.53h-.78c0-.24.07-.48.22-.7.14-.22.34-.39.58-.52.24-.12.51-.19.81-.19.49,0,.86.12,1.11.36.25.24.38.59.39,1.06v2.4c0,.37.05.68.15.95v.07h-.81ZM346.75,346.57c.19,0,.37-.05.54-.16s.3-.24.38-.4v-1.13h-.44c-.37,0-.66.09-.88.25-.21.16-.32.38-.32.67,0,.27.05.46.16.59.11.12.29.18.55.18Z" />
        <ns0:path class="cls-6" d="M349.49,344.59c0-.73.14-1.29.41-1.67.27-.38.67-.58,1.18-.58.45,0,.81.18,1.06.55v-2.46h.78v6.75h-.71l-.04-.51c-.25.4-.62.6-1.09.6s-.88-.19-1.16-.57c-.28-.38-.42-.92-.43-1.62v-.49ZM350.26,345.03c0,.53.08.92.24,1.17s.42.38.77.38c.39,0,.67-.2.87-.58v-2.4c-.2-.38-.49-.57-.86-.57s-.62.12-.77.38-.24.63-.24,1.15v.47Z" />
        <ns0:path class="cls-6" d="M356.28,347.18v-6.4h1.52c.75,0,1.33.23,1.74.7.41.47.62,1.12.62,1.97v1.07c0,.85-.21,1.5-.63,1.96-.42.46-1.03.69-1.82.69h-1.43ZM357.09,341.48v5.02h.65c.57,0,.98-.16,1.24-.49s.39-.8.4-1.44v-1.13c0-.67-.13-1.17-.39-1.48-.26-.32-.65-.47-1.18-.47h-.72Z" />
        <ns0:path class="cls-6" d="M364.49,344.23h-2.26v2.27h2.64v.69h-3.44v-6.4h3.4v.69h-2.59v2.06h2.26v.69Z" />
        <ns0:path class="cls-6" d="M370.07,347.18h-.81l-2.56-4.93v4.93h-.81v-6.4h.81l2.57,4.95v-4.95h.8v6.4Z" />
        <ns0:path class="cls-6" d="M374.26,345.57c0-.32-.09-.56-.26-.73-.17-.17-.48-.33-.94-.5s-.8-.33-1.04-.51c-.24-.18-.42-.38-.54-.61-.12-.23-.18-.49-.18-.78,0-.51.17-.92.51-1.25.34-.33.78-.49,1.33-.49.38,0,.71.08,1,.25.29.17.52.4.68.7.16.3.24.63.24.98h-.81c0-.4-.1-.7-.29-.92s-.46-.33-.82-.33c-.33,0-.58.09-.76.27s-.27.44-.27.77c0,.27.1.5.29.68.19.18.49.34.9.49.63.21,1.08.46,1.35.77.27.3.41.7.41,1.2,0,.52-.17.93-.5,1.25-.34.31-.8.47-1.38.47-.37,0-.72-.08-1.03-.24-.32-.16-.56-.39-.74-.69-.18-.29-.27-.63-.27-1.01h.81c0,.4.11.7.33.92.22.22.52.33.9.33.35,0,.62-.09.8-.27.18-.18.27-.43.27-.74Z" />
        <ns0:path class="cls-6" d="M376.96,347.18h-.8v-6.4h.8v6.4Z" />
        <ns0:path class="cls-6" d="M382.12,341.48h-1.68v5.71h-.8v-5.71h-1.68v-.69h4.17v.69Z" />
        <ns0:path class="cls-6" d="M384.8,344l1.31-3.21h.91l-1.82,4.01v2.39h-.8v-2.39l-1.82-4.01h.91l1.31,3.21Z" />
        <ns0:path class="cls-6" d="M392.89,345.51h-2.16l-.5,1.67h-.83l2.06-6.4h.69l2.07,6.4h-.83l-.51-1.67ZM390.94,344.82h1.75l-.88-2.91-.87,2.91Z" />
        <ns0:path class="cls-6" d="M395.91,346.5h2.51v.69h-3.32v-6.4h.81v5.71Z" />
        <ns0:path class="cls-6" d="M401.9,341.48h-1.68v5.71h-.8v-5.71h-1.68v-.69h4.17v.69Z" />
        <ns0:path class="cls-6" d="M401.83,346.76c0-.14.04-.26.12-.35.08-.09.21-.14.38-.14s.29.05.38.14c.09.09.13.21.13.35s-.04.25-.13.34c-.09.09-.21.14-.38.14s-.29-.05-.38-.14c-.08-.09-.12-.2-.12-.34Z" />
        <ns0:path class="cls-6" d="M407.86,346.61c.26,0,.46-.08.62-.24.16-.16.24-.39.25-.68h.73c-.02.46-.18.83-.49,1.14-.31.3-.68.45-1.12.45-.59,0-1.04-.19-1.35-.56-.31-.37-.46-.92-.46-1.66v-.52c0-.72.15-1.26.46-1.64.31-.37.76-.56,1.34-.56.49,0,.87.15,1.16.46.29.31.44.73.46,1.26h-.73c-.02-.35-.1-.62-.25-.79-.15-.18-.36-.26-.63-.26-.35,0-.6.11-.77.34-.17.23-.25.6-.26,1.12v.61c0,.56.08.96.25,1.19.17.23.43.35.78.35Z" />
        <ns0:path class="cls-6" d="M412.07,347.27c-.59,0-1.05-.18-1.36-.53-.32-.35-.48-.87-.48-1.55v-.58c0-.71.15-1.27.46-1.67.31-.4.74-.6,1.29-.6s.97.18,1.25.53.42.91.42,1.66v.51h-2.65v.11c0,.51.1.88.29,1.11.19.23.47.35.83.35.23,0,.43-.04.6-.13.17-.09.34-.22.49-.41l.4.49c-.34.47-.85.71-1.54.71ZM411.98,343.01c-.32,0-.56.11-.72.33-.16.22-.24.56-.26,1.03h1.87v-.11c-.02-.45-.1-.77-.24-.97-.14-.19-.36-.29-.65-.29Z" />
        <ns0:path class="cls-6" d="M415.32,342.43l.02.51c.3-.4.69-.6,1.16-.6.84,0,1.27.56,1.28,1.68v3.16h-.77v-3.12c0-.37-.06-.64-.19-.79-.12-.16-.31-.23-.56-.23-.19,0-.37.06-.52.19-.15.13-.28.3-.37.5v3.45h-.78v-4.75h.73Z" />
        <ns0:path class="cls-6" d="M419.96,341.28v1.15h.72v.63h-.72v2.95c0,.19.03.33.09.43s.17.15.32.15c.1,0,.21-.02.31-.05v.66c-.18.06-.36.09-.55.09-.31,0-.54-.11-.7-.33-.16-.22-.24-.53-.24-.93v-2.95h-.72v-.63h.72v-1.15h.77Z" />
        <ns0:path class="cls-6" d="M423.3,347.27c-.59,0-1.05-.18-1.36-.53-.32-.35-.48-.87-.48-1.55v-.58c0-.71.15-1.27.46-1.67.31-.4.74-.6,1.29-.6s.97.18,1.25.53.42.91.42,1.66v.51h-2.65v.11c0,.51.1.88.29,1.11.19.23.47.35.83.35.23,0,.43-.04.6-.13.17-.09.34-.22.49-.41l.4.49c-.34.47-.85.71-1.54.71ZM423.21,343.01c-.32,0-.56.11-.72.33-.16.22-.24.56-.26,1.03h1.87v-.11c-.02-.45-.1-.77-.24-.97-.14-.19-.36-.29-.65-.29Z" />
        <ns0:path class="cls-6" d="M427.77,343.16c-.11-.02-.23-.03-.35-.03-.4,0-.68.22-.83.66v3.4h-.78v-4.75h.76v.48c.22-.38.52-.57.9-.57.12,0,.23.02.31.06v.76Z" />
        <ns0:path class="cls-6" d="M428.06,346.76c0-.14.04-.26.12-.35.08-.09.21-.14.38-.14s.29.05.38.14c.09.09.13.21.13.35s-.04.25-.13.34c-.09.09-.21.14-.38.14s-.29-.05-.38-.14c-.08-.09-.12-.2-.12-.34Z" />
      </ns0:g>
    </ns0:g>
  <text x="295.5" y="500" style="font-family: Arial; font-size: 30px; fill: #333; text-anchor: middle;">ARRIÈRE DU CRP5 - SIDE RULE</text></g></svg>