<svg xmlns="http://www.w3.org/2000/svg" viewBox="0 0 660 1000" preserveAspectRatio="xMidYMid meet">
<defs>
<style>
      .st0 {
        fill: #ec1e24;
      }

      .st1 {
        fill: #d1d3d4;
      }

      .st1, .st2, .st3, .st4, .st5 {
        stroke-miterlimit: 10;
      }

      .st1, .st2, .st5 {
        stroke: #221f1f;
      }

      .st6 {
        isolation: isolate;
        opacity: .2;
      }

      .st7 {
        fill: #231f20;
      }

      .st2 {
        fill: #f9f9f9;
      }

      .st3, .st4 {
        stroke-width: 1.5px;
      }

      .st3, .st4, .st8 {
        fill: none;
      }

      .st3, .st8 {
        stroke: #000;
      }

      .st4 {
        stroke: #333;
      }

      .st9 {
        fill: #3d3d3d;
      }

      .st10 {
        fill: #303030;
      }

      .st11 {
        fill: #fff;
      }

      .st12 {
        opacity: .08;
        fill:#ebebeb
      }

      .st8 {
        stroke-linejoin: round;
      }

      .st13 {
        fill: #fcf9f0;
      }

      .st14 {
        fill: #333;
      }

      .st5 {
        fill: #f6b51c;
      }

      .st15 {
        fill: #686868;
      }
    </style>
</defs>
<g id="compass">
<path class="st2" d="M330.07,263.28c-130.93,0-237.08,106.14-237.08,237.08s106.14,237.08,237.08,237.08,237.08-106.14,237.08-237.08-106.14-237.08-237.08-237.08h0ZM330.07,687.65c-103.44,0-187.29-83.85-187.29-187.29s83.85-187.29,187.29-187.29,187.29,83.85,187.29,187.29-83.85,187.29-187.29,187.29Z" id="compass-ring"/>
<g id="compass-radians">
<g id="compass-radians-numbers">
<g>
<path class="st14" d="M285.77,286.1c.68-.61.94-1.33.77-2.12-.15-.69-.55-1.21-1.2-1.55-.64-.34-1.39-.42-2.21-.24-.72.15-1.3.48-1.73.97-.43.49-.62,1.12-.55,1.86v.13l1.49-.31v-.08c.06-.4.18-.71.35-.93.17-.21.43-.35.79-.43.37-.08.72-.02,1.03.17s.5.46.58.81c.07.34,0,.64-.23.92s-.6.48-1.1.6l-.11.03.27,1.25.11-.02c.66-.13,1.17-.06,1.52.19.35.26.57.58.65.95.08.36,0,.69-.26,1.03-.25.34-.58.55-1,.64-.82.17-1.43-.11-1.87-.86l-.04-.07-1.52.32.06.13c.36.78.88,1.31,1.54,1.56.4.15.82.23,1.26.23.29,0,.6-.03.91-.1.79-.17,1.42-.58,1.89-1.23.46-.65.62-1.35.47-2.07-.18-.87-.8-1.46-1.84-1.78h-.03Z"/>
<path class="st14" d="M294.01,284.12c-.69-.51-1.44-.7-2.24-.58-.06.01-.25.06-.44.11l.18-1.41,3.05-.49-.22-1.36-4.15.66-.55,5.09.25-.28c.27-.3.52-.54.75-.69s.51-.26.84-.31c.56-.09,1.06,0,1.5.28s.69.65.77,1.15c.08.51-.03.95-.35,1.34-.31.39-.76.64-1.32.72-.68.11-1.33-.1-1.93-.62l-.08-.07-1.14.97.09.09c.75.74,1.63,1.11,2.59,1.11.21,0,.43-.02.65-.05.96-.15,1.74-.59,2.32-1.3.58-.71.8-1.51.66-2.39-.13-.81-.55-1.48-1.23-1.99v.02Z"/>
<path class="st14" d="M303.24,283.45c-.19-1.34-.66-2.4-1.39-3.15-.74-.77-1.63-1.08-2.63-.95h-.07c-.93.14-1.69.67-2.24,1.58-.55.9-.72,2.09-.52,3.54.18,1.3.66,2.35,1.42,3.1.65.65,1.39.98,2.2.98.14,0,.29-.01.44-.03.94-.13,1.7-.67,2.25-1.6.55-.92.73-2.09.53-3.48h0ZM301.52,286.03c-.28.62-.68.97-1.24,1.04-.08.01-.16.02-.24.02h0c-.49,0-.91-.21-1.3-.66-.46-.52-.75-1.26-.89-2.21-.13-.96-.06-1.76.24-2.4.29-.62.7-.96,1.28-1.04.07-.01.14-.02.21-.02.47,0,.89.22,1.28.68.46.53.76,1.27.88,2.19.13.95.06,1.75-.23,2.39h.01Z"/>
</g>
<g>
<path class="st14" d="M249.09,297.04c.57-.72.7-1.47.39-2.22-.26-.65-.75-1.1-1.45-1.32-.69-.22-1.44-.17-2.22.15-.68.28-1.2.7-1.54,1.25-.34.56-.42,1.21-.22,1.93l.04.13,1.4-.56v-.08c-.02-.41.04-.73.17-.97.13-.23.37-.42.7-.55.35-.14.7-.15,1.04-.01.34.13.57.36.71.7.13.32.11.63-.07.94-.18.32-.51.58-.98.78l-.11.05.48,1.19.11-.04c.63-.24,1.14-.26,1.53-.08.39.19.66.47.8.83.14.34.11.69-.07,1.06-.19.38-.48.64-.87.8-.78.31-1.43.14-2-.52l-.06-.07-1.44.58.08.12c.49.7,1.09,1.13,1.79,1.27.21.04.43.06.65.06.49,0,1-.1,1.51-.31.75-.3,1.3-.82,1.64-1.54.35-.72.38-1.43.1-2.12-.33-.82-1.05-1.3-2.12-1.43v-.02Z"/>
<path class="st14" d="M258.7,295.33l-.81.28-2.05-5.92-3.62,9.17,4.82-1.66.54,1.57,1.25-.43-.54-1.57.81-.28-.4-1.16ZM255.68,293.25l.97,2.8-2.33.81,1.36-3.6h0Z"/>
<path class="st14" d="M265.83,291.4c-.42-1.28-1.06-2.25-1.92-2.87-.86-.62-1.8-.79-2.75-.48l-.07.02c-.9.29-1.54.94-1.93,1.94-.38.99-.34,2.19.11,3.57.41,1.25,1.06,2.2,1.94,2.81.6.42,1.21.63,1.84.63.3,0,.61-.05.92-.15.9-.29,1.56-.95,1.94-1.96.38-1,.35-2.18-.08-3.52h0ZM264.59,294.24c-.17.66-.51,1.07-1.04,1.24-.55.18-1.1.06-1.62-.36-.54-.43-.96-1.11-1.26-2.02-.3-.92-.36-1.73-.18-2.4.17-.66.52-1.07,1.07-1.25.15-.05.3-.07.45-.07.38,0,.76.16,1.14.47.54.45.97,1.12,1.25,2,.3.91.36,1.71.19,2.39h0Z"/>
</g>
<g>
<path class="st14" d="M214.86,314.17c.43-.81.43-1.57,0-2.26-.37-.6-.93-.95-1.66-1.05-.72-.1-1.45.08-2.16.53-.62.39-1.06.9-1.3,1.5-.24.61-.2,1.26.12,1.94l.06.12,1.28-.8-.02-.08c-.09-.4-.09-.73,0-.99.09-.26.29-.48.59-.67.32-.2.66-.26,1.02-.19s.63.26.82.57c.18.3.22.6.1.94s-.4.66-.83.94l-.1.06.68,1.09.1-.06c.58-.35,1.08-.46,1.49-.34.42.12.73.34.94.67.19.31.23.66.11,1.06s-.36.72-.72.94c-.71.44-1.39.39-2.06-.17l-.07-.06-1.32.82.1.11c.6.61,1.27.93,1.98.94h.07c.68,0,1.36-.21,2.02-.62.68-.43,1.14-1.03,1.35-1.8s.12-1.48-.27-2.1c-.47-.75-1.24-1.1-2.34-1.04h.02Z"/>
<path class="st14" d="M221.8,310.11h0c.47-.79.51-1.54.12-2.25-.34-.62-.88-1-1.6-1.13-.71-.13-1.45,0-2.18.42-.64.36-1.11.84-1.37,1.43-.27.6-.26,1.25.02,1.94l.05.12,1.32-.73v-.08c-.08-.4-.07-.73.04-.99.1-.25.31-.46.63-.64.33-.18.68-.23,1.03-.14.36.09.61.29.79.61.17.31.19.61.05.95-.14.34-.44.64-.88.89l-.1.06.62,1.12.1-.06c.59-.31,1.1-.4,1.51-.26.41.14.71.38.9.72.18.32.2.67.06,1.06-.14.4-.39.7-.77.9-.73.41-1.41.31-2.04-.27l-.06-.06-1.36.75.1.11c.57.64,1.22.99,1.93,1.04h.24c.62,0,1.25-.18,1.88-.52.7-.39,1.19-.97,1.44-1.73s.2-1.47-.16-2.11c-.43-.77-1.2-1.16-2.27-1.16h-.03Z"/>
<path class="st14" d="M230.37,305.72c-.63-1.19-1.44-2.03-2.38-2.49-.96-.46-1.9-.46-2.79,0l-.06.03c-.83.44-1.36,1.19-1.56,2.24-.2,1.04.04,2.22.73,3.5.62,1.16,1.42,1.98,2.4,2.43.49.23.97.34,1.43.34s.93-.12,1.37-.35c.84-.45,1.37-1.21,1.57-2.27.2-1.05-.03-2.21-.69-3.45l-.02.02ZM229.64,308.73c-.05.68-.31,1.14-.81,1.41-.24.12-.48.19-.73.19-.3,0-.61-.09-.93-.27-.61-.33-1.14-.93-1.59-1.77-.45-.85-.66-1.64-.6-2.33.06-.68.33-1.15.84-1.42.21-.11.44-.17.67-.17.3,0,.63.1.96.29.61.35,1.15.94,1.58,1.75.45.84.65,1.63.61,2.32h0Z"/>
</g>
<g>
<path class="st14" d="M184.13,336.97c.29-.87.15-1.62-.39-2.22-.47-.52-1.09-.77-1.82-.75-.72.03-1.41.33-2.04.89-.55.49-.89,1.06-1.02,1.7s.03,1.28.46,1.89l.08.11,1.12-1.01-.03-.08c-.16-.37-.21-.7-.17-.97.04-.26.2-.52.47-.76.28-.25.58-.37.93-.37h.04c.37.01.66.15.91.41.23.26.32.56.26.91-.06.36-.28.72-.66,1.07l-.09.08.86.95.09-.08c.51-.44.98-.64,1.41-.59.43.05.78.22,1.04.5.25.27.34.61.29,1.02-.05.42-.23.77-.54,1.05-.62.56-1.3.62-2.05.19l-.07-.04-1.16,1.04.12.09c.57.41,1.16.61,1.73.61.13,0,.26-.01.38-.03.7-.11,1.35-.44,1.95-.97.6-.54.94-1.21,1.02-2,.08-.8-.14-1.48-.63-2.03-.59-.65-1.43-.87-2.49-.62h0Z"/>
<path class="st14" d="M190.85,335.45l.31-3.3c.05-.53.03-.99-.06-1.34-.09-.36-.27-.69-.52-1-.52-.64-1.21-1.01-2.05-1.1s-1.59.11-2.21.62c-.62.5-1.01,1.13-1.17,1.88s0,1.5.44,2.24l.07.12,1.09-.88-.04-.09c-.22-.43-.28-.84-.17-1.22s.31-.7.6-.93c.35-.28.76-.39,1.24-.34.48.06.86.26,1.16.63.25.3.35.69.32,1.14l-.64,6.67,5.01-4.06-.86-1.06-2.49,2.02h-.03Z"/>
<path class="st14" d="M197.93,325.96c-.83-1.06-1.77-1.75-2.78-2.04-1.03-.29-1.95-.13-2.75.49l-.05.04c-.74.58-1.13,1.41-1.15,2.48-.02,1.05.43,2.17,1.32,3.32.81,1.04,1.75,1.7,2.78,1.98.33.09.65.13.96.13.66,0,1.27-.21,1.8-.63.75-.58,1.14-1.43,1.15-2.51,0-1.07-.42-2.17-1.28-3.28v.02ZM197.19,330.58c-.46.36-1.01.43-1.65.21-.65-.22-1.28-.72-1.88-1.47-.6-.76-.93-1.5-1-2.19-.06-.68.13-1.19.58-1.54.26-.2.56-.31.9-.31.22,0,.47.05.73.14.66.24,1.29.72,1.86,1.45.59.76.93,1.49,1,2.18.07.68-.11,1.18-.55,1.53h.01Z"/>
</g>
<g>
<path class="st14" d="M160.4,364.93c-.7-.54-1.56-.61-2.56-.18.13-.91-.13-1.62-.77-2.12-.55-.43-1.2-.57-1.92-.42-.71.15-1.33.57-1.85,1.23-.45.58-.69,1.2-.71,1.85-.02.66.25,1.26.78,1.78l.09.09.93-1.19-.05-.07c-.22-.34-.33-.65-.34-.93,0-.27.11-.55.33-.83.24-.3.53-.48.89-.53s.68.03.96.25c.28.22.41.49.41.85s-.15.75-.46,1.16l-.07.09,1.01.79.07-.09c.42-.52.86-.8,1.28-.83.43-.03.81.08,1.11.31.29.22.44.54.47.96.03.42-.09.79-.35,1.13-.52.66-1.17.84-1.99.54l-.08-.03-.96,1.22.13.06c.48.23.94.34,1.38.34.28,0,.55-.04.8-.13.67-.23,1.26-.66,1.75-1.29.5-.63.72-1.36.65-2.15-.06-.79-.39-1.43-.97-1.88l.04.02Z"/>
<polygon class="st14" points="157.66 358.48 158.36 359.74 159.38 358.56 164.82 363.27 164.91 363.35 165.85 362.27 159.29 356.6 157.66 358.48"/>
<path class="st14" d="M171.35,354.52c-.17-1.06-.79-2.07-1.83-3.01-1-.9-2.04-1.42-3.1-1.53-1.06-.11-1.94.21-2.62.96l-.05.05c-.63.7-.87,1.59-.7,2.64.17,1.04.8,2.07,1.88,3.04.98.88,2.02,1.38,3.08,1.47.13.01.25.02.37.02.92,0,1.68-.33,2.26-.98.64-.7.87-1.6.7-2.67h.01ZM169.59,356.2c-.39.44-.91.6-1.59.49-.68-.1-1.39-.48-2.1-1.12-.72-.65-1.18-1.32-1.36-1.99-.18-.66-.08-1.19.31-1.62.29-.33.67-.48,1.16-.48.13,0,.27.01.42.04.69.11,1.4.49,2.09,1.11.71.64,1.17,1.31,1.36,1.98.19.66.1,1.18-.28,1.6h0Z"/>
</g>
<g>
<path class="st14" d="M139.34,396.4c-.78-.41-1.64-.33-2.55.26-.03-.92-.41-1.57-1.13-1.96-.62-.33-1.28-.36-1.96-.08-.67.28-1.21.79-1.61,1.54-.35.65-.47,1.3-.37,1.94.1.65.46,1.19,1.08,1.62l.11.08.71-1.33-.06-.06c-.28-.3-.44-.59-.49-.86-.05-.26,0-.56.18-.87.18-.34.44-.56.79-.68.34-.12.67-.09.99.08.31.16.49.42.56.77.07.36-.02.77-.25,1.23l-.05.1,1.13.6.06-.1c.33-.59.7-.94,1.12-1.04.42-.11.81-.07,1.15.11.32.17.53.45.63.86.1.41.05.8-.15,1.17-.39.74-1.01,1.03-1.86.88l-.08-.02-.73,1.37.14.04c.33.09.65.14.95.14.45,0,.87-.1,1.24-.31.62-.34,1.12-.87,1.5-1.58s.47-1.46.27-2.23c-.2-.77-.64-1.34-1.29-1.69l-.03.02Z"/>
<path class="st14" d="M141.88,388.28c-1.16-.69-2.28-1-3.33-.9-1.06.1-1.87.58-2.39,1.45l-.04.06c-.48.81-.54,1.72-.18,2.72.36.99,1.18,1.87,2.43,2.62.97.58,1.93.87,2.85.87.15,0,.31,0,.46-.02,1.08-.11,1.88-.6,2.39-1.45.49-.81.55-1.74.17-2.75-.37-1.01-1.17-1.88-2.38-2.6h.02ZM138.93,388.87c.68,0,1.41.23,2.17.69.82.49,1.4,1.06,1.72,1.68.31.61.32,1.14.03,1.62-.3.5-.78.76-1.46.79-.69.02-1.46-.21-2.28-.7-.83-.5-1.41-1.07-1.72-1.69-.31-.61-.31-1.15,0-1.65.29-.48.77-.72,1.46-.74h.09Z"/>
<path class="st14" d="M148.31,384.25c-.36-1.01-1.14-1.9-2.33-2.64-1.15-.72-2.26-1.04-3.31-.97-1.07.08-1.88.55-2.41,1.4l-.04.06c-.5.8-.58,1.71-.23,2.72.34,1,1.15,1.9,2.38,2.67.99.62,1.97.93,2.92.93.13,0,.25,0,.38-.02,1.08-.09,1.9-.57,2.42-1.4.5-.81.58-1.73.22-2.75h0ZM145.33,386.97c-.67,0-1.42-.25-2.21-.74-.82-.51-1.39-1.09-1.69-1.72-.29-.62-.29-1.16.02-1.65.3-.47.78-.71,1.47-.71h.03c.7,0,1.44.25,2.22.73.81.51,1.38,1.08,1.69,1.71.3.62.3,1.15,0,1.62-.31.5-.8.75-1.48.76h-.06,0Z"/>
</g>
<g>
<path class="st14" d="M124.1,434.51l-1.54-2.93c-.25-.48-.51-.84-.78-1.09s-.6-.44-.98-.56c-.78-.25-1.57-.19-2.33.19s-1.27.96-1.52,1.72-.23,1.5.04,2.21c.27.71.81,1.26,1.59,1.64l.12.06.43-1.33-.08-.05c-.42-.24-.7-.55-.81-.93-.12-.38-.12-.75,0-1.11.14-.43.42-.74.85-.95.43-.21.87-.25,1.32-.1.37.12.67.39.89.78l3.1,5.95,1.95-6.01.04-.11-1.3-.42-.99,3.05h0Z"/>
<path class="st14" d="M123.73,422.17c-.78-.3-1.6-.25-2.42.14s-1.4,1.01-1.71,1.83c-.32.83-.31,1.68.03,2.52s.91,1.42,1.68,1.72c.8.31,1.6.28,2.36-.09.76-.36,1.32-.97,1.64-1.82.03-.09.07-.21.11-.36l1.75,2.66,1.12-.79-2.97-4.49c-.42-.64-.96-1.09-1.59-1.33h0ZM123.27,423.59c.45.17.78.48.98.92.2.44.2.88.03,1.34-.19.5-.52.87-.97,1.1-.26.13-.52.2-.78.2-.18,0-.37-.04-.56-.11-.48-.18-.82-.51-1.02-.96-.2-.46-.2-.94,0-1.43.18-.47.49-.8.96-1.02.25-.12.5-.17.75-.17.21,0,.41.04.62.12h-.01Z"/>
<path class="st14" d="M130.79,417.52c-.52-.93-1.45-1.67-2.75-2.2-1.25-.51-2.41-.63-3.43-.38-1.04.26-1.75.86-2.13,1.8l-.03.07c-.35.87-.27,1.78.25,2.72.51.92,1.46,1.67,2.81,2.22.78.32,1.54.48,2.25.48.4,0,.78-.05,1.16-.15,1.05-.28,1.77-.89,2.14-1.8.36-.88.27-1.8-.26-2.75h-.01ZM129.71,419.7c-.22.54-.65.87-1.32,1.01-.18.04-.38.06-.58.06-.54,0-1.14-.13-1.78-.39-.9-.36-1.56-.83-1.96-1.4-.4-.56-.48-1.09-.27-1.63.21-.52.64-.83,1.33-.96.19-.04.38-.05.58-.05.54,0,1.13.13,1.76.38.89.36,1.55.83,1.96,1.39.4.55.5,1.08.28,1.6h0Z"/>
</g>
<g>
<path class="st14" d="M115.7,471.21l-2.02-2.62c-.33-.43-.65-.74-.96-.94s-.67-.32-1.07-.38c-.82-.11-1.58.08-2.26.59-.68.5-1.08,1.16-1.19,1.96-.11.79.03,1.52.42,2.17.39.65,1.01,1.11,1.85,1.34l.13.04.2-1.38-.09-.03c-.46-.16-.78-.42-.96-.77-.18-.36-.25-.72-.2-1.09.06-.45.28-.8.67-1.09.39-.28.82-.39,1.28-.33.39.05.73.26,1.01.62l4.09,5.32.88-6.26.02-.12-1.35-.19-.44,3.17h0Z"/>
<path class="st14" d="M116.54,459.95c-.41-.08-.84-.04-1.27.11-.39.14-.74.38-1.06.73-.43-.75-1.01-1.19-1.73-1.33-.66-.13-1.3.05-1.9.52-.59.47-.97,1.1-1.12,1.86-.15.76-.03,1.48.35,2.14s.92,1.06,1.59,1.19c.41.08.79.06,1.13-.05.3-.1.62-.28.95-.54.39.9,1.02,1.43,1.85,1.59.16.03.31.05.47.05.55,0,1.08-.2,1.57-.6.62-.5,1.01-1.19,1.18-2.06.17-.86.05-1.64-.34-2.34-.39-.71-.96-1.13-1.68-1.27h.01ZM116.23,461.42c.4.08.7.29.91.65.22.36.28.76.2,1.21-.09.48-.31.86-.64,1.13-.33.27-.68.36-1.08.28-.41-.08-.71-.29-.93-.65s-.28-.77-.2-1.21c.09-.46.31-.84.65-1.11.27-.21.55-.32.84-.32.08,0,.16,0,.24.02h.01ZM113.28,462.57c-.07.38-.26.68-.57.9-.3.22-.63.29-.99.23-.36-.07-.63-.26-.83-.58-.2-.32-.27-.67-.19-1.05.08-.39.26-.68.57-.9.23-.17.47-.25.73-.25.08,0,.17,0,.25.02.36.07.63.26.84.58.2.32.27.66.19,1.05Z"/>
<path class="st14" d="M119.32,453.33c-.68-.83-1.72-1.4-3.09-1.69-1.32-.28-2.48-.21-3.45.22-.98.44-1.58,1.16-1.79,2.14v.07c-.21.92.03,1.81.7,2.63.66.82,1.72,1.39,3.15,1.7.49.1.96.16,1.4.16.73,0,1.4-.14,2.01-.42.98-.46,1.59-1.18,1.79-2.15.2-.93-.05-1.82-.73-2.66h0ZM118.64,455.65c-.12.57-.49.97-1.13,1.22-.36.14-.77.21-1.21.21-.36,0-.75-.04-1.17-.13-.95-.2-1.68-.55-2.17-1.04-.49-.48-.67-.99-.55-1.55.12-.55.49-.93,1.14-1.17.37-.14.79-.21,1.23-.21.35,0,.73.04,1.13.13.94.2,1.67.55,2.17,1.03.49.47.68.97.56,1.52h0Z"/>
</g>
<g>
<path class="st14" d="M113.67,545.22c.38-.08.77,0,1.16.24l5.66,3.6-1.34-6.3-1.34.28.67,3.13-2.8-1.77c-.45-.29-.87-.47-1.22-.55-.36-.08-.74-.07-1.13,0-.81.17-1.45.62-1.92,1.32-.47.71-.62,1.46-.45,2.25.17.78.55,1.42,1.14,1.89.52.42,1.17.64,1.91.64.1,0,.19,0,.29-.01h.14l-.27-1.28-.04-.09h-.1c-.48,0-.87-.13-1.15-.4-.3-.28-.48-.59-.56-.96-.09-.44,0-.85.26-1.25.27-.4.62-.64,1.09-.74h0Z"/>
<path class="st14" d="M115.47,541.86c.16,0,.33-.01.49-.04.86-.14,1.55-.58,2.06-1.33.5-.74.69-1.58.54-2.49s-.58-1.64-1.3-2.17c-.72-.53-1.54-.73-2.43-.59-.76.12-1.38.55-1.85,1.28-.47.73-.64,1.52-.51,2.37l.05.24s.01.05.02.09l-2.87-1.43-.55,1.22,4.91,2.48c.47.24.95.36,1.44.36h0ZM115.4,536.69c.36,0,.71.12,1.02.36.39.3.63.7.71,1.2.08.52-.01.97-.29,1.38-.28.4-.66.65-1.14.72-.46.07-.9-.04-1.31-.35-.41-.31-.66-.71-.73-1.2-.08-.49.02-.94.32-1.36.29-.42.67-.65,1.15-.73.1-.02.2-.02.29-.02h-.02Z"/>
<path class="st14" d="M109.75,533.9c.66.4,1.48.6,2.43.6.35,0,.73-.03,1.12-.08,1.31-.18,2.35-.66,3.11-1.41.77-.77,1.09-1.65.95-2.63-.13-.94-.67-1.7-1.6-2.25-.92-.55-2.09-.73-3.48-.53-1.34.19-2.4.65-3.16,1.38-.77.74-1.09,1.62-.95,2.62v.07c.14.93.67,1.68,1.59,2.23h0ZM110.27,529.97c.53-.46,1.27-.75,2.19-.88.31-.04.6-.06.87-.06.58,0,1.09.1,1.52.29.63.28.97.68,1.05,1.24.08.58-.13,1.08-.64,1.53-.52.45-1.27.75-2.22.88-.96.14-1.77.05-2.4-.23-.62-.29-.97-.7-1.05-1.28-.08-.55.14-1.04.67-1.49h.01Z"/>
</g>
<g>
<path class="st14" d="M125.63,585.29c-.48.09-.89.02-1.22-.19-.33-.22-.57-.5-.71-.85-.17-.42-.16-.84.04-1.28.2-.44.5-.74.94-.92.37-.15.76-.13,1.18.03l6.2,2.57-2.42-5.97-1.27.51,1.2,2.97-3.06-1.26c-.5-.21-.94-.32-1.3-.33-.37-.02-.74.05-1.11.2-.77.31-1.32.86-1.66,1.64-.34.78-.35,1.55-.05,2.29.3.74.79,1.3,1.45,1.67.42.24.89.35,1.39.35.28,0,.58-.04.89-.11l.13-.03-.53-1.3-.1.02h.01Z"/>
<path class="st14" d="M124.94,577.63c-.35-.21-.62-.42-.81-.62-.19-.19-.34-.46-.45-.77-.18-.53-.18-1.05.02-1.52.2-.48.53-.79,1-.95.48-.17.95-.13,1.39.11.45.24.76.63.95,1.17.23.66.14,1.32-.27,2l-.05.09,1.16.96.07-.11c.73-1.06.89-2.19.48-3.37-.32-.92-.89-1.61-1.68-2.05-.8-.44-1.64-.52-2.47-.24-.78.27-1.37.79-1.75,1.56s-.44,1.54-.18,2.3c.01.03.04.11.18.41l-1.42.07-1.01-2.91-1.3.45,1.37,3.96,5.12-.35-.32-.2h-.03Z"/>
<path class="st14" d="M120.34,571.84c.63,0,1.34-.12,2.09-.37,1.25-.41,2.2-1.06,2.82-1.93.62-.89.78-1.81.48-2.75-.29-.9-.95-1.55-1.97-1.94-1-.38-2.19-.35-3.52.08-1.28.42-2.25,1.06-2.87,1.91-.63.86-.79,1.79-.48,2.75l.02.07c.29.9.94,1.54,1.94,1.92.45.17.95.26,1.49.26ZM118.68,567.61c.45-.54,1.12-.96,2.01-1.25.58-.19,1.12-.28,1.61-.28.28,0,.54.03.79.09.66.17,1.07.51,1.25,1.04.18.56.06,1.09-.36,1.62-.43.54-1.11.96-2.03,1.25-.92.3-1.73.36-2.41.18-.66-.17-1.07-.52-1.25-1.07-.17-.53-.04-1.05.4-1.58h-.01Z"/>
</g>
<g>
<path class="st14" d="M143.43,619.43c-.46.17-.87.18-1.23.02-.37-.16-.65-.4-.85-.71-.24-.38-.3-.8-.18-1.27.11-.46.37-.82.77-1.07.33-.21.73-.27,1.17-.18l6.56,1.45-3.42-5.46-1.16.72,1.7,2.71-3.24-.71c-.53-.12-.98-.15-1.34-.1-.37.05-.72.18-1.06.39-.7.44-1.15,1.08-1.35,1.9-.2.82-.08,1.59.35,2.27.42.68,1,1.14,1.72,1.39.3.1.61.15.92.15.44,0,.9-.11,1.37-.31l.12-.06-.74-1.19-.09.03-.02.03Z"/>
<path class="st14" d="M144.31,612.4l-2.48-4.45,1.45-.81-.64-1.15-1.45.81-.42-.74-1.07.59.42.75-5.49,3.04,9.43,1.92.25.05h0ZM138.16,609.98l2.59-1.44,1.2,2.15-3.79-.72h0Z"/>
<path class="st14" d="M137.88,606.39c1.16-.62,1.98-1.42,2.44-2.39.46-.98.46-1.92,0-2.79-.44-.84-1.21-1.36-2.27-1.57-1.05-.2-2.22.03-3.46.69-1.19.63-2.04,1.43-2.5,2.38-.47.96-.46,1.9,0,2.79l.03.06c.44.83,1.2,1.36,2.24,1.56.24.05.49.07.74.07.84,0,1.78-.27,2.77-.8h0ZM134.82,605.71c-.68-.06-1.15-.33-1.42-.84-.26-.49-.22-1.03.12-1.63.35-.61.94-1.14,1.76-1.58.77-.4,1.48-.61,2.12-.61h.21c.68.05,1.14.31,1.41.81.28.52.25,1.06-.08,1.66-.33.61-.93,1.14-1.78,1.59-.76.4-1.47.61-2.11.61h-.23Z"/>
</g>
<g>
<path class="st14" d="M166.91,649.98c-.42.24-.83.32-1.21.23-.39-.09-.71-.28-.96-.55-.3-.34-.43-.73-.4-1.21.03-.48.22-.87.57-1.19.28-.25.64-.38,1.07-.38l6.77.3-4.32-4.78-1.02.91,2.15,2.38-3.31-.14c-.54-.02-.99.02-1.34.13-.35.11-.68.3-.98.57-.61.55-.95,1.26-1,2.11-.05.84.2,1.58.74,2.17.53.59,1.19.95,1.94,1.07.15.02.3.04.45.04.6,0,1.2-.2,1.77-.59l.11-.08-.94-1.04-.08.05h-.01Z"/>
<path class="st14" d="M160.39,641.55c.36.08.7.32,1.03.71l.07.09,1-.81-.07-.09c-.41-.53-.59-1.01-.52-1.43.07-.43.25-.76.55-1.01.28-.23.63-.31,1.04-.24.41.07.76.27,1.03.6.53.65.56,1.32.08,2.06l-.05.07.98,1.2.09-.11c.53-.67.77-1.37.69-2.08-.07-.7-.37-1.37-.87-1.99-.51-.62-1.17-1-1.95-1.12-.79-.12-1.49.06-2.06.53-.69.56-.94,1.38-.75,2.44-.86-.33-1.61-.23-2.24.28-.55.44-.83,1.04-.84,1.77,0,.72.26,1.42.79,2.08.46.57,1.02.94,1.65,1.1.18.05.37.07.55.07.45,0,.91-.14,1.36-.43l.11-.07-.95-1.17-.08.03c-.38.14-.71.18-.98.12-.26-.06-.51-.23-.74-.5-.24-.3-.35-.62-.32-.99s.18-.65.46-.88c.27-.22.57-.29.92-.21l.02-.02Z"/>
<path class="st14" d="M161.15,635.31c.28-1.05.12-1.97-.49-2.75-.59-.75-1.43-1.13-2.51-1.15h-.05c-1.06,0-2.15.43-3.24,1.28-1.07.83-1.75,1.76-2.04,2.78-.29,1.03-.13,1.95.49,2.74l.04.05c.58.74,1.41,1.13,2.48,1.15h.07c1.04,0,2.14-.44,3.26-1.32,1.04-.81,1.71-1.74,1.99-2.78ZM159.71,635.08c-.22.65-.72,1.28-1.48,1.87-.76.59-1.5.93-2.2.99-.68.06-1.19-.13-1.54-.58-.34-.44-.4-.97-.17-1.62.24-.66.72-1.29,1.46-1.86.76-.59,1.49-.92,2.19-1,.09,0,.18-.02.27-.02.55,0,.96.19,1.26.57.36.46.43,1,.21,1.64h0Z"/>
</g>
<g>
<path class="st14" d="M195.34,675.99c-.37.31-.76.47-1.15.44-.4-.02-.75-.15-1.04-.38-.36-.28-.56-.65-.61-1.13s.06-.89.35-1.27c.24-.31.59-.5,1.04-.56l6.66-.87-4.99-3.89-.09-.07-.84,1.08,2.53,1.97-3.29.44c-.53.07-.97.19-1.29.36-.33.17-.62.42-.86.73-.51.65-.72,1.41-.62,2.25s.47,1.52,1.1,2.01c.61.48,1.3.72,2.03.72h.06c.76-.01,1.47-.33,2.09-.93l.1-.09-1.1-.86-.08.06h0Z"/>
<path class="st14" d="M188.98,670.95c-.39.29-.78.42-1.17.38-.4-.04-.74-.19-1.02-.43-.34-.3-.52-.67-.55-1.16-.03-.48.11-.9.42-1.25.26-.3.61-.47,1.07-.51l6.41-.51.28-.02-4.78-4.14-.09-.08-.9,1.03,2.42,2.1-3.31.27c-.54.04-.98.14-1.31.3-.33.15-.64.38-.9.69-.54.62-.79,1.37-.73,2.21.05.84.39,1.54,1,2.07.6.52,1.29.8,2.05.83h.1c.73,0,1.41-.28,2.04-.82l.1-.09-1.06-.92-.08.06h0Z"/>
<path class="st14" d="M187.12,662.55c.09-1.08-.23-1.96-.97-2.62-.7-.63-1.6-.87-2.67-.7-1.06.17-2.07.79-3.01,1.83-.91,1-1.42,2.04-1.53,3.09-.11,1.06.22,1.94.96,2.62l.05.05c.55.5,1.23.75,2.01.75.2,0,.42-.02.64-.05,1.05-.17,2.07-.8,3.05-1.88.88-.98,1.38-2.01,1.47-3.08h0ZM185.66,662.57c-.11.68-.48,1.39-1.13,2.1-.65.72-1.32,1.18-1.99,1.36-.66.18-1.19.08-1.62-.3-.42-.38-.56-.89-.45-1.57.11-.69.49-1.39,1.11-2.08.64-.71,1.31-1.17,1.98-1.36.22-.06.43-.09.62-.09.38,0,.71.12.98.37.44.39.6.91.5,1.58h0Z"/>
</g>
<g>
<path class="st14" d="M227.86,696.68c-.32.38-.66.59-1.06.63-.39.05-.76-.02-1.09-.19-.4-.21-.66-.54-.79-1-.14-.46-.09-.89.13-1.31.18-.35.5-.59.93-.74l6.41-2.01-5.7-3.02-.64,1.21,2.83,1.5-3.16,1c-.51.16-.92.36-1.21.58-.29.23-.53.52-.72.87-.39.73-.46,1.51-.22,2.32s.72,1.41,1.43,1.79c.51.27,1.03.41,1.57.41.2,0,.41-.02.62-.06.75-.15,1.39-.57,1.9-1.28l.08-.11-1.24-.66-.06.07h0Z"/>
<polygon class="st14" points="217.47 693.61 217.41 693.71 219.56 695 220.67 694.09 219.33 693.29 223.04 687.12 223.1 687.02 221.87 686.29 217.47 693.61"/>
<path class="st14" d="M216.03,682.44c-.81-.5-1.73-.58-2.75-.22-1.01.35-1.9,1.14-2.65,2.32-.72,1.14-1.04,2.26-.97,3.31.08,1.06.55,1.87,1.4,2.41l.06.04c.47.29.99.44,1.53.44.38,0,.78-.07,1.19-.21,1-.34,1.9-1.14,2.68-2.38.7-1.11,1.01-2.22.91-3.29-.09-1.08-.57-1.89-1.41-2.42h.01ZM214.47,683.44c.27,0,.52.07.76.22.5.31.75.79.76,1.47.02.69-.24,1.45-.74,2.26-.51.82-1.09,1.39-1.72,1.68-.3.14-.59.21-.85.21h0c-.28,0-.55-.08-.79-.23-.47-.3-.71-.78-.72-1.47,0-.7.24-1.46.73-2.24.51-.81,1.09-1.38,1.71-1.68.3-.15.6-.23.87-.23h0Z"/>
</g>
<g>
<path class="st14" d="M263.49,711.41c-.24.42-.55.69-.93.81s-.76.12-1.11,0c-.43-.14-.75-.42-.96-.85s-.25-.86-.1-1.31c.12-.38.38-.67.79-.89l5.96-3.09-6.02-1.95-.11-.04-.42,1.3,3.05.99-2.94,1.53c-.48.25-.85.51-1.09.78-.25.27-.44.6-.56.98-.26.78-.19,1.56.19,2.32s.96,1.27,1.72,1.51c.36.12.72.18,1.07.18.39,0,.77-.07,1.14-.22.71-.27,1.27-.81,1.65-1.59l.06-.12-1.33-.43-.05.08h-.01Z"/>
<path class="st14" d="M256.59,702.22c-.89-.34-1.81-.23-2.75.31-.93.54-1.65,1.48-2.15,2.79-.48,1.26-.59,2.41-.31,3.43.28,1.03.9,1.73,1.84,2.09l.07.02c.34.13.69.19,1.03.19.55,0,1.12-.17,1.68-.49.92-.53,1.64-1.49,2.17-2.85.47-1.23.56-2.38.26-3.4-.3-1.04-.92-1.75-1.84-2.1h0ZM256.78,707.24c-.35.9-.81,1.57-1.36,1.98-.55.4-1.09.5-1.62.3-.52-.2-.84-.62-.99-1.3-.14-.69-.05-1.48.29-2.34.34-.9.8-1.56,1.35-1.98.36-.27.73-.41,1.08-.41.17,0,.35.03.52.1.55.21.89.63,1.03,1.3.15.68.05,1.47-.29,2.37v-.02Z"/>
<path class="st14" d="M251.16,701.58c-.28-1.05-.89-1.77-1.8-2.14-.88-.35-1.81-.27-2.75.26-.94.52-1.68,1.45-2.2,2.75-.51,1.25-.63,2.4-.38,3.42.26,1.04.87,1.75,1.8,2.13l.07.03c.35.14.72.22,1.08.22.53,0,1.09-.16,1.64-.46.93-.51,1.67-1.46,2.22-2.81.5-1.22.61-2.36.33-3.4h-.01ZM249.46,704.46c-.36.9-.84,1.55-1.4,1.96-.36.25-.71.38-1.06.38-.19,0-.38-.04-.57-.12-.52-.21-.83-.64-.96-1.32-.13-.69-.02-1.48.33-2.34.36-.89.83-1.55,1.39-1.96.36-.26.71-.39,1.06-.39.18,0,.36.04.54.11.55.22.88.65,1.01,1.32.13.68.02,1.47-.34,2.36h0Z"/>
</g>
<g>
<polygon class="st14" points="300.05 720.72 301.05 713.6 301.07 713.49 299.65 713.29 298.44 721.86 300.92 722.21 301.59 720.94 300.05 720.72"/>
<path class="st14" d="M292.27,714.98c-.1-.02-.22-.03-.37-.05l2.32-2.18-.98-.97-3.91,3.7c-.56.53-.91,1.13-1.03,1.79-.16.82.03,1.61.56,2.35s1.24,1.2,2.1,1.37c.23.04.45.07.67.07.63,0,1.23-.18,1.8-.53.77-.48,1.25-1.14,1.4-1.95.16-.84,0-1.62-.5-2.31-.49-.68-1.19-1.12-2.08-1.29h.02ZM289.77,717.49c.09-.48.33-.85.74-1.12.29-.2.62-.3.96-.3.12,0,.24.01.37.04.53.1.95.35,1.26.76.31.41.42.83.33,1.29-.1.51-.35.89-.77,1.17-.42.27-.89.36-1.41.26-.49-.09-.88-.35-1.17-.76-.29-.42-.39-.85-.29-1.34h-.02Z"/>
<path class="st14" d="M285.14,710.42c-.93-.2-1.83.05-2.66.73-.83.68-1.4,1.72-1.69,3.09-.28,1.32-.21,2.48.22,3.44.44.97,1.16,1.58,2.14,1.78l.07.02c.21.04.42.07.62.07.7,0,1.38-.26,2.02-.78.82-.66,1.39-1.72,1.7-3.15.27-1.29.18-2.43-.27-3.4-.46-.98-1.18-1.58-2.15-1.79h0ZM286.11,715.34c-.2.95-.55,1.68-1.04,2.17-.38.39-.79.58-1.23.58h0c-.11,0-.22-.01-.33-.04-.55-.12-.93-.49-1.18-1.14-.25-.66-.28-1.45-.08-2.36.2-.94.55-1.67,1.03-2.17.39-.4.78-.59,1.21-.59.1,0,.21.01.32.03.57.12.97.49,1.22,1.12.25.64.28,1.44.08,2.38v.02Z"/>
</g>
<g>
<polygon class="st14" points="377.22 717.71 375.72 710.67 375.69 710.56 374.29 710.86 376.07 719.21 376.1 719.33 378.47 718.82 378.55 718.81 378.74 717.38 377.22 717.71"/>
<polygon class="st14" points="367.18 719.67 370.89 712 370.95 711.89 369.72 711.36 364.82 721.42 372.38 720.21 372.16 718.88 367.18 719.67"/>
<path class="st14" d="M362.32,714.06c-.77-.77-1.65-1.09-2.63-.95-.94.13-1.7.67-2.25,1.6-.55.92-.73,2.09-.53,3.48.19,1.34.66,2.4,1.39,3.15.63.65,1.36.98,2.18.98.15,0,.3-.01.45-.03h.07c.93-.14,1.68-.67,2.23-1.58.54-.91.72-2.1.52-3.54-.18-1.3-.66-2.35-1.42-3.1h-.01ZM362.04,719.8c-.29.62-.7.97-1.28,1.05-.55.08-1.05-.15-1.49-.67-.46-.53-.76-1.27-.89-2.19-.13-.95-.06-1.75.23-2.39.28-.62.68-.97,1.24-1.04.08-.01.16-.02.24-.02.48,0,.91.22,1.3.66.46.52.75,1.26.89,2.21.13.96.05,1.77-.23,2.4h0Z"/>
</g>
<g>
<polygon class="st14" points="415.68 705.66 414.24 706.24 411.49 699.47 410.17 700 413.42 708.03 415.74 707.09 415.68 705.66"/>
<path class="st14" d="M406.03,702.34c-.82-.36-1.68-.4-2.55-.1-.87.3-1.52.86-1.92,1.66-.4.8-.46,1.64-.16,2.49.25.73.79,1.26,1.59,1.6.8.34,1.61.37,2.43.09l.23-.09s.05-.02.09-.03l-.91,3.07,1.3.33,1.6-5.26c.2-.67.2-1.33-.02-1.96-.29-.82-.85-1.42-1.67-1.79h0ZM404.63,703.5c.26,0,.51.06.75.17.45.2.75.53.91.99.15.45.12.89-.12,1.35-.23.46-.59.77-1.06.93-.2.07-.4.1-.6.1-.26,0-.53-.06-.79-.18-.46-.22-.76-.54-.92-1s-.13-.9.1-1.34.58-.74,1.06-.91c.22-.08.44-.12.66-.12h.01Z"/>
<path class="st14" d="M398.93,705.23c-.89-.62-1.82-.78-2.76-.48-.9.29-1.56.95-1.94,1.96-.38,1-.35,2.18.08,3.52.42,1.28,1.06,2.25,1.92,2.87.58.42,1.19.63,1.81.63.31,0,.62-.05.94-.15l.07-.02c.9-.29,1.54-.94,1.93-1.93.38-.99.34-2.19-.11-3.58-.4-1.25-1.06-2.2-1.94-2.81h0ZM399.66,710.94c-.17.66-.53,1.07-1.08,1.25-.53.17-1.06.04-1.59-.4-.54-.45-.96-1.12-1.25-2-.3-.91-.36-1.72-.19-2.39.17-.66.51-1.07,1.04-1.24.17-.05.33-.08.5-.08.38,0,.76.15,1.13.44.54.43.96,1.11,1.26,2.02.3.92.36,1.73.19,2.4h-.01Z"/>
</g>
<g>
<polygon class="st14" points="450.02 687.71 448.7 688.53 444.88 682.44 444.82 682.34 443.6 683.1 448.14 690.34 448.2 690.44 450.33 689.11 450.02 687.71"/>
<path class="st14" d="M441.49,689.1c-.15.38-.3.68-.47.9-.16.22-.39.41-.69.58-.49.27-1,.36-1.5.24-.5-.11-.87-.38-1.11-.81-.25-.45-.3-.9-.13-1.38.16-.48.49-.86.99-1.13.61-.34,1.28-.36,2.02-.08l.1.04.74-1.3-.12-.05c-1.17-.53-2.32-.49-3.4.11-.85.47-1.44,1.15-1.73,2.01-.3.87-.23,1.7.2,2.47.4.72,1.02,1.21,1.84,1.45s1.6.17,2.31-.22c.05-.02.17-.11.38-.25l.31,1.39-2.7,1.5.67,1.2,3.67-2.04-1.23-4.97-.13.35h-.02Z"/>
<path class="st14" d="M433.45,690.2c-.98-.46-1.93-.46-2.8,0-.84.45-1.37,1.21-1.57,2.27-.2,1.05.03,2.21.69,3.45.63,1.19,1.44,2.03,2.39,2.49.48.23.95.35,1.41.35s.93-.12,1.38-.36l.06-.03c.83-.44,1.36-1.19,1.56-2.24.2-1.04-.04-2.21-.73-3.5-.62-1.16-1.42-1.98-2.4-2.43h0ZM435.16,695.69c-.06.68-.33,1.15-.84,1.42-.49.26-1.04.22-1.63-.12-.61-.34-1.15-.93-1.58-1.75-.45-.85-.65-1.63-.61-2.32.05-.68.31-1.14.81-1.41.24-.12.48-.19.73-.19.3,0,.61.09.93.26.61.33,1.14.93,1.59,1.77.46.86.66,1.64.6,2.33h0Z"/>
</g>
<g>
<polygon class="st14" points="480.72 664.08 479.56 665.12 474.66 659.69 473.59 660.65 479.4 667.08 481.26 665.41 480.72 664.08"/>
<path class="st14" d="M467.42,665.95l-1.03.83,1.05,1.29-.66.54.77.95.66-.54,3.96,4.86.26-9.85-3.96,3.21-1.05-1.29h0ZM469.24,668.18l1.92-1.55-.05,3.85-1.87-2.3h0Z"/>
<path class="st14" d="M464.83,669.4c-1.05-.28-1.98-.11-2.75.49-.75.59-1.14,1.43-1.15,2.51-.01,1.07.42,2.17,1.28,3.28.83,1.06,1.77,1.75,2.78,2.04.33.09.65.14.96.14.65,0,1.25-.21,1.79-.63l.05-.04c.74-.58,1.13-1.41,1.15-2.48.02-1.05-.43-2.17-1.32-3.32-.81-1.04-1.75-1.7-2.79-1.98h0ZM467.47,674.51c.06.68-.13,1.19-.58,1.54-.44.34-.98.4-1.63.17-.66-.23-1.29-.72-1.86-1.45-.59-.76-.93-1.49-1-2.18-.07-.68.11-1.18.55-1.52.29-.22.61-.34.96-.34.22,0,.45.04.69.12.66.22,1.29.72,1.88,1.47.59.76.93,1.5,1,2.19h-.01Z"/>
</g>
<g>
<polygon class="st14" points="506.84 635.49 505.88 636.72 500.2 632.3 500.1 632.22 499.22 633.35 505.97 638.6 506.06 638.68 507.6 636.71 506.84 635.49"/>
<path class="st14" d="M501.66,640.88l-.99,1.14.04.07c.2.35.3.67.29.94-.01.27-.13.54-.37.81-.25.29-.55.45-.92.48-.37.03-.68-.06-.95-.3-.26-.23-.39-.51-.37-.87.02-.36.19-.75.52-1.14l.07-.09-.97-.84-.08.09c-.45.5-.89.75-1.32.76h-.03c-.42,0-.78-.12-1.06-.37-.28-.24-.41-.56-.42-.98,0-.42.14-.79.41-1.11.55-.64,1.21-.78,2.02-.44l.08.03,1.02-1.17-.13-.07c-.76-.41-1.49-.51-2.17-.32-.68.19-1.29.6-1.81,1.2-.53.61-.79,1.32-.76,2.11.02.8.32,1.45.87,1.93.67.58,1.52.69,2.54.31-.18.9.05,1.62.66,2.16.42.37.92.55,1.46.55.14,0,.28-.01.43-.04.72-.12,1.36-.5,1.91-1.14.48-.56.75-1.17.8-1.81.05-.66-.18-1.27-.69-1.82l-.09-.1v.03Z"/>
<path class="st14" d="M495.2,644.96c-.98-.88-2.02-1.37-3.09-1.47-1.07-.09-1.96.23-2.63.96-.64.7-.87,1.6-.7,2.67.17,1.06.79,2.07,1.83,3,1,.9,2.04,1.42,3.1,1.53.14.01.27.02.4.02.89,0,1.63-.33,2.22-.98l.05-.05c.63-.7.87-1.59.7-2.64-.17-1.04-.8-2.07-1.88-3.04h0ZM495.3,649.68c-.37.42-.89.56-1.57.45-.7-.12-1.4-.49-2.09-1.11-.71-.64-1.17-1.31-1.37-1.98-.19-.66-.1-1.18.28-1.6.32-.35.72-.52,1.22-.52.12,0,.24,0,.37.03.68.1,1.39.48,2.1,1.12.72.65,1.18,1.32,1.36,1.99.18.66.08,1.19-.31,1.62h.01Z"/>
</g>
<g>
<polygon class="st14" points="527.58 602.81 526.85 604.18 520.38 600.76 519.71 602.02 527.38 606.08 528.55 603.88 527.58 602.81"/>
<path class="st14" d="M523.2,608.77l-.11-.09-.72,1.2.07.07c.36.33.55.7.58,1.09.03.4-.05.76-.25,1.08-.23.39-.57.63-1.04.74-.46.11-.9.04-1.3-.2-.34-.2-.57-.52-.69-.96l-1.68-6.49-3.32,5.52,1.17.7,1.65-2.75.84,3.2c.14.52.31.94.52,1.24s.49.56.83.77c.48.29,1,.43,1.53.43.25,0,.51-.03.78-.1.82-.2,1.45-.65,1.86-1.34.41-.68.56-1.41.46-2.16s-.5-1.41-1.18-1.96h0Z"/>
<path class="st14" d="M517.77,614.15c-1.12-.7-2.23-1-3.29-.91-1.08.09-1.9.57-2.42,1.4-.5.81-.58,1.73-.22,2.75.35,1.01,1.14,1.9,2.33,2.64,1.04.65,2.05.98,3.01.98.1,0,.2,0,.3-.01,1.07-.08,1.88-.55,2.41-1.4l.04-.06c.5-.8.58-1.71.23-2.72-.35-1-1.15-1.89-2.38-2.67h0ZM517.18,619.5c-.7,0-1.44-.25-2.22-.73-.81-.51-1.38-1.08-1.69-1.71-.3-.61-.3-1.14,0-1.62.31-.5.8-.75,1.48-.76h.06c.67,0,1.42.25,2.21.74.82.51,1.39,1.09,1.69,1.72.29.62.29,1.16-.02,1.65-.3.47-.78.71-1.47.72h-.04Z"/>
</g>
<g>
<polygon class="st14" points="542.33 567.03 541.85 568.51 534.88 566.25 534.44 567.62 542.69 570.29 543.46 567.91 542.33 567.03"/>
<polygon class="st14" points="539.22 576.23 532.49 573.67 532.38 573.62 531.87 574.96 539.86 578.01 539.97 578.05 540.86 575.72 539.77 574.78 539.22 576.23"/>
<path class="st14" d="M534.63,579.9c-1.22-.49-2.37-.6-3.4-.33-1.05.28-1.77.89-2.14,1.8-.36.88-.27,1.8.26,2.75.52.93,1.45,1.67,2.75,2.2.83.34,1.63.51,2.36.51.37,0,.73-.04,1.07-.13,1.04-.26,1.76-.87,2.13-1.8l.03-.07c.35-.87.27-1.78-.25-2.72-.51-.92-1.46-1.67-2.81-2.22h0ZM536.34,584.3c-.21.52-.64.83-1.33.96-.19.04-.38.05-.58.05-.54,0-1.13-.13-1.76-.38-.89-.36-1.55-.83-1.96-1.39-.4-.55-.5-1.08-.28-1.6.22-.54.65-.87,1.32-1.01.18-.04.38-.06.58-.06.54,0,1.14.13,1.78.39.9.36,1.56.83,1.96,1.4.4.56.48,1.09.27,1.63h0Z"/>
</g>
<g>
<polygon class="st14" points="550.62 529.24 550.41 530.78 543.27 529.78 543.15 529.77 542.95 531.18 551.43 532.37 551.55 532.38 551.89 529.91 550.62 529.24"/>
<path class="st14" d="M546.72,535.55c-1.29-.25-2.44-.14-3.4.33-.97.48-1.56,1.21-1.75,2.18-.18.93.08,1.82.79,2.64.69.81,1.75,1.36,3.12,1.63.48.09.95.14,1.38.14.76,0,1.45-.14,2.06-.43.97-.45,1.56-1.19,1.75-2.17v-.07c.19-.92-.07-1.8-.75-2.62-.68-.81-1.75-1.36-3.19-1.63h0ZM549.25,539.54c-.11.55-.47.94-1.12,1.2-.66.26-1.45.3-2.36.13-.94-.18-1.68-.51-2.19-.99-.5-.46-.69-.96-.59-1.51.11-.58.47-.98,1.1-1.24.38-.15.81-.23,1.3-.23.33,0,.7.04,1.08.11.95.18,1.69.52,2.2,1,.5.47.69.98.58,1.54h0Z"/>
<path class="st14" d="M545.28,543.24c-1.29-.27-2.44-.18-3.41.27-.98.46-1.59,1.18-1.79,2.15-.2.93.05,1.82.73,2.66.68.83,1.72,1.4,3.09,1.69.52.11,1.03.17,1.49.17.71,0,1.37-.13,1.95-.39.97-.44,1.58-1.16,1.79-2.14v-.06c.21-.92-.03-1.81-.7-2.63-.66-.82-1.72-1.39-3.15-1.7v-.02ZM547.73,547.28c-.12.55-.49.93-1.14,1.17-.37.14-.78.21-1.23.21-.35,0-.73-.04-1.13-.13-.94-.2-1.67-.55-2.17-1.03-.49-.48-.68-.97-.56-1.52.12-.57.49-.97,1.13-1.22.36-.14.77-.21,1.21-.21.36,0,.75.05,1.17.13.95.2,1.68.55,2.18,1.04.49.48.67.99.55,1.55h-.01Z"/>
</g>
<g>
<path class="st14" d="M544.1,462.41c.41-.08.79-.28,1.14-.58.31-.27.54-.63.71-1.07.68.53,1.38.73,2.1.59.66-.13,1.19-.53,1.57-1.19s.49-1.38.34-2.14c-.15-.76-.53-1.38-1.13-1.85s-1.25-.64-1.92-.51c-.41.08-.76.24-1.03.47-.24.2-.47.49-.68.85-.7-.68-1.48-.95-2.31-.79-.73.14-1.3.57-1.68,1.27-.38.7-.49,1.49-.33,2.35.17.86.57,1.54,1.19,2.04.49.4,1.02.6,1.57.6.15,0,.31-.02.46-.05h0ZM544.73,460.25c-.22.38-.51.6-.89.68-.09.02-.19.03-.28.03-.29,0-.56-.09-.82-.29-.33-.25-.55-.61-.63-1.05-.09-.48-.04-.92.17-1.29.2-.37.5-.59.9-.66.1-.02.19-.03.29-.03.29,0,.57.1.82.28.34.25.55.6.64,1.05.09.46.03.89-.19,1.27h0ZM546.34,457.71c.2-.32.47-.51.83-.58.09-.02.17-.02.25-.02.26,0,.5.08.74.25.31.22.5.52.57.9s.01.73-.19,1.05c-.2.32-.48.51-.83.58-.36.07-.69,0-.99-.22-.31-.22-.5-.52-.57-.9-.07-.37,0-.73.19-1.05h0Z"/>
<path class="st14" d="M551.38,466.04v-.07c-.16-.93-.7-1.67-1.62-2.2s-2.11-.68-3.56-.45c-1.3.2-2.34.7-3.08,1.47-.75.78-1.06,1.67-.9,2.64.15.94.7,1.69,1.64,2.22.66.38,1.44.57,2.33.57.37,0,.76-.03,1.16-.1,1.34-.21,2.39-.7,3.14-1.44.75-.76,1.06-1.64.9-2.64h-.01ZM549.3,467.71c-.53.47-1.26.78-2.18.92-.34.05-.66.08-.96.08-.54,0-1.03-.09-1.44-.26-.63-.27-.98-.67-1.07-1.22-.09-.58.11-1.08.61-1.54.51-.46,1.25-.77,2.2-.92.34-.05.66-.08.95-.08.55,0,1.04.09,1.45.27.63.27.98.68,1.07,1.25.09.55-.12,1.05-.64,1.51h.01Z"/>
</g>
<g>
<polygon class="st14" points="537.66 417.36 537.62 417.25 536.36 417.74 538.17 422.44 529.88 420.4 529.75 420.37 529.49 421.68 540.37 424.39 537.66 417.36"/>
<path class="st14" d="M541.96,428.21l-.02-.07c-.31-.89-.97-1.52-1.97-1.89-.99-.36-2.2-.3-3.58.17-1.25.43-2.18,1.1-2.78,1.98-.61.9-.75,1.83-.43,2.76.31.9.98,1.54,2,1.9.45.16.93.24,1.44.24.64,0,1.34-.13,2.08-.38,1.28-.44,2.23-1.1,2.84-1.96.61-.88.76-1.8.43-2.75h-.01ZM540.21,430.22c-.44.55-1.11.98-1.98,1.28-.91.31-1.71.39-2.39.24-.67-.15-1.08-.49-1.27-1.02-.19-.56-.08-1.09.34-1.62.42-.55,1.1-.98,2-1.29.6-.21,1.16-.31,1.66-.31.26,0,.51.03.74.08.67.16,1.08.5,1.27,1.05.18.53.06,1.05-.37,1.59h0Z"/>
</g>
<g>
<path class="st14" d="M519.83,389.62c.16-.85.02-1.65-.42-2.39l-.14-.21s-.03-.05-.05-.08l3.2.26.06-1.34-5.48-.47c-.7-.06-1.34.08-1.92.43-.75.45-1.22,1.12-1.41,2s-.04,1.72.43,2.51c.48.79,1.16,1.3,2.02,1.53.28.07.57.11.84.11.56,0,1.11-.16,1.63-.47.66-.39,1.07-1.03,1.24-1.88h0ZM518.57,389.14c-.12.5-.37.86-.79,1.11-.41.25-.86.31-1.33.18-.48-.13-.84-.41-1.11-.85-.27-.45-.35-.9-.24-1.39.11-.48.36-.84.79-1.1.26-.16.54-.24.84-.24.16,0,.34.02.51.07.49.13.87.41,1.13.84s.33.88.21,1.38h-.01Z"/>
<path class="st14" d="M526.11,392.6l-.03-.06c-.46-.82-1.22-1.33-2.27-1.52-1.04-.18-2.22.08-3.5.79-1.15.64-1.96,1.46-2.4,2.43-.44.99-.42,1.93.06,2.79.46.83,1.24,1.34,2.3,1.53.22.04.45.06.68.06.86,0,1.79-.27,2.76-.81,1.18-.65,2.01-1.47,2.45-2.43.45-.97.43-1.9-.06-2.78h.01ZM524.73,394.88c-.33.62-.92,1.16-1.73,1.61-.84.46-1.62.69-2.32.65-.68-.04-1.15-.29-1.42-.78-.29-.51-.27-1.06.05-1.66.32-.61.91-1.16,1.75-1.62.77-.43,1.5-.65,2.14-.65h.18c.68.04,1.15.31,1.43.81.27.49.24,1.02-.09,1.63h.01Z"/>
</g>
<g>
<path class="st14" d="M497.48,358.16c.07-.85-.17-1.6-.7-2.2-.03-.04-.12-.12-.32-.31l1.29-.59,1.95,2.24.08.09,1.04-.9-2.7-3.1-.06-.07-4.62,2.23.37.06c.4.06.73.16.98.27s.49.3.71.55c.37.43.56.9.55,1.42,0,.52-.19.93-.57,1.26-.39.34-.83.48-1.33.42s-.94-.31-1.32-.73c-.45-.52-.62-1.18-.5-1.96l.02-.1-1.43-.46-.03.13c-.28,1.25,0,2.36.81,3.3.64.74,1.43,1.17,2.33,1.28.15.02.3.03.44.03.73,0,1.38-.25,1.94-.73.62-.54.97-1.25,1.04-2.1l.03-.03Z"/>
<path class="st14" d="M504.3,360.26l-.04-.06c-.59-.73-1.43-1.1-2.5-1.1s-2.17.46-3.3,1.38c-1.03.83-1.68,1.77-1.94,2.81-.26,1.05-.08,1.97.54,2.74.59.73,1.44,1.1,2.51,1.1h.02c1.07,0,2.17-.46,3.26-1.34,1.05-.85,1.72-1.8,2-2.81.27-1.03.09-1.95-.54-2.73h-.01ZM497.97,363.51c.21-.66.7-1.3,1.44-1.9.75-.61,1.49-.96,2.18-1.03.1-.01.19-.02.29-.02.54,0,.96.19,1.27.57.35.44.42.97.2,1.62-.22.67-.7,1.3-1.42,1.88-.75.6-1.48.95-2.17,1.04-.68.08-1.18-.09-1.54-.53-.37-.46-.45-.99-.24-1.64h0ZM499.57,367.03h0Z"/>
</g>
<g>
<path class="st14" d="M472.96,328.36l-9.71,1.78,3.97,3.2-1.05,1.29,1.03.83,1.04-1.29.67.54.77-.95-.67-.54,3.95-4.87h0ZM469.85,330.1l-1.87,2.3-1.92-1.55,3.78-.75h.01Z"/>
<path class="st14" d="M477.2,332.2l-.05-.05c-.71-.62-1.6-.84-2.66-.65-1.04.18-2.05.83-3.01,1.93-.87.99-1.34,2.04-1.42,3.1-.07,1.08.26,1.96,1.01,2.61.55.48,1.21.72,1.96.72.23,0,.48-.02.73-.07,1.05-.19,2.06-.82,2.98-1.88.89-1.02,1.38-2.07,1.47-3.12.09-1.06-.25-1.94-1.01-2.6h0ZM476.68,334.82c-.1.69-.46,1.4-1.07,2.1-.63.72-1.29,1.19-1.95,1.4-.23.07-.45.11-.65.11-.37,0-.68-.12-.96-.36-.44-.39-.62-.9-.52-1.58.09-.68.46-1.4,1.09-2.12.64-.73,1.3-1.2,1.97-1.39.22-.06.43-.1.62-.1.38,0,.71.12,1,.37.42.37.58.88.48,1.56h-.01Z"/>
</g>
<g>
<path class="st14" d="M439.88,308.74c.34-.62.38-1.27.12-1.96-.26-.67-.77-1.22-1.51-1.63-.64-.36-1.3-.49-1.94-.41-.65.09-1.2.44-1.64,1.05l-.08.11,1.32.73.06-.06c.3-.27.6-.43.86-.48.27-.04.56.02.87.19.33.18.56.45.66.8.11.35.08.67-.1.99-.17.3-.42.48-.78.54s-.77-.03-1.23-.27l-.1-.06-.62,1.12.1.06c.58.34.92.72,1.02,1.14.1.43.05.8-.14,1.14-.18.32-.46.52-.87.61s-.8.03-1.17-.17c-.73-.41-1.01-1.02-.85-1.88l.02-.08-1.36-.75-.04.14c-.24.82-.2,1.56.14,2.19.33.62.85,1.13,1.56,1.52.48.26.98.4,1.49.4.24,0,.49-.03.74-.09.78-.19,1.36-.61,1.71-1.25.43-.77.36-1.63-.22-2.55.92-.01,1.58-.38,1.98-1.09h0Z"/>
<path class="st14" d="M445.63,309.27l-.06-.04c-.81-.48-1.73-.54-2.73-.18-.99.36-1.88,1.18-2.63,2.43-.68,1.13-.97,2.24-.85,3.3.11,1.08.6,1.88,1.45,2.39.46.28.96.42,1.49.42.4,0,.83-.08,1.27-.24,1.01-.37,1.88-1.17,2.61-2.37.7-1.16,1-2.27.91-3.32-.1-1.06-.58-1.86-1.45-2.38h0ZM441.57,315.93c-.5-.3-.76-.78-.79-1.46-.03-.69.21-1.45.7-2.28.5-.83,1.07-1.41,1.69-1.71.31-.15.6-.23.88-.23s.53.07.77.22c.48.29.72.77.74,1.46.02.7-.21,1.46-.69,2.26-.49.82-1.06,1.4-1.68,1.71-.61.31-1.15.32-1.63.03h.01Z"/>
</g>
<g>
<path class="st14" d="M403.03,289.42c-.76-.26-1.5-.26-2.22,0s-1.28.79-1.67,1.56l-.06.12,1.32.46.05-.08c.25-.42.56-.68.95-.79.38-.11.76-.1,1.11.02.43.15.74.43.94.87.21.44.23.87.08,1.31-.13.38-.39.66-.8.87l-6.01,2.99,6.1,2.09.45-1.29-3.03-1.04,2.97-1.48c.48-.24.85-.5,1.1-.76.25-.27.45-.6.58-.97.27-.78.22-1.56-.15-2.32s-.94-1.28-1.7-1.54v-.02Z"/>
<path class="st14" d="M412.38,294.25c-.28-1.03-.9-1.74-1.84-2.1l-.06-.02c-.88-.34-1.8-.24-2.72.29s-1.65,1.48-2.17,2.85c-.47,1.23-.56,2.37-.27,3.4.3,1.04.92,1.75,1.84,2.1.34.13.69.2,1.04.2.56,0,1.13-.17,1.71-.51.93-.54,1.65-1.48,2.15-2.78.48-1.26.59-2.42.32-3.43h0ZM410.66,297.13c-.34.9-.8,1.56-1.36,1.98-.36.27-.72.41-1.08.41-.17,0-.35-.03-.52-.1-.55-.21-.89-.64-1.03-1.3-.15-.67-.05-1.47.3-2.36.35-.9.81-1.57,1.37-1.98.36-.27.72-.4,1.08-.4.18,0,.37.04.55.1.52.2.85.63.99,1.31.14.69.05,1.48-.29,2.34h0Z"/>
</g>
<g>
<polygon class="st14" points="362.53 281.25 364.07 281.5 362.92 288.72 364.33 288.94 365.69 280.39 363.22 280 362.53 281.25"/>
<path class="st14" d="M375.19,283.12c-.45-.97-1.19-1.55-2.18-1.75h-.07c-.92-.19-1.81.06-2.62.75-.81.68-1.36,1.75-1.64,3.18-.25,1.29-.14,2.43.33,3.4.48.97,1.21,1.56,2.18,1.75.19.04.38.06.57.06.73,0,1.43-.28,2.08-.84.82-.69,1.37-1.74,1.64-3.12.26-1.33.16-2.48-.29-3.43h0ZM374,286.25c-.18.94-.52,1.68-.99,2.18-.38.41-.79.61-1.23.61-.09,0-.19,0-.29-.03-.58-.11-.98-.47-1.24-1.1-.26-.64-.3-1.44-.12-2.38.18-.95.52-1.68,1-2.19.38-.4.8-.6,1.24-.6.1,0,.2.01.31.03.55.11.94.47,1.2,1.12.26.66.3,1.45.12,2.36h0Z"/>
</g>
</g>
<g id="five-degree">
<line class="st4" id="_x3C_Line_x3E_20" x1="330.07" x2="330.07" y1="263.28" y2="274.66"/>
<line class="st4" id="_x3C_Line_x3E_21" x1="309.41" x2="310.4" y1="264.18" y2="275.51"/>
<line class="st4" id="_x3C_Line_x3E_22" x1="288.9" x2="290.88" y1="266.88" y2="278.08"/>
<line class="st4" id="_x3C_Line_x3E_23" x1="268.71" x2="271.65" y1="271.35" y2="282.35"/>
<line class="st4" id="_x3C_Line_x3E_24" x1="248.98" x2="252.88" y1="277.57" y2="288.27"/>
<line class="st4" id="_x3C_Line_x3E_25" x1="229.88" x2="234.69" y1="285.49" y2="295.8"/>
<line class="st4" id="_x3C_Line_x3E_26" x1="211.53" x2="217.22" y1="295.04" y2="304.89"/>
<line class="st4" id="_x3C_Line_x3E_27" x1="194.09" x2="200.61" y1="306.15" y2="315.47"/>
<line class="st4" id="_x3C_Line_x3E_28" x1="177.68" x2="184.99" y1="318.74" y2="327.46"/>
<line class="st4" id="_x3C_Line_x3E_29" x1="162.43" x2="170.48" y1="332.71" y2="340.76"/>
<line class="st4" id="_x3C_Line_x3E_30" x1="148.46" x2="157.17" y1="347.96" y2="355.28"/>
<line class="st4" id="_x3C_Line_x3E_31" x1="135.87" x2="145.19" y1="364.37" y2="370.9"/>
<line class="st4" id="_x3C_Line_x3E_32" x1="124.75" x2="134.61" y1="381.81" y2="387.5"/>
<line class="st4" id="_x3C_Line_x3E_33" x1="115.2" x2="125.52" y1="400.16" y2="404.97"/>
<line class="st4" id="_x3C_Line_x3E_34" x1="107.29" x2="117.98" y1="419.27" y2="423.16"/>
<line class="st4" id="_x3C_Line_x3E_35" x1="101.07" x2="112.06" y1="438.99" y2="441.93"/>
<line class="st4" id="_x3C_Line_x3E_36" x1="96.59" x2="107.8" y1="459.18" y2="461.16"/>
<line class="st4" id="_x3C_Line_x3E_37" x1="93.89" x2="105.23" y1="479.69" y2="480.68"/>
<line class="st4" id="_x3C_Line_x3E_38" x1="92.99" x2="104.37" y1="500.35" y2="500.35"/>
<line class="st4" id="_x3C_Line_x3E_39" x1="93.89" x2="105.23" y1="521.01" y2="520.02"/>
<line class="st4" id="_x3C_Line_x3E_40" x1="96.59" x2="107.8" y1="541.52" y2="539.54"/>
<line class="st4" id="_x3C_Line_x3E_41" x1="101.07" x2="112.06" y1="561.71" y2="558.76"/>
<line class="st4" id="_x3C_Line_x3E_42" x1="107.29" x2="117.98" y1="581.44" y2="577.54"/>
<line class="st4" id="_x3C_Line_x3E_43" x1="115.2" x2="125.51" y1="600.55" y2="595.73"/>
<line class="st4" id="_x3C_Line_x3E_44" x1="124.75" x2="134.61" y1="618.89" y2="613.2"/>
<line class="st4" id="_x3C_Line_x3E_45" x1="135.87" x2="145.18" y1="636.34" y2="629.8"/>
<line class="st4" id="_x3C_Line_x3E_46" x1="148.46" x2="157.17" y1="652.74" y2="645.43"/>
<line class="st4" id="_x3C_Line_x3E_47" x1="162.43" x2="170.47" y1="667.99" y2="659.94"/>
<line class="st4" id="_x3C_Line_x3E_48" x1="177.68" x2="184.99" y1="681.97" y2="673.25"/>
<line class="st4" id="_x3C_Line_x3E_49" x1="194.09" x2="200.61" y1="694.56" y2="685.23"/>
<line class="st4" id="_x3C_Line_x3E_50" x1="211.53" x2="217.21" y1="705.67" y2="695.81"/>
<line class="st4" id="_x3C_Line_x3E_51" x1="229.88" x2="234.68" y1="715.22" y2="704.9"/>
<line class="st4" id="_x3C_Line_x3E_52" x1="248.98" x2="252.87" y1="723.13" y2="712.44"/>
<line class="st4" id="_x3C_Line_x3E_53" x1="268.71" x2="271.65" y1="729.35" y2="718.36"/>
<line class="st4" id="_x3C_Line_x3E_54" x1="288.9" x2="290.87" y1="733.83" y2="722.62"/>
<line class="st4" id="_x3C_Line_x3E_55" x1="309.41" x2="310.39" y1="736.53" y2="725.19"/>
<line class="st4" id="_x3C_Line_x3E_56" x1="330.07" x2="330.06" y1="737.43" y2="726.05"/>
<line class="st4" id="_x3C_Line_x3E_57" x1="350.73" x2="349.73" y1="736.53" y2="725.19"/>
<line class="st4" id="_x3C_Line_x3E_58" x1="371.24" x2="369.25" y1="733.83" y2="722.62"/>
<line class="st4" id="_x3C_Line_x3E_59" x1="391.43" x2="388.48" y1="729.35" y2="718.36"/>
<line class="st4" id="_x3C_Line_x3E_60" x1="411.15" x2="407.26" y1="723.13" y2="712.44"/>
<line class="st4" id="_x3C_Line_x3E_61" x1="430.26" x2="425.45" y1="715.22" y2="704.91"/>
<line class="st4" id="_x3C_Line_x3E_62" x1="448.61" x2="442.91" y1="705.67" y2="695.81"/>
<line class="st4" id="_x3C_Line_x3E_63" x1="466.05" x2="459.52" y1="694.55" y2="685.24"/>
<line class="st4" id="_x3C_Line_x3E_64" x1="482.46" x2="475.14" y1="681.96" y2="673.25"/>
<line class="st4" id="_x3C_Line_x3E_65" x1="497.71" x2="489.66" y1="667.99" y2="659.95"/>
<line class="st4" id="_x3C_Line_x3E_66" x1="511.68" x2="502.96" y1="652.74" y2="645.43"/>
<line class="st4" id="_x3C_Line_x3E_67" x1="524.27" x2="514.94" y1="636.33" y2="629.81"/>
<line class="st4" id="_x3C_Line_x3E_68" x1="535.39" x2="525.52" y1="618.89" y2="613.2"/>
<line class="st4" id="_x3C_Line_x3E_69" x1="544.93" x2="534.62" y1="600.54" y2="595.74"/>
<line class="st4" id="_x3C_Line_x3E_70" x1="552.85" x2="542.15" y1="581.44" y2="577.55"/>
<line class="st4" id="_x3C_Line_x3E_71" x1="559.07" x2="548.07" y1="561.71" y2="558.77"/>
<line class="st4" id="_x3C_Line_x3E_72" x1="563.54" x2="552.33" y1="541.52" y2="539.55"/>
<line class="st4" id="_x3C_Line_x3E_73" x1="566.24" x2="554.9" y1="521.01" y2="520.03"/>
<line class="st4" id="_x3C_Line_x3E_74" x1="567.14" x2="555.76" y1="500.35" y2="500.36"/>
<line class="st4" id="_x3C_Line_x3E_75" x1="566.24" x2="554.9" y1="479.69" y2="480.68"/>
<line class="st4" id="_x3C_Line_x3E_76" x1="563.54" x2="552.33" y1="459.18" y2="461.16"/>
<line class="st4" id="_x3C_Line_x3E_77" x1="559.07" x2="548.07" y1="438.99" y2="441.94"/>
<line class="st4" id="_x3C_Line_x3E_78" x1="552.85" x2="542.15" y1="419.26" y2="423.16"/>
<line class="st4" id="_x3C_Line_x3E_79" x1="544.93" x2="534.62" y1="400.16" y2="404.97"/>
<line class="st4" id="_x3C_Line_x3E_80" x1="535.38" x2="525.52" y1="381.81" y2="387.51"/>
<line class="st4" id="_x3C_Line_x3E_81" x1="524.27" x2="514.95" y1="364.37" y2="370.9"/>
<line class="st4" id="_x3C_Line_x3E_82" x1="511.68" x2="502.96" y1="347.96" y2="355.28"/>
<line class="st4" id="_x3C_Line_x3E_83" x1="497.7" x2="489.66" y1="332.71" y2="340.76"/>
<line class="st4" id="_x3C_Line_x3E_84" x1="482.45" x2="475.14" y1="318.74" y2="327.46"/>
<line class="st4" id="_x3C_Line_x3E_85" x1="466.05" x2="459.52" y1="306.15" y2="315.47"/>
<line class="st4" id="_x3C_Line_x3E_86" x1="448.6" x2="442.92" y1="295.03" y2="304.9"/>
<line class="st4" id="_x3C_Line_x3E_87" x1="430.26" x2="425.45" y1="285.48" y2="295.8"/>
<line class="st4" id="_x3C_Line_x3E_88" x1="411.15" x2="407.26" y1="277.57" y2="288.27"/>
<line class="st4" id="_x3C_Line_x3E_89" x1="391.42" x2="388.48" y1="271.35" y2="282.35"/>
<line class="st4" id="_x3C_Line_x3E_90" x1="371.23" x2="369.26" y1="266.88" y2="278.09"/>
<line class="st4" id="_x3C_Line_x3E_91" x1="350.72" x2="349.74" y1="264.18" y2="275.52"/>
</g>
<g id="one-degree">
<line class="st3" id="_x3C_Line_x3E_92" x1="325.93" x2="326.05" y1="263.31" y2="269.95"/>
<line class="st3" id="_x3C_Line_x3E_93" x1="321.8" x2="322.03" y1="263.42" y2="270.05"/>
<line class="st3" id="_x3C_Line_x3E_94" x1="317.66" x2="318.01" y1="263.6" y2="270.23"/>
<line class="st3" id="_x3C_Line_x3E_95" x1="313.53" x2="313.99" y1="263.85" y2="270.48"/>
<line class="st3" id="_x3C_Line_x3E_96" x1="305.29" x2="305.98" y1="264.58" y2="271.18"/>
<line class="st3" id="_x3C_Line_x3E_97" x1="301.18" x2="301.99" y1="265.04" y2="271.63"/>
<line class="st3" id="_x3C_Line_x3E_98" x1="297.08" x2="298" y1="265.58" y2="272.16"/>
<line class="st3" id="_x3C_Line_x3E_99" x1="292.98" x2="294.02" y1="266.2" y2="272.75"/>
<line class="st3" id="_x3C_Line_x3E_100" x1="284.84" x2="286.1" y1="267.63" y2="274.15"/>
<line class="st3" id="_x3C_Line_x3E_101" x1="280.78" x2="282.16" y1="268.46" y2="274.95"/>
<line class="st3" id="_x3C_Line_x3E_102" x1="276.74" x2="278.23" y1="269.35" y2="275.82"/>
<line class="st3" id="_x3C_Line_x3E_103" x1="272.72" x2="274.32" y1="270.32" y2="276.76"/>
<line class="st3" id="_x3C_Line_x3E_104" x1="264.72" x2="266.55" y1="272.46" y2="278.84"/>
<line class="st3" id="_x3C_Line_x3E_105" x1="260.76" x2="262.7" y1="273.64" y2="279.99"/>
<line class="st3" id="_x3C_Line_x3E_106" x1="256.81" x2="258.86" y1="274.88" y2="281.2"/>
<line class="st3" id="_x3C_Line_x3E_107" x1="252.89" x2="255.05" y1="276.19" y2="282.47"/>
<line class="st3" id="_x3C_Line_x3E_108" x1="245.11" x2="247.49" y1="279.03" y2="285.22"/>
<line class="st3" id="_x3C_Line_x3E_109" x1="241.26" x2="243.75" y1="280.54" y2="286.7"/>
<line class="st3" id="_x3C_Line_x3E_110" x1="237.44" x2="240.03" y1="282.13" y2="288.24"/>
<line class="st3" id="_x3C_Line_x3E_111" x1="233.65" x2="236.34" y1="283.78" y2="289.84"/>
<line class="st3" id="_x3C_Line_x3E_112" x1="226.15" x2="229.05" y1="287.27" y2="293.24"/>
<line class="st3" id="_x3C_Line_x3E_113" x1="222.44" x2="225.46" y1="289.12" y2="295.03"/>
<line class="st3" id="_x3C_Line_x3E_114" x1="218.77" x2="221.89" y1="291.03" y2="296.89"/>
<line class="st3" id="_x3C_Line_x3E_115" x1="215.14" x2="218.35" y1="293" y2="298.81"/>
<line class="st3" id="_x3C_Line_x3E_116" x1="207.97" x2="211.39" y1="297.14" y2="302.83"/>
<line class="st3" id="_x3C_Line_x3E_117" x1="204.44" x2="207.96" y1="299.3" y2="304.93"/>
<line class="st3" id="_x3C_Line_x3E_118" x1="200.95" x2="204.57" y1="301.53" y2="307.1"/>
<line class="st3" id="_x3C_Line_x3E_119" x1="197.5" x2="201.21" y1="303.81" y2="309.32"/>
<line class="st3" id="_x3C_Line_x3E_120" x1="190.72" x2="194.63" y1="308.56" y2="313.93"/>
<line class="st3" id="_x3C_Line_x3E_121" x1="187.4" x2="191.39" y1="311.02" y2="316.32"/>
<line class="st3" id="_x3C_Line_x3E_122" x1="184.12" x2="188.2" y1="313.54" y2="318.77"/>
<line class="st3" id="_x3C_Line_x3E_123" x1="180.88" x2="185.05" y1="316.11" y2="321.27"/>
<line class="st3" id="_x3C_Line_x3E_124" x1="174.54" x2="178.89" y1="321.43" y2="326.44"/>
<line class="st3" id="_x3C_Line_x3E_125" x1="171.44" x2="175.88" y1="324.17" y2="329.11"/>
<line class="st3" id="_x3C_Line_x3E_126" x1="168.39" x2="172.92" y1="326.97" y2="331.83"/>
<line class="st3" id="_x3C_Line_x3E_127" x1="165.39" x2="170" y1="329.82" y2="334.59"/>
<line class="st3" id="_x3C_Line_x3E_128" x1="159.54" x2="164.31" y1="335.67" y2="340.28"/>
<line class="st3" id="_x3C_Line_x3E_129" x1="156.69" x2="161.54" y1="338.67" y2="343.2"/>
<line class="st3" id="_x3C_Line_x3E_130" x1="153.89" x2="158.83" y1="341.72" y2="346.16"/>
<line class="st3" id="_x3C_Line_x3E_131" x1="151.15" x2="156.16" y1="344.82" y2="349.18"/>
<line class="st3" id="_x3C_Line_x3E_132" x1="145.83" x2="150.99" y1="351.16" y2="355.34"/>
<line class="st3" id="_x3C_Line_x3E_133" x1="143.26" x2="148.49" y1="354.4" y2="358.49"/>
<line class="st3" id="_x3C_Line_x3E_134" x1="140.74" x2="146.04" y1="357.68" y2="361.68"/>
<line class="st3" id="_x3C_Line_x3E_135" x1="138.28" x2="143.65" y1="361" y2="364.91"/>
<line class="st3" id="_x3C_Line_x3E_136" x1="133.53" x2="139.04" y1="367.78" y2="371.5"/>
<line class="st3" id="_x3C_Line_x3E_137" x1="131.25" x2="136.82" y1="371.23" y2="374.85"/>
<line class="st3" id="_x3C_Line_x3E_138" x1="129.02" x2="134.66" y1="374.72" y2="378.24"/>
<line class="st3" id="_x3C_Line_x3E_139" x1="126.86" x2="132.56" y1="378.25" y2="381.67"/>
<line class="st3" id="_x3C_Line_x3E_140" x1="122.72" x2="128.53" y1="385.42" y2="388.64"/>
<line class="st3" id="_x3C_Line_x3E_141" x1="120.75" x2="126.61" y1="389.05" y2="392.17"/>
<line class="st3" id="_x3C_Line_x3E_142" x1="118.84" x2="124.76" y1="392.72" y2="395.74"/>
<line class="st3" id="_x3C_Line_x3E_143" x1="116.99" x2="122.96" y1="396.43" y2="399.34"/>
<line class="st3" id="_x3C_Line_x3E_144" x1="113.5" x2="119.57" y1="403.93" y2="406.63"/>
<line class="st3" id="_x3C_Line_x3E_145" x1="111.85" x2="117.96" y1="407.72" y2="410.32"/>
<line class="st3" id="_x3C_Line_x3E_146" x1="110.27" x2="116.42" y1="411.54" y2="414.03"/>
<line class="st3" id="_x3C_Line_x3E_147" x1="108.75" x2="114.95" y1="415.39" y2="417.77"/>
<line class="st3" id="_x3C_Line_x3E_148" x1="105.92" x2="112.2" y1="423.17" y2="425.33"/>
<line class="st3" id="_x3C_Line_x3E_149" x1="104.61" x2="110.92" y1="427.09" y2="429.15"/>
<line class="st3" id="_x3C_Line_x3E_150" x1="103.36" x2="109.71" y1="431.04" y2="432.98"/>
<line class="st3" id="_x3C_Line_x3E_151" x1="102.19" x2="108.57" y1="435.01" y2="436.84"/>
<line class="st3" id="_x3C_Line_x3E_152" x1="100.05" x2="106.49" y1="443" y2="444.61"/>
<line class="st3" id="_x3C_Line_x3E_153" x1="99.08" x2="105.55" y1="447.02" y2="448.52"/>
<line class="st3" id="_x3C_Line_x3E_154" x1="98.18" x2="104.68" y1="451.06" y2="452.44"/>
<line class="st3" id="_x3C_Line_x3E_155" x1="97.36" x2="103.88" y1="455.12" y2="456.38"/>
<line class="st3" id="_x3C_Line_x3E_156" x1="95.92" x2="102.48" y1="463.27" y2="464.3"/>
<line class="st3" id="_x3C_Line_x3E_157" x1="95.31" x2="101.89" y1="467.36" y2="468.28"/>
<line class="st3" id="_x3C_Line_x3E_158" x1="94.77" x2="101.36" y1="471.46" y2="472.27"/>
<line class="st3" id="_x3C_Line_x3E_159" x1="94.3" x2="100.91" y1="475.57" y2="476.27"/>
<line class="st3" id="_x3C_Line_x3E_160" x1="93.58" x2="100.21" y1="483.82" y2="484.28"/>
<line class="st3" id="_x3C_Line_x3E_161" x1="93.33" x2="99.96" y1="487.95" y2="488.29"/>
<line class="st3" id="_x3C_Line_x3E_162" x1="93.15" x2="99.79" y1="492.08" y2="492.31"/>
<line class="st3" id="_x3C_Line_x3E_163" x1="93.04" x2="99.68" y1="496.22" y2="496.33"/>
<line class="st3" id="_x3C_Line_x3E_164" x1="93.04" x2="99.68" y1="504.49" y2="504.37"/>
<line class="st3" id="_x3C_Line_x3E_165" x1="93.15" x2="99.79" y1="508.63" y2="508.39"/>
<line class="st3" id="_x3C_Line_x3E_166" x1="93.33" x2="99.96" y1="512.76" y2="512.41"/>
<line class="st3" id="_x3C_Line_x3E_167" x1="93.58" x2="100.21" y1="516.89" y2="516.43"/>
<line class="st3" id="_x3C_Line_x3E_168" x1="94.3" x2="100.91" y1="525.13" y2="524.44"/>
<line class="st3" id="_x3C_Line_x3E_169" x1="94.77" x2="101.37" y1="529.24" y2="528.43"/>
<line class="st3" id="_x3C_Line_x3E_170" x1="95.31" x2="101.89" y1="533.35" y2="532.42"/>
<line class="st3" id="_x3C_Line_x3E_171" x1="95.93" x2="102.49" y1="537.44" y2="536.4"/>
<line class="st3" id="_x3C_Line_x3E_172" x1="97.36" x2="103.88" y1="545.59" y2="544.32"/>
<line class="st3" id="_x3C_Line_x3E_173" x1="98.19" x2="104.68" y1="549.64" y2="548.26"/>
<line class="st3" id="_x3C_Line_x3E_174" x1="99.08" x2="105.56" y1="553.68" y2="552.19"/>
<line class="st3" id="_x3C_Line_x3E_175" x1="100.05" x2="106.49" y1="557.71" y2="556.1"/>
<line class="st3" id="_x3C_Line_x3E_176" x1="102.19" x2="108.58" y1="565.7" y2="563.87"/>
<line class="st3" id="_x3C_Line_x3E_177" x1="103.37" x2="109.72" y1="569.67" y2="567.72"/>
<line class="st3" id="_x3C_Line_x3E_178" x1="104.61" x2="110.93" y1="573.61" y2="571.56"/>
<line class="st3" id="_x3C_Line_x3E_179" x1="105.92" x2="112.2" y1="577.54" y2="575.37"/>
<line class="st3" id="_x3C_Line_x3E_180" x1="108.75" x2="114.96" y1="585.31" y2="582.93"/>
<line class="st3" id="_x3C_Line_x3E_181" x1="110.27" x2="116.43" y1="589.16" y2="586.67"/>
<line class="st3" id="_x3C_Line_x3E_182" x1="111.85" x2="117.97" y1="592.98" y2="590.39"/>
<line class="st3" id="_x3C_Line_x3E_183" x1="113.5" x2="119.57" y1="596.78" y2="594.07"/>
<line class="st3" id="_x3C_Line_x3E_184" x1="117" x2="122.97" y1="604.28" y2="601.36"/>
<line class="st3" id="_x3C_Line_x3E_185" x1="118.85" x2="124.77" y1="607.98" y2="604.96"/>
<line class="st3" id="_x3C_Line_x3E_186" x1="120.76" x2="126.62" y1="611.65" y2="608.53"/>
<line class="st3" id="_x3C_Line_x3E_187" x1="122.73" x2="128.54" y1="615.29" y2="612.06"/>
<line class="st3" id="_x3C_Line_x3E_188" x1="126.87" x2="132.56" y1="622.45" y2="619.03"/>
<line class="st3" id="_x3C_Line_x3E_189" x1="129.03" x2="134.67" y1="625.98" y2="622.46"/>
<line class="st3" id="_x3C_Line_x3E_190" x1="131.26" x2="136.83" y1="629.47" y2="625.85"/>
<line class="st3" id="_x3C_Line_x3E_191" x1="133.54" x2="139.05" y1="632.92" y2="629.2"/>
<line class="st3" id="_x3C_Line_x3E_192" x1="138.29" x2="143.66" y1="639.7" y2="635.79"/>
<line class="st3" id="_x3C_Line_x3E_193" x1="140.75" x2="146.05" y1="643.02" y2="639.02"/>
<line class="st3" id="_x3C_Line_x3E_194" x1="143.27" x2="148.5" y1="646.31" y2="642.22"/>
<line class="st3" id="_x3C_Line_x3E_195" x1="145.84" x2="151" y1="649.54" y2="645.36"/>
<line class="st3" id="_x3C_Line_x3E_196" x1="151.16" x2="156.17" y1="655.88" y2="651.52"/>
<line class="st3" id="_x3C_Line_x3E_197" x1="153.9" x2="158.84" y1="658.98" y2="654.54"/>
<line class="st3" id="_x3C_Line_x3E_198" x1="156.7" x2="161.56" y1="662.03" y2="657.5"/>
<line class="st3" id="_x3C_Line_x3E_199" x1="159.55" x2="164.32" y1="665.03" y2="660.42"/>
<line class="st3" id="_x3C_Line_x3E_200" x1="165.4" x2="170.01" y1="670.88" y2="666.1"/>
<line class="st3" id="_x3C_Line_x3E_201" x1="168.4" x2="172.93" y1="673.73" y2="668.87"/>
<line class="st3" id="_x3C_Line_x3E_202" x1="171.45" x2="175.89" y1="676.53" y2="671.59"/>
<line class="st3" id="_x3C_Line_x3E_203" x1="174.55" x2="178.91" y1="679.27" y2="674.25"/>
<line class="st3" id="_x3C_Line_x3E_204" x1="180.89" x2="185.07" y1="684.59" y2="679.42"/>
<line class="st3" id="_x3C_Line_x3E_205" x1="184.13" x2="188.22" y1="687.16" y2="681.93"/>
<line class="st3" id="_x3C_Line_x3E_206" x1="187.41" x2="191.41" y1="689.68" y2="684.38"/>
<line class="st3" id="_x3C_Line_x3E_207" x1="190.73" x2="194.64" y1="692.15" y2="686.77"/>
<line class="st3" id="_x3C_Line_x3E_208" x1="197.51" x2="201.23" y1="696.89" y2="691.38"/>
<line class="st3" id="_x3C_Line_x3E_209" x1="200.96" x2="204.58" y1="699.17" y2="693.6"/>
<line class="st3" id="_x3C_Line_x3E_210" x1="204.45" x2="207.97" y1="701.4" y2="695.76"/>
<line class="st3" id="_x3C_Line_x3E_211" x1="207.98" x2="211.4" y1="703.56" y2="697.86"/>
<line class="st3" id="_x3C_Line_x3E_212" x1="215.15" x2="218.37" y1="707.7" y2="701.89"/>
<line class="st3" id="_x3C_Line_x3E_213" x1="218.78" x2="221.9" y1="709.67" y2="703.8"/>
<line class="st3" id="_x3C_Line_x3E_214" x1="222.45" x2="225.47" y1="711.58" y2="705.66"/>
<line class="st3" id="_x3C_Line_x3E_215" x1="226.16" x2="229.07" y1="713.43" y2="707.46"/>
<line class="st3" id="_x3C_Line_x3E_216" x1="233.66" x2="236.36" y1="716.92" y2="710.85"/>
<line class="st3" id="_x3C_Line_x3E_217" x1="237.45" x2="240.05" y1="718.57" y2="712.46"/>
<line class="st3" id="_x3C_Line_x3E_218" x1="241.27" x2="243.76" y1="720.16" y2="714"/>
<line class="st3" id="_x3C_Line_x3E_219" x1="245.12" x2="247.51" y1="721.67" y2="715.47"/>
<line class="st3" id="_x3C_Line_x3E_220" x1="252.9" x2="255.06" y1="724.5" y2="718.22"/>
<line class="st3" id="_x3C_Line_x3E_221" x1="256.82" x2="258.88" y1="725.82" y2="719.5"/>
<line class="st3" id="_x3C_Line_x3E_222" x1="260.77" x2="262.71" y1="727.06" y2="720.71"/>
<line class="st3" id="_x3C_Line_x3E_223" x1="264.74" x2="266.57" y1="728.24" y2="721.85"/>
<line class="st3" id="_x3C_Line_x3E_224" x1="272.73" x2="274.34" y1="730.38" y2="723.93"/>
<line class="st3" id="_x3C_Line_x3E_225" x1="276.75" x2="278.25" y1="731.34" y2="724.87"/>
<line class="st3" id="_x3C_Line_x3E_226" x1="280.79" x2="282.18" y1="732.24" y2="725.74"/>
<line class="st3" id="_x3C_Line_x3E_227" x1="284.85" x2="286.12" y1="733.07" y2="726.54"/>
<line class="st3" id="_x3C_Line_x3E_228" x1="293" x2="294.04" y1="734.5" y2="727.94"/>
<line class="st3" id="_x3C_Line_x3E_229" x1="297.09" x2="298.01" y1="735.11" y2="728.53"/>
<line class="st3" id="_x3C_Line_x3E_230" x1="301.19" x2="302" y1="735.65" y2="729.05"/>
<line class="st3" id="_x3C_Line_x3E_231" x1="305.3" x2="306" y1="736.12" y2="729.51"/>
<line class="st3" id="_x3C_Line_x3E_232" x1="313.55" x2="314.01" y1="736.84" y2="730.21"/>
<line class="st3" id="_x3C_Line_x3E_233" x1="317.68" x2="318.03" y1="737.1" y2="730.46"/>
<line class="st3" id="_x3C_Line_x3E_234" x1="321.81" x2="322.04" y1="737.28" y2="730.63"/>
<line class="st3" id="_x3C_Line_x3E_235" x1="325.94" x2="326.06" y1="737.38" y2="730.74"/>
<line class="st3" id="_x3C_Line_x3E_236" x1="334.22" x2="334.11" y1="737.38" y2="730.74"/>
<line class="st3" id="_x3C_Line_x3E_237" x1="338.36" x2="338.13" y1="737.28" y2="730.63"/>
<line class="st3" id="_x3C_Line_x3E_238" x1="342.49" x2="342.14" y1="737.1" y2="730.46"/>
<line class="st3" id="_x3C_Line_x3E_239" x1="346.62" x2="346.16" y1="736.84" y2="730.21"/>
<line class="st3" id="_x3C_Line_x3E_240" x1="354.86" x2="354.17" y1="736.12" y2="729.51"/>
<line class="st3" id="_x3C_Line_x3E_241" x1="358.97" x2="358.17" y1="735.65" y2="729.05"/>
<line class="st3" id="_x3C_Line_x3E_242" x1="363.08" x2="362.15" y1="735.11" y2="728.53"/>
<line class="st3" id="_x3C_Line_x3E_243" x1="367.17" x2="366.13" y1="734.5" y2="727.93"/>
<line class="st3" id="_x3C_Line_x3E_244" x1="375.32" x2="374.05" y1="733.06" y2="726.54"/>
<line class="st3" id="_x3C_Line_x3E_245" x1="379.37" x2="377.99" y1="732.24" y2="725.74"/>
<line class="st3" id="_x3C_Line_x3E_246" x1="383.41" x2="381.92" y1="731.34" y2="724.86"/>
<line class="st3" id="_x3C_Line_x3E_247" x1="387.44" x2="385.83" y1="730.38" y2="723.93"/>
<line class="st3" id="_x3C_Line_x3E_248" x1="395.43" x2="393.6" y1="728.23" y2="721.84"/>
<line class="st3" id="_x3C_Line_x3E_249" x1="399.4" x2="397.45" y1="727.06" y2="720.7"/>
<line class="st3" id="_x3C_Line_x3E_250" x1="403.34" x2="401.29" y1="725.81" y2="719.49"/>
<line class="st3" id="_x3C_Line_x3E_251" x1="407.27" x2="405.1" y1="724.5" y2="718.22"/>
<line class="st3" id="_x3C_Line_x3E_252" x1="415.04" x2="412.66" y1="721.67" y2="715.46"/>
<line class="st3" id="_x3C_Line_x3E_253" x1="418.89" x2="416.4" y1="720.16" y2="713.99"/>
<line class="st3" id="_x3C_Line_x3E_254" x1="422.72" x2="420.12" y1="718.57" y2="712.45"/>
<line class="st3" id="_x3C_Line_x3E_255" x1="426.51" x2="423.81" y1="716.92" y2="710.85"/>
<line class="st3" id="_x3C_Line_x3E_256" x1="434.01" x2="431.1" y1="713.43" y2="707.45"/>
<line class="st3" id="_x3C_Line_x3E_257" x1="437.71" x2="434.69" y1="711.58" y2="705.65"/>
<line class="st3" id="_x3C_Line_x3E_258" x1="441.38" x2="438.26" y1="709.67" y2="703.8"/>
<line class="st3" id="_x3C_Line_x3E_259" x1="445.02" x2="441.79" y1="707.69" y2="701.88"/>
<line class="st3" id="_x3C_Line_x3E_260" x1="452.19" x2="448.76" y1="703.56" y2="697.86"/>
<line class="st3" id="_x3C_Line_x3E_261" x1="455.71" x2="452.19" y1="701.39" y2="695.76"/>
<line class="st3" id="_x3C_Line_x3E_262" x1="459.2" x2="455.58" y1="699.17" y2="693.59"/>
<line class="st3" id="_x3C_Line_x3E_263" x1="462.65" x2="458.94" y1="696.89" y2="691.38"/>
<line class="st3" id="_x3C_Line_x3E_264" x1="469.43" x2="465.52" y1="692.14" y2="686.76"/>
<line class="st3" id="_x3C_Line_x3E_265" x1="472.76" x2="468.75" y1="689.68" y2="684.37"/>
<line class="st3" id="_x3C_Line_x3E_266" x1="476.04" x2="471.94" y1="687.16" y2="681.92"/>
<line class="st3" id="_x3C_Line_x3E_267" x1="479.28" x2="475.09" y1="684.59" y2="679.42"/>
<line class="st3" id="_x3C_Line_x3E_268" x1="485.62" x2="481.25" y1="679.27" y2="674.25"/>
<line class="st3" id="_x3C_Line_x3E_269" x1="488.72" x2="484.27" y1="676.52" y2="671.58"/>
<line class="st3" id="_x3C_Line_x3E_270" x1="491.77" x2="487.23" y1="673.73" y2="668.86"/>
<line class="st3" id="_x3C_Line_x3E_271" x1="494.77" x2="490.15" y1="670.88" y2="666.1"/>
<line class="st3" id="_x3C_Line_x3E_272" x1="500.62" x2="495.83" y1="665.03" y2="660.41"/>
<line class="st3" id="_x3C_Line_x3E_273" x1="503.47" x2="498.6" y1="662.03" y2="657.49"/>
<line class="st3" id="_x3C_Line_x3E_274" x1="506.27" x2="501.32" y1="658.98" y2="654.53"/>
<line class="st3" id="_x3C_Line_x3E_275" x1="509.01" x2="503.98" y1="655.88" y2="651.51"/>
<line class="st3" id="_x3C_Line_x3E_276" x1="514.33" x2="509.15" y1="649.54" y2="645.35"/>
<line class="st3" id="_x3C_Line_x3E_277" x1="516.9" x2="511.66" y1="646.3" y2="642.21"/>
<line class="st3" id="_x3C_Line_x3E_278" x1="519.42" x2="514.11" y1="643.02" y2="639.02"/>
<line class="st3" id="_x3C_Line_x3E_279" x1="521.88" x2="516.5" y1="639.69" y2="635.78"/>
<line class="st3" id="_x3C_Line_x3E_280" x1="526.63" x2="521.11" y1="632.91" y2="629.19"/>
<line class="st3" id="_x3C_Line_x3E_281" x1="528.91" x2="523.33" y1="629.46" y2="625.84"/>
<line class="st3" id="_x3C_Line_x3E_282" x1="531.13" x2="525.49" y1="625.97" y2="622.45"/>
<line class="st3" id="_x3C_Line_x3E_283" x1="533.3" x2="527.59" y1="622.45" y2="619.02"/>
<line class="st3" id="_x3C_Line_x3E_284" x1="537.43" x2="531.62" y1="615.28" y2="612.05"/>
<line class="st3" id="_x3C_Line_x3E_285" x1="539.41" x2="533.54" y1="611.64" y2="608.52"/>
<line class="st3" id="_x3C_Line_x3E_286" x1="541.32" x2="535.39" y1="607.97" y2="604.95"/>
<line class="st3" id="_x3C_Line_x3E_287" x1="543.17" x2="537.19" y1="604.27" y2="601.35"/>
<line class="st3" id="_x3C_Line_x3E_288" x1="546.66" x2="540.59" y1="596.77" y2="594.06"/>
<line class="st3" id="_x3C_Line_x3E_289" x1="548.31" x2="542.19" y1="592.97" y2="590.37"/>
<line class="st3" id="_x3C_Line_x3E_290" x1="549.9" x2="543.73" y1="589.15" y2="586.66"/>
<line class="st3" id="_x3C_Line_x3E_291" x1="551.41" x2="545.2" y1="585.3" y2="582.92"/>
<line class="st3" id="_x3C_Line_x3E_292" x1="554.24" x2="547.95" y1="577.53" y2="575.36"/>
<line class="st3" id="_x3C_Line_x3E_293" x1="555.55" x2="549.23" y1="573.6" y2="571.54"/>
<line class="st3" id="_x3C_Line_x3E_294" x1="556.8" x2="550.44" y1="569.66" y2="567.71"/>
<line class="st3" id="_x3C_Line_x3E_295" x1="557.97" x2="551.58" y1="565.69" y2="563.85"/>
<line class="st3" id="_x3C_Line_x3E_296" x1="560.12" x2="553.66" y1="557.69" y2="556.08"/>
<line class="st3" id="_x3C_Line_x3E_297" x1="561.08" x2="554.6" y1="553.67" y2="552.17"/>
<line class="st3" id="_x3C_Line_x3E_298" x1="561.98" x2="555.47" y1="549.63" y2="548.24"/>
<line class="st3" id="_x3C_Line_x3E_299" x1="562.8" x2="556.27" y1="545.58" y2="544.3"/>
<line class="st3" id="_x3C_Line_x3E_300" x1="564.24" x2="557.67" y1="537.43" y2="536.38"/>
<line class="st3" id="_x3C_Line_x3E_301" x1="564.85" x2="558.26" y1="533.34" y2="532.4"/>
<line class="st3" id="_x3C_Line_x3E_302" x1="565.39" x2="558.79" y1="529.23" y2="528.42"/>
<line class="st3" id="_x3C_Line_x3E_303" x1="565.86" x2="559.24" y1="525.12" y2="524.42"/>
<line class="st3" id="_x3C_Line_x3E_304" x1="566.58" x2="559.94" y1="516.88" y2="516.41"/>
<line class="st3" id="_x3C_Line_x3E_305" x1="566.83" x2="560.19" y1="512.75" y2="512.39"/>
<line class="st3" id="_x3C_Line_x3E_306" x1="567.01" x2="560.36" y1="508.61" y2="508.38"/>
<line class="st3" id="_x3C_Line_x3E_307" x1="567.12" x2="560.47" y1="504.48" y2="504.36"/>
<line class="st3" id="_x3C_Line_x3E_308" x1="567.12" x2="560.47" y1="496.2" y2="496.31"/>
<line class="st3" id="_x3C_Line_x3E_309" x1="567.01" x2="560.36" y1="492.06" y2="492.29"/>
<line class="st3" id="_x3C_Line_x3E_310" x1="566.83" x2="560.19" y1="487.93" y2="488.27"/>
<line class="st3" id="_x3C_Line_x3E_311" x1="566.58" x2="559.94" y1="483.8" y2="484.26"/>
<line class="st3" id="_x3C_Line_x3E_312" x1="565.86" x2="559.24" y1="475.56" y2="476.25"/>
<line class="st3" id="_x3C_Line_x3E_313" x1="565.39" x2="558.79" y1="471.45" y2="472.25"/>
<line class="st3" id="_x3C_Line_x3E_314" x1="564.85" x2="558.26" y1="467.34" y2="468.26"/>
<line class="st3" id="_x3C_Line_x3E_315" x1="564.24" x2="557.67" y1="463.25" y2="464.29"/>
<line class="st3" id="_x3C_Line_x3E_316" x1="563.56" x2="557" y1="459.17" y2="460.32"/>
<line class="st3" id="_x3C_Line_x3E_317" x1="562.8" x2="556.27" y1="455.1" y2="456.37"/>
<line class="st3" id="_x3C_Line_x3E_318" x1="561.98" x2="555.47" y1="451.05" y2="452.43"/>
<line class="st3" id="_x3C_Line_x3E_319" x1="561.08" x2="554.6" y1="447.01" y2="448.5"/>
<line class="st3" id="_x3C_Line_x3E_320" x1="560.12" x2="553.66" y1="442.98" y2="444.59"/>
<line class="st3" id="_x3C_Line_x3E_321" x1="557.97" x2="551.58" y1="434.99" y2="436.82"/>
<line class="st3" id="_x3C_Line_x3E_322" x1="556.8" x2="550.43" y1="431.02" y2="432.96"/>
<line class="st3" id="_x3C_Line_x3E_323" x1="555.55" x2="549.22" y1="427.08" y2="429.13"/>
<line class="st3" id="_x3C_Line_x3E_324" x1="554.24" x2="547.95" y1="423.15" y2="425.31"/>
<line class="st3" id="_x3C_Line_x3E_325" x1="551.41" x2="545.2" y1="415.38" y2="417.76"/>
<line class="st3" id="_x3C_Line_x3E_326" x1="549.9" x2="543.72" y1="411.53" y2="414.01"/>
<line class="st3" id="_x3C_Line_x3E_327" x1="548.31" x2="542.18" y1="407.7" y2="410.3"/>
<line class="st3" id="_x3C_Line_x3E_328" x1="546.66" x2="540.58" y1="403.91" y2="406.61"/>
<line class="st3" id="_x3C_Line_x3E_329" x1="543.16" x2="537.18" y1="396.41" y2="399.32"/>
<line class="st3" id="_x3C_Line_x3E_330" x1="541.32" x2="535.39" y1="392.7" y2="395.72"/>
<line class="st3" id="_x3C_Line_x3E_331" x1="539.41" x2="533.53" y1="389.03" y2="392.16"/>
<line class="st3" id="_x3C_Line_x3E_332" x1="537.43" x2="531.61" y1="385.4" y2="388.62"/>
<line class="st3" id="_x3C_Line_x3E_333" x1="533.3" x2="527.59" y1="378.23" y2="381.66"/>
<line class="st3" id="_x3C_Line_x3E_334" x1="531.13" x2="525.49" y1="374.7" y2="378.23"/>
<line class="st3" id="_x3C_Line_x3E_335" x1="528.91" x2="523.33" y1="371.21" y2="374.84"/>
<line class="st3" id="_x3C_Line_x3E_336" x1="526.63" x2="521.11" y1="367.76" y2="371.48"/>
<line class="st3" id="_x3C_Line_x3E_337" x1="521.88" x2="516.49" y1="360.98" y2="364.89"/>
<line class="st3" id="_x3C_Line_x3E_338" x1="519.42" x2="514.1" y1="357.66" y2="361.66"/>
<line class="st3" id="_x3C_Line_x3E_339" x1="516.9" x2="511.65" y1="354.37" y2="358.47"/>
<line class="st3" id="_x3C_Line_x3E_340" x1="514.32" x2="509.15" y1="351.14" y2="355.32"/>
<line class="st3" id="_x3C_Line_x3E_341" x1="509" x2="503.98" y1="344.8" y2="349.16"/>
<line class="st3" id="_x3C_Line_x3E_342" x1="506.26" x2="501.31" y1="341.7" y2="346.15"/>
<line class="st3" id="_x3C_Line_x3E_343" x1="503.47" x2="498.59" y1="338.65" y2="343.19"/>
<line class="st3" id="_x3C_Line_x3E_344" x1="500.62" x2="495.83" y1="335.65" y2="340.27"/>
<line class="st3" id="_x3C_Line_x3E_345" x1="494.77" x2="490.14" y1="329.79" y2="334.58"/>
<line class="st3" id="_x3C_Line_x3E_346" x1="491.77" x2="487.22" y1="326.94" y2="331.81"/>
<line class="st3" id="_x3C_Line_x3E_347" x1="488.72" x2="484.26" y1="324.15" y2="329.1"/>
<line class="st3" id="_x3C_Line_x3E_348" x1="485.62" x2="481.24" y1="321.41" y2="326.43"/>
<line class="st3" id="_x3C_Line_x3E_349" x1="479.28" x2="475.08" y1="316.09" y2="321.26"/>
<line class="st3" id="_x3C_Line_x3E_350" x1="476.04" x2="471.93" y1="313.51" y2="318.76"/>
<line class="st3" id="_x3C_Line_x3E_351" x1="472.76" x2="468.74" y1="310.99" y2="316.31"/>
<line class="st3" id="_x3C_Line_x3E_352" x1="469.43" x2="465.51" y1="308.53" y2="313.92"/>
<line class="st3" id="_x3C_Line_x3E_353" x1="462.65" x2="458.92" y1="303.78" y2="309.31"/>
<line class="st3" id="_x3C_Line_x3E_354" x1="459.2" x2="455.57" y1="301.5" y2="307.09"/>
<line class="st3" id="_x3C_Line_x3E_355" x1="455.71" x2="452.17" y1="299.28" y2="304.92"/>
<line class="st3" id="_x3C_Line_x3E_356" x1="452.18" x2="448.75" y1="297.12" y2="302.82"/>
<line class="st3" id="_x3C_Line_x3E_357" x1="445.01" x2="441.78" y1="292.98" y2="298.8"/>
<line class="st3" id="_x3C_Line_x3E_358" x1="441.38" x2="438.25" y1="291" y2="296.88"/>
<line class="st3" id="_x3C_Line_x3E_359" x1="437.71" x2="434.68" y1="289.09" y2="295.03"/>
<line class="st3" id="_x3C_Line_x3E_360" x1="434" x2="431.08" y1="287.25" y2="293.23"/>
<line class="st3" id="_x3C_Line_x3E_361" x1="426.5" x2="423.79" y1="283.75" y2="289.83"/>
<line class="st3" id="_x3C_Line_x3E_362" x1="422.71" x2="420.1" y1="282.1" y2="288.23"/>
<line class="st3" id="_x3C_Line_x3E_363" x1="418.88" x2="416.39" y1="280.52" y2="286.69"/>
<line class="st3" id="_x3C_Line_x3E_364" x1="415.04" x2="412.64" y1="279" y2="285.22"/>
<line class="st3" id="_x3C_Line_x3E_365" x1="407.26" x2="405.09" y1="276.17" y2="282.47"/>
<line class="st3" id="_x3C_Line_x3E_366" x1="403.34" x2="401.27" y1="274.86" y2="281.19"/>
<line class="st3" id="_x3C_Line_x3E_367" x1="399.39" x2="397.44" y1="273.61" y2="279.98"/>
<line class="st3" id="_x3C_Line_x3E_368" x1="395.42" x2="393.58" y1="272.44" y2="278.84"/>
<line class="st3" id="_x3C_Line_x3E_369" x1="387.43" x2="385.81" y1="270.3" y2="276.76"/>
<line class="st3" id="_x3C_Line_x3E_370" x1="383.4" x2="381.9" y1="269.33" y2="275.82"/>
<line class="st3" id="_x3C_Line_x3E_371" x1="379.36" x2="377.97" y1="268.43" y2="274.95"/>
<line class="st3" id="_x3C_Line_x3E_372" x1="375.31" x2="374.03" y1="267.61" y2="274.15"/>
<line class="st3" id="_x3C_Line_x3E_373" x1="367.16" x2="366.11" y1="266.17" y2="272.75"/>
<line class="st3" id="_x3C_Line_x3E_374" x1="363.07" x2="362.13" y1="265.56" y2="272.16"/>
<line class="st3" id="_x3C_Line_x3E_375" x1="358.96" x2="358.15" y1="265.02" y2="271.63"/>
<line class="st3" id="_x3C_Line_x3E_376" x1="354.85" x2="354.15" y1="264.55" y2="271.18"/>
<line class="st3" id="_x3C_Line_x3E_377" x1="346.61" x2="346.14" y1="263.83" y2="270.48"/>
<line class="st3" id="_x3C_Line_x3E_378" x1="342.48" x2="342.12" y1="263.58" y2="270.23"/>
<line class="st3" id="_x3C_Line_x3E_379" x1="338.35" x2="338.11" y1="263.4" y2="270.06"/>
<line class="st3" id="_x3C_Line_x3E_380" x1="334.21" x2="334.09" y1="263.29" y2="269.95"/>
</g>
</g>
<g id="compass-cardinal-directions">
<g id="West">
<path class="st14" d="M135.28,489.97h-16.61c-1.05,0-1.9.85-1.9,1.9v16.59c0,1.04.85,1.9,1.9,1.9h16.61c1.05,0,1.9-.85,1.9-1.9v-16.59c0-1.05-.85-1.9-1.9-1.9ZM133.11,497.31c0,.22-.14.41-.35.46l-8.22,2.38,8.22,2.38c.21.06.35.25.35.46v1.49c0,.22-.14.4-.35.47l-11.29,3.28s-.09.02-.14.02c-.1,0-.2-.03-.29-.1-.12-.09-.19-.24-.19-.39v-1.66c0-.22.15-.41.36-.47l7.48-1.92-7.49-2.18c-.21-.06-.35-.25-.35-.47v-1.86c0-.21.14-.4.35-.46l7.49-2.18-7.48-1.92c-.22-.05-.36-.25-.36-.47v-1.66c0-.15.07-.29.19-.39.12-.09.28-.12.42-.08l11.29,3.28c.21.06.35.25.35.46v1.49h0v.04Z"/>
<path class="st14" d="M114.54,495.6l-8.51,4.92c-.3.17-.3.66,0,.84l8.51,4.92c.15.09.33.09.48,0s.24-.25.24-.42v-9.84c0-.17-.09-.33-.24-.42-.15-.09-.33-.09-.48,0Z"/>
</g>
<g id="South">
<path class="st14" d="M337.71,693.71h-16.59c-1.05,0-1.9.85-1.9,1.9v16.61c0,1.05.85,1.9,1.9,1.9h16.59c1.04,0,1.9-.85,1.9-1.9v-16.61c0-1.05-.85-1.9-1.9-1.9ZM334.47,702.24c-.1.09-.22.15-.35.15h-1.51c-.25,0-.46-.2-.48-.44-.03-.35-.12-.65-.27-.9s-.35-.45-.6-.62c-.26-.17-.57-.3-.93-.39-.7-.17-1.58-.17-2.26-.02-.3.07-.56.18-.78.31-.19.12-.34.27-.45.45-.1.16-.14.35-.14.56s.04.4.12.54c.09.15.24.28.45.4.26.15.61.28,1.03.39.46.13,1.03.26,1.7.39.71.14,1.33.31,1.84.51.52.21.96.45,1.31.73.36.3.62.64.79,1.04.16.38.24.81.24,1.28,0,.53-.12,1.03-.35,1.48-.23.45-.56.84-.98,1.16-.41.31-.91.56-1.48.72-.57.17-1.2.26-1.88.26s-1.34-.09-1.93-.25c-.61-.16-1.14-.41-1.57-.73-.45-.32-.81-.74-1.07-1.22-.27-.49-.4-1.05-.42-1.66,0-.14.05-.26.14-.35.09-.09.22-.14.35-.14h1.53c.25,0,.45.18.48.43.07.7.41,1.63,2.43,1.63.8,0,1.39-.13,1.78-.39.34-.22.49-.49.49-.84,0-.17-.02-.31-.07-.41-.04-.09-.12-.17-.24-.25-.17-.11-.41-.21-.72-.31-.34-.1-.78-.21-1.31-.32-.55-.12-1.03-.24-1.45-.34-.42-.11-.79-.22-1.11-.32-.32-.11-.63-.26-.93-.44-.31-.19-.59-.42-.83-.69-.25-.27-.45-.59-.6-.96s-.23-.77-.23-1.22c0-.57.13-1.1.38-1.57.25-.47.6-.89,1.04-1.23.43-.34.95-.6,1.54-.79.58-.18,1.22-.27,1.91-.27.89,0,1.68.1,2.35.3.68.21,1.27.51,1.73.89.47.39.83.86,1.07,1.4.24.52.36,1.1.38,1.7,0,.13-.05.26-.13.35h0Z"/>
<path class="st14" d="M324.85,716.36l4.92,8.51c.17.3.66.3.84,0l4.92-8.51c.09-.15.09-.33,0-.48-.09-.15-.25-.24-.42-.24h-9.84c-.17,0-.33.09-.42.24-.09.15-.09.33,0,.48Z"/>
</g>
<g id="East">
<path class="st14" d="M541.22,490.58h-16.6c-1.04,0-1.9.85-1.9,1.9v16.59c0,1.05.85,1.9,1.9,1.9h16.6c1.05,0,1.9-.85,1.9-1.9v-16.59c0-1.04-.85-1.9-1.9-1.9ZM539.05,504.89c0,.27-.21.49-.48.49h-1.33c-.27,0-.48-.22-.48-.49v-6.5h-2.48v6.03c0,.27-.21.48-.48.48h-1.35c-.27,0-.48-.21-.48-.48v-6.03h-2.85v6.78c0,.27-.21.48-.48.48h-1.35c-.26,0-.48-.21-.48-.48v-8.8c0-.27.22-.48.48-.48h11.29c.27,0,.48.22.48.48v8.52h-.01Z"/>
<path class="st14" d="M545.6,506.04l8.51-4.92c.3-.17.3-.66,0-.84l-8.51-4.92c-.15-.09-.33-.09-.48,0-.15.09-.24.25-.24.42v9.83c0,.17.09.34.24.42.15.09.33.09.48,0h0Z"/>
</g>
<g id="North">
<path class="st0" d="M338.56,287.52h-16.61c-1.04,0-1.9.85-1.9,1.9v16.59c0,1.05.85,1.9,1.9,1.9h16.61c1.05,0,1.9-.85,1.9-1.9v-16.59c0-1.04-.85-1.9-1.9-1.9ZM335.36,303.35c0,.27-.21.48-.48.48h-1.61c-.16,0-.3-.08-.4-.21l-5.31-7.64v7.37c0,.27-.22.48-.49.48h-1.46c-.27,0-.49-.22-.49-.48v-11.28c0-.27.22-.48.49-.48h1.58c.16,0,.31.08.4.21l5.32,7.64v-7.36c0-.27.22-.48.49-.48h1.48c.27,0,.48.22.48.48v11.28h0Z"/>
<path class="st0" d="M335.29,285.29l-4.92-8.51c-.17-.3-.66-.3-.84,0l-4.92,8.51c-.09.15-.09.33,0,.48.09.15.25.24.42.24h9.84c.17,0,.33-.09.42-.24.09-.15.09-.33,0-.48Z"/>
</g>
</g>
<g id="compass-half-winds">
<g id="Half_Wind">
<path class="st14" d="M249.11,324.56c.03.06.03.13,0,.18-.02.06-.06.11-.12.14l-.88.42c-.07.04-.16.03-.22,0l-5.06-2.88,2.01,4.19c.06.12,0,.27-.12.32l-.8.38s-.07.02-.11.02c-.03,0-.05,0-.08-.01-.06-.02-.11-.06-.14-.13l-2.96-6.18c-.03-.06-.03-.13,0-.18.02-.06.07-.11.12-.14l.87-.41c.07-.03.16-.03.22,0l5.06,2.87-2.01-4.19c-.03-.06-.03-.13,0-.18.02-.06.06-.11.13-.14l.81-.39c.12-.06.26,0,.32.12l2.96,6.19h0ZM255.08,314.48c-.02-.06-.07-.11-.13-.13-.06-.02-.12-.02-.18,0l-.82.36c-.12.06-.18.2-.13.32l1.85,4.26-4.95-3.06c-.06-.04-.15-.05-.22-.02l-.88.38c-.06.02-.11.08-.13.13-.02.06-.02.13,0,.19l2.73,6.29c.04.09.13.15.22.15.03,0,.06,0,.09-.02l.82-.35c.06-.02.1-.07.13-.13s.03-.12,0-.18l-1.84-4.26,4.95,3.07c.07.04.15.05.22.02l.9-.39c.06-.02.1-.07.13-.13s.02-.12,0-.18l-2.73-6.29-.03-.03ZM267.13,310.12c0-.07-.04-.15-.11-.19-.06-.04-.14-.05-.21-.02l-.95.34c-.1.04-.17.14-.16.25l.46,4.86-2.9-3.99c-.06-.09-.18-.12-.28-.09l-1.07.38c-.1.04-.17.14-.16.24l.31,4.92-2.75-4.03c-.06-.09-.18-.13-.28-.09l-.95.34c-.07.03-.13.09-.15.16s0,.15.04.21l4.2,5.78c.05.06.12.1.2.1.03,0,.05,0,.08-.01l.86-.3c.1-.04.16-.14.16-.24l-.33-5.37,3.15,4.36c.07.09.18.12.28.09l.85-.31c.1-.04.17-.14.16-.24l-.44-7.13v-.02Z"/>
<path class="st14" d="M253.29,310.56l-1.54-1.78-1.54-1.79c-.07-.08-.18-.1-.27-.06h0c-.1.04-.16.14-.15.24l.18,2.35.18,2.35c0,.08.05.15.12.19.06.04.14.05.22.02h0l1.35-.57,1.35-.56c.07-.03.13-.09.14-.17.02-.08,0-.15-.05-.22h0Z" id="Triangle"/>
</g>
<g id="Half_Wind1">
<path class="st14" d="M191.25,365.49s.08.11.08.17-.02.13-.07.17l-.67.71c-.06.06-.14.08-.21.07l-5.76-.86,3.38,3.18c.1.09.1.25,0,.34l-.61.65s-.11.07-.17.07h0c-.06,0-.12-.02-.17-.06l-4.99-4.7s-.08-.11-.08-.17c0-.07.02-.13.06-.17l.66-.7c.05-.06.13-.09.21-.07l5.76.86-3.38-3.18c-.1-.09-.1-.24,0-.34l.61-.66c.09-.1.24-.1.34-.01l4.99,4.7h.02ZM198.74,358.28l-3.29-6.34c-.04-.07-.1-.11-.18-.12-.08-.02-.15.01-.21.06l-.73.7c-.08.07-.1.2-.04.29l2.38,4.26-4.26-2.47c-.09-.06-.21-.04-.29.03l-.82.78c-.08.07-.1.19-.05.28l2.27,4.38-4.14-2.58c-.09-.06-.21-.04-.29.03l-.73.7c-.05.05-.08.13-.08.2,0,.07.06.14.12.18l6.18,3.59s.08.03.12.03c.06,0,.12-.02.17-.07l.66-.63c.08-.07.09-.19.05-.28l-2.48-4.77,4.65,2.71c.09.05.21.04.29-.03l.65-.63c.08-.07.1-.19.05-.28v-.02Z"/>
<path class="st14" d="M186.51,354.39l-2.11-1.06-2.11-1.06c-.09-.05-.21-.03-.28.04h0c-.07.08-.09.19-.04.28l1.07,2.1,1.07,2.1c.04.07.1.12.18.13.08.01.15-.01.21-.07h0l1.04-1.04,1.03-1.04c.06-.06.08-.13.07-.21,0-.07-.06-.14-.13-.18h0Z" id="Triangle1"/>
</g>
<g id="Half_Wind2">
<path class="st14" d="M148.52,433.49c.09.06.12.18.09.28l-.3.85c-.04.1-.13.18-.24.16l-5.37-.31,4.37,3.13c.09.06.13.18.09.28l-.3.86c-.03.1-.13.16-.23.16h0l-7.13-.4c-.07,0-.15-.05-.19-.11-.04-.06-.05-.14-.03-.21l.34-.95c.04-.11.14-.17.25-.16l4.86.42-4.01-2.87c-.09-.06-.12-.18-.09-.28l.38-1.07c.04-.1.13-.17.24-.16l4.92.28-4.05-2.72c-.09-.06-.13-.18-.1-.28l.34-.95c.02-.07.09-.13.16-.15s.15-.01.21.03l5.81,4.16h0ZM152.4,423.48l-6.38-2.52c-.06-.02-.13-.02-.18,0-.06.02-.11.07-.13.13l-.33.84c-.05.12,0,.26.14.31l4.32,1.71-5.67,1.34c-.08.02-.14.07-.17.14l-.35.89c-.02.06-.02.13,0,.18.02.06.07.11.13.13l6.38,2.52s.06.02.09.02.06,0,.1-.02c.06-.02.1-.07.13-.13l.33-.83c.05-.13,0-.26-.14-.31l-4.32-1.71,5.67-1.33c.08-.02.14-.07.17-.15l.36-.91c.05-.12,0-.27-.14-.31h-.01ZM156.88,414.11l-5.32-4.76c-.06-.05-.14-.07-.21-.06-.08.02-.14.06-.17.13l-.43.91c-.05.1-.02.22.06.29l3.74,3.14-4.86-.8c-.11-.02-.21.04-.26.14l-.49,1.02c-.05.1-.02.22.06.29l3.68,3.28-4.79-.94c-.1-.02-.22.04-.27.13l-.43.91c-.03.07-.03.15,0,.22s.1.12.18.13l7.05,1.16h.04c.09,0,.18-.05.22-.14l.39-.82c.05-.1.02-.21-.06-.29l-4.01-3.58,5.3.88c.11.02.21-.04.26-.14l.39-.81c.05-.1.02-.21-.06-.29h0Z"/>
<path class="st14" d="M141.58,420.44l-2.35-.17-2.35-.18c-.1,0-.2.05-.24.15h0c-.04.1,0,.21.07.28l1.8,1.53,1.79,1.54c.06.05.14.07.21.05.08-.02.14-.07.17-.14h0l.56-1.36.56-1.36c.03-.07.02-.15-.02-.22-.04-.07-.11-.11-.19-.12h0Z" id="Triangle2"/>
</g>
<g id="Half_Wind3">
<path class="st14" d="M156.77,586.36l-5.34,4.75s-.1.06-.16.06h-.05c-.07-.02-.14-.06-.17-.13l-.43-.91c-.05-.1-.02-.22.06-.29l3.74-3.13-4.86.79c-.11.02-.21-.04-.26-.14l-.49-1.02c-.05-.1-.02-.22.06-.29l3.68-3.28-4.78.94c-.11.02-.22-.03-.27-.14l-.43-.91c-.03-.07-.03-.15,0-.22.04-.07.1-.11.18-.12l7.05-1.15c.11-.02.21.04.26.13l.39.81c.05.1.02.22-.06.29l-4.02,3.58,5.31-.88c.11-.02.21.04.26.14l.39.82c.05.1.02.21-.06.29h0ZM148.42,578.66c.18-.18.3-.4.38-.66.07-.25.11-.55.09-.89,0-.33-.07-.72-.16-1.14-.08-.41-.15-.75-.19-1.05-.04-.27-.05-.5-.03-.68.02-.16.06-.29.12-.37.07-.09.16-.17.3-.22.13-.05.26-.07.37-.06.14.02.26.07.38.15.13.09.25.21.37.37.12.17.23.36.33.58.1.24.18.48.22.71.04.22.04.43,0,.62-.03.19-.1.35-.21.51-.11.15-.26.27-.46.39-.11.06-.15.19-.1.3l.36.84c.03.06.07.1.13.13.06.02.13.02.19,0,.33-.15.62-.36.85-.61.24-.25.41-.56.51-.91.1-.34.12-.73.07-1.16-.05-.42-.18-.88-.39-1.37-.16-.38-.37-.71-.61-.98-.25-.28-.51-.5-.79-.66-.29-.16-.6-.25-.91-.28-.32-.02-.64.03-.95.17-.24.1-.44.24-.61.41-.16.16-.28.35-.38.55-.09.2-.14.4-.17.61-.03.2-.04.41-.02.61.02.2.05.44.09.69.04.26.09.56.16.89.07.32.11.59.14.81.02.2.02.36,0,.49-.02.1-.05.18-.09.23-.05.06-.13.11-.23.15-.21.09-.41.07-.64-.08-.25-.16-.47-.47-.67-.93-.51-1.17-.04-1.59.35-1.81.11-.07.15-.2.1-.31l-.37-.85c-.03-.07-.07-.11-.13-.14-.06-.02-.13-.02-.19,0-.34.16-.61.36-.81.62s-.34.55-.41.87c-.07.31-.08.66-.03,1.04.05.37.16.74.33,1.13.16.38.36.7.59.97.23.27.48.49.75.64.27.16.56.25.86.26h.12c.26,0,.52-.05.76-.17.25-.11.47-.25.64-.43v.02ZM148.71,567.22l-.3-.85c-.04-.11-.13-.16-.24-.17l-5.37.31,4.37-3.13c.09-.06.12-.18.09-.28l-.3-.85c-.04-.1-.14-.16-.24-.17l-7.13.41c-.08,0-.15.05-.19.11-.05.06-.06.14-.03.21l.34.95c.04.1.13.17.25.16l4.86-.43-4,2.88c-.09.06-.12.17-.09.27l.38,1.07c.04.11.14.17.24.17l4.92-.29-4.05,2.72c-.09.06-.13.18-.09.28l.34.95c.02.08.08.13.16.15.02,0,.05.01.07.01.05,0,.1-.02.14-.04l5.8-4.17c.09-.06.13-.18.09-.28h-.02Z"/>
<path class="st14" d="M140.28,577.13l-1.78,1.54-1.79,1.54c-.08.07-.1.18-.07.28h0c.04.1.14.16.24.15l2.35-.18,2.35-.18c.08,0,.15-.06.19-.12s.05-.14.02-.22h0l-.57-1.36-.56-1.36c-.03-.07-.09-.12-.17-.14s-.15,0-.22.05h0Z" id="Triangle3"/>
</g>
<g id="Half_Wind4">
<path class="st14" d="M198.74,644.12c-.11.32-.29.62-.54.89-.04.05-.11.08-.17.08s-.13-.02-.18-.06l-.66-.63c-.09-.08-.1-.22-.03-.33.14-.17.23-.34.27-.53.04-.18.04-.37,0-.54-.05-.2-.13-.38-.26-.57-.13-.19-.29-.39-.48-.57-.17-.17-.35-.3-.53-.4-.17-.1-.33-.17-.49-.19-.14-.02-.28-.02-.41.01-.12.03-.23.1-.32.2-.1.1-.16.21-.18.31-.02.11,0,.24.04.39.05.18.16.38.3.62.15.25.35.54.59.88.25.35.46.69.6.99.14.31.24.6.27.85.03.27,0,.53-.08.76-.09.23-.22.44-.42.65-.21.23-.47.39-.75.49-.21.08-.43.12-.66.12-.08,0-.16,0-.24-.01-.31-.04-.62-.14-.94-.29-.32-.16-.63-.38-.92-.66-.3-.28-.55-.58-.74-.9-.2-.32-.32-.65-.38-.97-.06-.33-.05-.65.04-.96.09-.32.25-.62.5-.89.04-.05.1-.07.17-.08.06,0,.13.02.18.06l.67.64c.09.08.1.22.03.32-.27.36-.52.93.4,1.8.36.34.69.54.98.58.26.04.46-.01.61-.18.07-.09.13-.16.15-.23.02-.06.02-.14,0-.24-.03-.12-.1-.27-.2-.45-.11-.18-.26-.42-.45-.69s-.36-.53-.5-.75-.26-.42-.36-.59c-.1-.19-.17-.38-.22-.58-.06-.2-.08-.42-.08-.63s.05-.44.13-.65c.08-.22.22-.42.4-.62.23-.25.5-.42.8-.52.3-.11.61-.15.95-.11.33.04.66.13.99.29s.65.38.95.66c.39.37.69.74.9,1.1.21.37.34.74.39,1.1s0,.71-.11,1.04h0ZM192.12,635.74l-.63-.65c-.07-.08-.19-.1-.28-.05l-4.77,2.49,2.7-4.65c.05-.09.04-.21-.03-.29l-.63-.66c-.07-.08-.19-.1-.28-.05l-6.34,3.3c-.07.03-.11.1-.13.17,0,.08,0,.16.06.21l.7.73c.07.08.2.1.29.04l4.26-2.38-2.47,4.26c-.06.09-.04.21.03.29l.78.82c.07.08.19.1.29.05l4.37-2.27-2.58,4.15c-.06.09-.04.21.03.3l.7.73s.11.07.18.07h.03c.07,0,.14-.05.18-.12l3.58-6.18c.05-.09.04-.21-.03-.29v-.02Z"/>
<path class="st14" d="M184.11,643.91l-1.06,2.11-1.06,2.1c-.05.09-.03.21.04.28h0c.08.07.19.09.28.04l2.1-1.07,2.1-1.07c.07-.03.12-.1.13-.17s0-.16-.07-.21h0l-1.04-1.03-1.04-1.04c-.06-.05-.13-.08-.21-.06-.08.01-.14.06-.18.13h0Z" id="Triangle4"/>
</g>
<g id="Half_Wind5">
<path class="st14" d="M267.97,684.92c.03.34-.02.69-.13,1.03-.02.06-.07.12-.12.15-.06.03-.13.03-.19.01l-.86-.31c-.12-.04-.18-.17-.15-.29.06-.21.06-.42.03-.59-.04-.19-.11-.35-.23-.5-.12-.15-.28-.3-.46-.42-.2-.13-.42-.24-.67-.33-.22-.08-.44-.13-.64-.15-.19-.02-.37-.01-.52.02-.14.03-.26.09-.37.17-.09.08-.17.18-.21.31-.05.14-.06.26-.04.37s.08.23.19.34c.12.14.3.29.52.44.24.17.54.36.9.58.38.22.69.44.94.65.25.22.45.45.59.67.14.24.22.49.23.73s-.03.5-.12.76c-.1.3-.27.55-.48.76-.22.21-.48.36-.78.45-.25.08-.52.12-.81.12h-.16c-.35-.02-.72-.1-1.11-.24-.39-.14-.74-.32-1.04-.52-.31-.22-.55-.46-.74-.73-.19-.27-.31-.58-.36-.9s-.02-.66.1-1.01c.02-.06.06-.12.12-.15s.13-.03.19-.01l.88.31c.12.04.18.17.16.29-.11.44-.11,1.07,1.09,1.49.46.16.85.21,1.13.13.26-.06.41-.19.49-.41.04-.1.05-.19.04-.28,0-.06-.04-.14-.1-.21-.08-.1-.2-.21-.36-.33-.17-.13-.4-.28-.69-.45-.29-.18-.54-.34-.76-.49-.22-.15-.41-.28-.57-.41-.16-.13-.3-.27-.44-.43-.13-.16-.24-.35-.33-.54-.08-.21-.13-.42-.15-.66-.01-.24.03-.48.12-.73.11-.32.29-.58.52-.81.23-.22.51-.38.82-.48.28-.1.58-.14.91-.14h.11c.37.01.75.1,1.14.23.5.18.93.4,1.27.65.35.25.62.54.8.84.19.31.29.65.32.99l-.02.03ZM258.5,679.95c-.33-.26-.75-.49-1.25-.69-.38-.15-.76-.24-1.13-.27-.37-.02-.71,0-1.03.1-.32.09-.6.25-.84.45-.24.21-.43.48-.55.79-.1.25-.14.49-.14.72s.04.45.12.66c.07.2.18.38.3.56.13.16.26.31.42.45.15.13.34.26.55.42.21.15.46.33.74.51.28.19.51.35.67.48s.27.24.35.34c.06.09.09.16.09.22,0,.08-.01.17-.05.27-.08.21-.24.34-.51.4-.29.06-.67,0-1.13-.18-1.18-.46-1.16-1.1-1.04-1.53.03-.12-.03-.24-.15-.29l-.86-.33c-.06-.03-.13-.03-.18,0-.06.03-.11.07-.13.13-.13.34-.17.68-.13,1.01.04.32.15.62.32.91.17.27.41.52.71.75.29.22.64.41,1.03.56.38.15.75.24,1.1.27.09,0,.19.01.28.01.25,0,.49-.03.7-.09.3-.08.57-.23.8-.42.23-.2.4-.45.51-.74.1-.26.15-.51.15-.75s-.08-.5-.21-.74c-.13-.23-.32-.46-.57-.69-.24-.22-.55-.46-.92-.69-.35-.22-.64-.43-.88-.6-.22-.17-.39-.32-.5-.47-.1-.12-.16-.24-.18-.34-.02-.11,0-.23.05-.37.05-.13.13-.23.22-.31.11-.08.23-.14.38-.17.16-.03.33-.03.53,0s.41.09.64.18c.24.09.47.21.66.35.18.13.33.27.45.44.11.15.18.32.21.5s.01.38-.05.6c-.04.12.03.24.14.3l.85.33c.06.03.13.03.19,0s.11-.08.13-.14c.12-.34.18-.69.17-1.03-.01-.35-.11-.68-.29-1-.17-.32-.43-.61-.77-.88h.03ZM250.38,676.45l-.82-.39c-.1-.04-.21-.02-.29.06l-3.55,4.05.84-5.31c.02-.1-.04-.22-.14-.26l-.82-.38c-.1-.04-.21-.02-.29.06l-4.72,5.37c-.05.06-.07.13-.05.2s.06.14.14.18l.91.43c.1.05.22.02.29-.06l3.1-3.77-.76,4.86c-.02.11.04.21.13.26l1.03.48c.1.05.21.02.28-.06l3.25-3.7-.9,4.8c-.02.11.03.22.13.27l.91.43s.07.02.1.02c.04,0,.08,0,.11-.03.07-.04.11-.1.13-.18l1.1-7.05c.02-.11-.04-.22-.14-.26l.03-.02Z"/>
<path class="st14" d="M250.15,688.85l-.17,2.35-.18,2.35c0,.11.05.2.15.24h0c.1.04.21.01.28-.07l1.53-1.8,1.53-1.8c.05-.06.07-.14.05-.21s-.07-.14-.14-.17h0l-1.36-.55-1.36-.56c-.07-.03-.15-.02-.22.02-.07.05-.11.12-.12.19h0Z" id="Triangle5"/>
</g>
<g id="Half_Wind6">
<path class="st14" d="M417.23,679.79c-.01.3-.1.6-.24.87-.14.27-.35.53-.62.77-.26.24-.58.44-.95.62-.38.17-.75.3-1.12.36-.19.03-.37.05-.53.05s-.34-.02-.5-.05c-.32-.06-.61-.2-.88-.39-.27-.2-.48-.46-.64-.79-.03-.06-.03-.13-.01-.19s.06-.11.12-.14l.85-.39c.11-.05.24-.01.31.09.37.62.96.7,1.82.29.45-.21.75-.44.91-.7.13-.23.15-.43.06-.64-.04-.1-.1-.17-.17-.22-.05-.04-.12-.07-.22-.08-.13-.03-.3-.02-.49.02-.22.03-.49.08-.82.16-.33.07-.62.13-.88.18s-.49.09-.69.12c-.21.02-.41.02-.61,0-.22-.02-.42-.08-.62-.16-.21-.08-.39-.2-.56-.36-.18-.15-.32-.36-.43-.59-.14-.3-.2-.62-.19-.94.02-.32.1-.62.25-.92.14-.29.36-.57.63-.81.27-.25.6-.46.97-.64.48-.23.94-.37,1.35-.43.43-.06.82-.05,1.16.04.35.09.67.26.93.48.26.23.47.51.64.83.03.06.03.13.01.19s-.07.11-.13.14l-.83.39c-.11.06-.25.01-.31-.1-.11-.19-.24-.34-.39-.44-.15-.1-.32-.17-.51-.2-.2-.03-.4-.02-.63.03-.22.05-.46.13-.71.24-.21.1-.41.22-.56.34-.16.12-.28.25-.36.38-.08.12-.12.26-.14.38-.01.12,0,.25.07.37.06.13.13.23.22.29.1.06.22.1.38.11.18.01.41,0,.68-.05.29-.05.64-.12,1.04-.22.42-.1.81-.17,1.13-.19.34-.03.64,0,.89.06.27.07.5.19.68.36.18.16.33.38.44.63.14.27.2.57.19.88v-.03ZM408.38,682c-.18-.18-.4-.3-.66-.38-.22-.06-.47-.09-.74-.09h-.15c-.33.02-.71.07-1.14.16-.41.08-.75.15-1.05.19-.27.04-.5.06-.68.04-.16-.02-.29-.06-.37-.13-.09-.06-.17-.16-.22-.29-.06-.13-.07-.25-.06-.38.02-.13.07-.26.15-.38.09-.13.22-.26.37-.38.17-.12.36-.23.58-.32.24-.11.48-.18.71-.22.22-.04.43-.04.62,0,.19.03.35.1.51.21.15.1.27.25.38.45.06.11.19.15.3.11l.84-.36c.06-.03.1-.07.13-.13.02-.06.02-.13,0-.19-.15-.33-.36-.61-.61-.85s-.56-.41-.91-.5c-.34-.1-.73-.13-1.16-.08-.42.05-.88.18-1.38.39-.38.17-.71.37-.98.61-.28.24-.5.5-.66.79s-.25.6-.28.92c-.02.31.03.63.17.94.1.24.24.44.41.61.16.16.35.29.55.38.2.09.4.14.61.17.2.03.4.04.61.02.2-.02.44-.05.69-.09.26-.04.56-.09.9-.16.31-.07.59-.12.81-.14.19-.02.36-.02.49,0,.1.02.18.04.23.1.06.05.11.13.15.23.09.21.07.41-.07.64-.17.24-.47.47-.93.67-.87.38-1.46.27-1.81-.35-.07-.11-.2-.16-.31-.11l-.85.37c-.07.03-.11.08-.13.14s-.02.13,0,.18c.16.33.36.61.62.81s.55.34.87.41c.18.05.38.07.58.07.14,0,.29-.01.46-.03.36-.06.74-.17,1.13-.33.37-.17.7-.36.97-.59.28-.23.49-.48.64-.75.16-.27.25-.56.26-.86.02-.3-.03-.6-.16-.89-.11-.25-.25-.47-.43-.63h0ZM398.33,681.27c-.06-.03-.13-.03-.19,0l-5.03,1.83c-.06.02-.11.07-.13.12-.03.06-.04.12-.02.18l.28.78c.05.12.19.18.31.14l3.92-1.42.63,1.72-3.5,1.27c-.06.02-.11.07-.14.12-.03.07-.03.13,0,.19l.28.77c.05.12.19.19.31.14l3.5-1.27.55,1.51-3.77,1.37c-.06.02-.11.07-.14.12-.03.06-.03.12,0,.18l.28.76c.04.1.13.16.23.16.03,0,.05,0,.08-.01l4.88-1.77c.12-.04.19-.18.14-.31l-2.33-6.45c-.02-.06-.06-.11-.12-.13h-.02Z"/>
<path class="st14" d="M406.84,690.14l1.54,1.79,1.54,1.79c.07.08.18.1.28.06h0c.1-.04.16-.14.15-.25l-.18-2.35-.18-2.35c0-.08-.05-.15-.12-.19-.06-.04-.14-.05-.22-.02h0l-1.36.57-1.36.56c-.07.03-.12.1-.14.17-.02.07,0,.15.05.21h0Z" id="Triangle6"/>
</g>
<g id="Half_Wind7">
<path class="st14" d="M476.26,637.08c-.04.31-.13.62-.3.93-.16.32-.39.63-.67.92-.28.3-.59.54-.9.74-.32.19-.65.32-.97.38-.13.02-.26.03-.39.03-.19,0-.39-.03-.57-.08-.32-.09-.62-.26-.88-.51-.06-.04-.08-.1-.08-.17s.02-.13.07-.18l.64-.66c.08-.09.23-.1.32-.02.57.44,1.14.3,1.81-.39.34-.36.54-.69.59-.98.05-.26-.01-.46-.18-.62-.08-.07-.15-.12-.23-.15-.06-.02-.14-.02-.23,0-.13.03-.28.09-.45.19-.19.11-.43.26-.69.45-.29.19-.54.35-.76.49-.23.14-.42.26-.61.35-.18.09-.38.17-.57.22-.19.06-.38.08-.59.08-.27,0-.49-.06-.7-.14-.21-.08-.42-.22-.61-.4-.24-.23-.42-.5-.52-.81-.1-.3-.13-.62-.1-.94s.13-.66.3-.99c.16-.33.39-.65.66-.95.37-.39.75-.68,1.11-.89.37-.21.74-.34,1.1-.38.37-.04.71,0,1.04.11.32.12.62.3.89.55.05.04.08.1.09.17,0,.06-.02.13-.07.18l-.62.65c-.09.1-.23.1-.33.03-.18-.14-.35-.23-.53-.27-.18-.04-.36-.04-.54,0-.19.04-.38.13-.57.25-.2.13-.4.29-.57.48-.16.17-.3.35-.4.52-.1.17-.17.33-.2.48-.03.15-.03.29,0,.42.04.12.1.22.2.32.1.1.21.17.32.19.11.02.24.01.39-.03.17-.05.38-.16.61-.3.25-.15.55-.35.89-.59.36-.25.7-.45.98-.59.32-.15.6-.23.86-.26.27-.03.53,0,.76.08.22.1.44.24.64.43.23.21.39.47.5.75.1.27.13.58.09.89l-.03.02ZM465.73,638.38s-.1-.07-.17-.07c-.06,0-.13.02-.18.07l-3.87,3.7c-.09.09-.1.25,0,.34l.56.6s.11.07.17.07.12-.02.17-.07l3.02-2.89,1.27,1.32-2.69,2.57c-.1.1-.11.25-.01.34l.57.59s.1.07.17.07.13-.02.18-.07l2.69-2.57,1.11,1.16-2.9,2.77s-.07.11-.07.17.02.12.07.17l.56.59s.11.07.17.07.13-.02.17-.07l3.75-3.59c.09-.09.1-.24,0-.34l-4.75-4.96v.03Z"/>
<path class="st14" d="M473.63,646.31l2.11,1.06,2.1,1.06c.09.05.21.03.28-.04h0c.07-.07.09-.19.04-.28l-1.07-2.1-1.08-2.11c-.03-.07-.1-.11-.17-.12s-.16.01-.21.06h0l-1.03,1.04-1.04,1.04c-.06.05-.08.14-.06.21.01.08.06.14.13.18Z" id="Triangle7"/>
</g>
<g id="Half_Wind8">
<path class="st14" d="M519.62,566.13l-1.77,4.88c-.02.06-.07.11-.12.13-.03.02-.07.02-.11.02-.03,0-.06,0-.08-.01l-.76-.27c-.12-.05-.19-.19-.14-.31l1.36-3.77-1.51-.55-1.27,3.5c-.02.06-.07.11-.12.13-.06.03-.13.03-.19,0l-.77-.28c-.12-.04-.19-.18-.14-.31l1.26-3.5-1.72-.62-1.42,3.92c-.04.12-.19.19-.31.14l-.77-.27c-.06-.02-.11-.07-.13-.13-.03-.06-.03-.12,0-.18l1.82-5.03c.05-.13.19-.19.31-.15l6.45,2.33c.06.02.11.07.14.13s.03.12,0,.18v.02ZM515.37,574.09c-.2-.22-.45-.4-.73-.51-.25-.1-.5-.15-.75-.15h0c-.25,0-.51.08-.74.21s-.47.32-.69.56c-.23.25-.46.56-.69.92-.23.35-.43.64-.61.87-.16.22-.32.39-.46.51-.12.1-.25.16-.35.18-.11.02-.22,0-.36-.05-.13-.05-.23-.13-.31-.23-.08-.11-.13-.23-.16-.38s-.03-.33,0-.52c.03-.21.09-.42.17-.64.1-.24.22-.46.35-.66.14-.18.28-.33.44-.45.15-.11.31-.18.5-.21.18-.03.38-.01.59.05.13.04.25-.02.3-.15l.34-.85c.02-.06.02-.13,0-.18-.03-.06-.07-.11-.14-.13-.31-.11-.62-.17-.93-.17h-.1c-.35.02-.69.11-1.01.29-.31.17-.6.43-.87.77-.27.33-.49.75-.69,1.25-.15.38-.24.76-.26,1.13-.03.37.01.71.1,1.03s.24.6.45.84c.21.24.47.42.79.55.24.1.47.15.72.15h0c.23,0,.45-.04.66-.13.2-.08.39-.18.55-.3.18-.13.32-.27.45-.42.13-.16.27-.34.43-.56.16-.21.33-.46.52-.74.18-.28.34-.5.48-.67.12-.15.25-.27.34-.35.08-.06.16-.09.25-.09.07,0,.15.02.25.05.22.09.34.25.4.51.07.28,0,.66-.18,1.13-.36.9-.84,1.23-1.53,1.03-.11-.03-.25.03-.29.15l-.34.86c-.02.06-.02.13,0,.19.03.06.07.1.14.13.26.1.52.14.77.14.08,0,.15,0,.23-.01.32-.04.63-.14.91-.32.27-.17.52-.41.75-.7.22-.3.41-.64.56-1.03.15-.38.24-.75.27-1.1.03-.36,0-.69-.07-.98-.09-.3-.23-.57-.43-.79l-.02-.03ZM506.45,580.02c-.06-.03-.12-.03-.19,0-.06.02-.11.07-.13.12l-2.27,4.85c-.06.12,0,.27.11.32l.75.35c.06.03.13.03.19,0s.11-.07.13-.13l1.77-3.78,1.66.78-1.58,3.37c-.03.06-.03.13,0,.19.02.06.07.11.12.14l.74.35c.13.06.27,0,.32-.11l1.58-3.37,1.46.68-1.7,3.62c-.03.06-.03.13,0,.19s.07.11.12.13l.73.34s.07.02.1.02c.09,0,.18-.05.22-.14l2.2-4.7c.06-.12,0-.26-.12-.32l-6.21-2.91h0Z"/>
<path class="st14" d="M518.56,580.27l2.35.17,2.35.17c.11,0,.21-.05.24-.14h0c.04-.1.01-.2-.06-.28l-1.8-1.53-1.8-1.53c-.06-.05-.13-.07-.21-.05-.07.02-.14.07-.17.14h0l-.55,1.36-.56,1.36c-.03.07-.02.15.02.21.05.06.11.11.19.12h0Z" id="Triangle8"/>
</g>
<g id="Half_Wind9">
<path class="st14" d="M507.3,420c.06.12,0,.26-.11.32l-.75.35s-.07.02-.1.02-.06,0-.09-.01c-.06-.02-.11-.07-.13-.12l-2.27-4.84c-.06-.12,0-.27.11-.32l6.21-2.92c.06-.03.12-.03.18,0s.11.07.14.12l2.2,4.69c.03.06.03.13,0,.18-.02.06-.07.11-.12.14l-.73.34c-.12.06-.27,0-.32-.12l-1.7-3.63-1.46.69,1.58,3.37c.03.06.03.13,0,.19-.02.06-.07.11-.12.14l-.74.35c-.11.06-.27,0-.32-.12l-1.58-3.37-1.66.78,1.78,3.78h0ZM516.47,426.23c.02-.06.02-.13,0-.19l-.36-.83c-.05-.12-.19-.18-.31-.12l-4.26,1.84,3.06-4.95c.05-.07.05-.15.02-.22l-.38-.88c-.06-.12-.2-.18-.31-.12l-6.3,2.73c-.12.05-.18.2-.12.32l.35.82c.02.06.07.11.13.13.06.02.12.02.18,0l4.27-1.85-3.07,4.95c-.05.07-.05.15-.02.22l.39.9c.02.06.07.11.13.13.03.01.06.02.09.02s.06,0,.09-.02l6.3-2.73c.06-.02.1-.07.13-.13v-.02ZM517.98,430.06c-.05-.13-.18-.19-.3-.15l-6.46,2.33c-.06.02-.11.07-.14.13-.03.06-.03.13,0,.19l1.82,5.04c.02.06.07.11.12.13.03.02.07.03.1.03s.06,0,.09-.02l.77-.28c.12-.04.19-.18.14-.31l-1.42-3.92,1.72-.62,1.26,3.5c.02.06.07.11.13.14.06.03.12.03.18,0l.77-.28c.12-.04.2-.18.15-.31l-1.27-3.5,1.51-.55,1.36,3.77c.04.13.18.19.31.15l.76-.28c.06-.02.11-.07.13-.12.03-.06.03-.13,0-.18l-1.76-4.88h.03Z"/>
<path class="st14" d="M519.86,423.58l1.79-1.54,1.79-1.54c.08-.07.11-.18.06-.27h0c-.04-.1-.14-.16-.25-.15l-2.35.19-2.35.19c-.08,0-.15.05-.19.12-.04.06-.05.14-.02.22h0l.57,1.35.56,1.35c.03.07.1.12.17.14.07.02.15,0,.21-.05h.01Z" id="Triangle9"/>
</g>
<g id="Half_Wind10">
<path class="st14" d="M470.66,357.56l-4.74,4.96s-.12.08-.18.08-.12-.02-.16-.07l-.71-.67c-.06-.06-.08-.14-.07-.21l.9-5.75-3.21,3.36s-.11.07-.17.07c-.05,0-.12-.02-.17-.07l-.64-.61c-.09-.09-.1-.25,0-.34l4.73-4.96c.1-.1.25-.1.34,0l.7.66c.06.05.08.13.07.21l-.9,5.75,3.21-3.36c.09-.1.24-.1.34,0l.65.62s.07.11.07.17-.02.13-.06.17h0ZM477.17,363.92l-3.57-3.75s-.1-.07-.17-.08c-.06,0-.12.03-.17.07l-4.96,4.73c-.09.09-.1.24,0,.34l3.69,3.87s.1.08.17.08h0c.06,0,.12-.03.16-.07l.6-.57c.09-.09.1-.24,0-.34l-2.88-3.02,1.33-1.26,2.57,2.69c.09.1.24.1.34,0l.59-.56s.07-.1.07-.17c0-.06-.02-.12-.07-.17l-2.57-2.7,1.17-1.11,2.76,2.9s.1.08.17.08c.08.01.13-.02.18-.07l.58-.56c.1-.09.11-.25,0-.34h.01Z"/>
<path class="st14" d="M476.03,356.79l1.06-2.11,1.07-2.11c.04-.1.03-.21-.05-.28h0c-.07-.07-.19-.09-.28-.05l-2.1,1.07-2.11,1.07c-.07.04-.11.1-.13.18-.01.08.01.15.06.21h0l1.04,1.04,1.03,1.03c.05.06.14.08.21.07.08,0,.14-.06.18-.13h.02Z" id="Triangle10"/>
</g>
<g id="Half_Wind11">
<path class="st14" d="M400.76,312.83l-2.32,6.45c-.04.1-.13.16-.23.16-.03,0-.05,0-.08-.01l-.92-.33c-.07-.03-.14-.09-.16-.16l-1.5-5.63-1.57,4.37c-.04.13-.18.19-.31.15l-.83-.3c-.06-.02-.11-.07-.13-.13-.03-.06-.03-.12,0-.18l2.33-6.45c.02-.06.07-.11.12-.13.06-.03.13-.03.19,0l.9.32c.07.03.13.09.16.17l1.51,5.63,1.57-4.37c.02-.06.07-.11.12-.14.06-.03.12-.03.18,0l.85.31c.12.05.19.18.14.31l-.02-.04ZM408.92,315.91c-.13-.06-.27,0-.32.12l-1.85,4.26-1.15-5.71c-.02-.08-.07-.14-.14-.17l-.89-.38c-.12-.06-.26,0-.32.12l-2.73,6.3c-.05.12,0,.26.13.32l.81.35c.06.02.12.03.18,0,.06-.02.11-.07.13-.13l1.85-4.26,1.14,5.71c.02.08.07.14.15.17l.89.39s.06.02.09.02c.04,0,.07,0,.1-.02.06-.02.11-.07.13-.13l2.72-6.29c.02-.06.03-.13,0-.18-.02-.06-.07-.11-.13-.13l-.82-.35h.03ZM418.18,320.1l-4.69-2.21c-.12-.06-.27,0-.32.12l-2.93,6.2c-.03.06-.03.12,0,.18.02.06.06.11.13.14l4.83,2.28s.07.02.11.02c.03,0,.06,0,.08-.01.06-.02.11-.07.13-.12l.35-.75c.06-.12,0-.27-.11-.32l-3.77-1.78.78-1.66,3.37,1.59c.12.06.26,0,.32-.11l.35-.74c.03-.06.03-.13,0-.18-.02-.06-.07-.11-.13-.14l-3.37-1.59.69-1.46,3.63,1.71c.12.06.26,0,.32-.12l.35-.73c.03-.06.03-.12,0-.18-.02-.06-.07-.11-.13-.13h0Z"/>
<path class="st14" d="M409.99,311.86l.17-2.35.17-2.35c0-.1-.05-.2-.15-.24h0c-.1-.04-.2-.01-.28.06l-1.53,1.8-1.53,1.8c-.05.06-.07.14-.05.21.02.08.07.14.14.17h0l1.36.56,1.36.56c.07.03.15.02.21-.02.06-.04.11-.1.12-.19h0Z" id="Triangle11"/>
</g>
</g>
</g>
</svg>